SplineFontDB: 3.2
FontName: FProject-Regular
FullName: FProject
FamilyName: FProject
Weight: Regular
Copyright: Created by Subhraman Sarkar, with FontForge 2.0 (http://fontforge.sf.net). This font is available under the SIL Open Font Licence.
Version: 1.1
ItalicAngle: 0
UnderlinePosition: -100
UnderlineWidth: 50
Ascent: 800
Descent: 200
InvalidEm: 0
sfntRevision: 0x00010000
LayerCount: 2
Layer: 0 0 "Back" 1
Layer: 1 0 "Fore" 0
XUID: [1021 177 -753856398 11660512]
StyleMap: 0x0000
FSType: 0
OS2Version: 4
OS2_WeightWidthSlopeOnly: 0
OS2_UseTypoMetrics: 1
CreationTime: 1412866884
ModificationTime: 1594208469
PfmFamily: 17
TTFWeight: 500
TTFWidth: 5
LineGap: 90
VLineGap: 0
Panose: 2 0 6 3 0 0 0 0 0 0
OS2TypoAscent: 800
OS2TypoAOffset: 0
OS2TypoDescent: -200
OS2TypoDOffset: 0
OS2TypoLinegap: 90
OS2WinAscent: 979
OS2WinAOffset: 0
OS2WinDescent: 716
OS2WinDOffset: 0
HheadAscent: 979
HheadAOffset: 0
HheadDescent: -716
HheadDOffset: 0
OS2SubXSize: 650
OS2SubYSize: 700
OS2SubXOff: 0
OS2SubYOff: 140
OS2SupXSize: 650
OS2SupYSize: 700
OS2SupXOff: 0
OS2SupYOff: 480
OS2StrikeYSize: 49
OS2StrikeYPos: 258
OS2CapHeight: 776
OS2XHeight: 403
OS2Vendor: 'PfEd'
OS2CodePages: 00000001.00000000
OS2UnicodeRanges: 00000001.00000000.00000000.00000000
MarkAttachClasses: 1
DEI: 91125
LangName: 1033 "" "" "" "FontForge 2.0 : FProject : 5-2-2015"
Encoding: UnicodeBmp
UnicodeInterp: none
NameList: AGL For New Fonts
DisplaySize: -72
AntiAlias: 1
FitToEm: 0
WinInfo: 702 18 7
BeginPrivate: 8
BlueValues 27 [-226 -198 403 403 776 783]
OtherBlues 11 [-687 -684]
BlueScale 9 0.0353571
BlueShift 1 2
StdHW 4 [75]
StdVW 4 [86]
StemSnapH 33 [72 75 76 77 78 83 88 97 102 134]
StemSnapV 24 [67 72 76 80 86 129 146]
EndPrivate
Grid
54 514 m 1
 156 516 l 1025
62 -286 m 5
 220 -286.638671875 378 -284.66015625 536 -284 c 1037
EndSplineSet
TeXData: 1 0 0 235929 117964 78643 217055 1048576 78643 783286 444596 497025 792723 393216 433062 380633 303038 157286 324010 404750 52429 2506097 1059062 262144

StartChar: .notdef
Encoding: 65536 -1 0
Width: 370
VWidth: 706
Flags: HMW
HStem: 102 40<100 270 100 310> 392 38<100 270 100 100>
VStem: 60 40<141 141 141 392> 270 40<141 392 392 392>
LayerCount: 2
Fore
SplineSet
60 102 m 1
 60 430 l 1
 310 430 l 1
 310 102 l 1
 60 102 l 1
100 141 m 1
 270 141 l 1
 270 392 l 1
 100 392 l 1
 100 141 l 1
EndSplineSet
Validated: 1
EndChar

StartChar: uni0000
Encoding: 0 -1 1
AltUni2: 000000.ffffffff.0
Width: 365
VWidth: 710
GlyphClass: 2
Flags: HMW
HStem: -6 65<182.077 199.077> 507 50<176.077 189.077>
VStem: 152 45<292 315> 160 62<18 35> 167 29<109 114> 265 40<421 427>
LayerCount: 2
Fore
SplineSet
180 556 m 0xe4
 253 556 305 511 305 434 c 0
 305 400 295 367 284 351 c 1
 258 324 257 328 216 309 c 0
 209 304 197 308 197 293 c 0xe4
 197 290 198 285 199 280 c 1
 195 114 l 1
 167 109 l 1xcc
 152 304 l 1
 152 326 160 344 185 353 c 1
 219 360 252 373 258 401 c 1
 264 412 265 419 265 424 c 0
 265 430 263 434 264 441 c 0
 260 464 250 480 227 493 c 0
 214 500 198 507 180 507 c 0
 140 507 121 484 104 454 c 0
 99 444 94 429 80 429 c 2
 77 429 l 1
 69 430 60 438 60 455 c 0
 60 457 60 460 60 462 c 0
 59 467 68 481 71 486 c 0
 79 499 85 509 95 520 c 0
 119 546 135 550 161 555 c 0
 167 556 173 556 180 556 c 0xe4
160 25 m 0xd4
 160 44 172 59 191 59 c 0
 209 59 222 44 222 27 c 0
 222 10 208 -6 189 -6 c 0
 171 -6 160 8 160 25 c 0xd4
EndSplineSet
Validated: 1
EndChar

StartChar: exclam
Encoding: 33 33 4
Width: 194
VWidth: 712
GlyphClass: 2
Flags: HMW
HStem: 6 77<87 108>
VStem: 60 74<36 55> 65 64<447 535 447 535> 76 44
LayerCount: 2
Fore
SplineSet
134 46 m 0xc0
 134 25 120 6 97 6 c 0
 75 6 60 25 60 45 c 0
 60 66 76 84 99 84 c 0
 121 84 134 66 134 46 c 0xc0
98 554 m 0
 108 554 118 545 129 533 c 1
 129 513 l 2xa0
 129 382 123 278 120 164 c 1
 112 144 106 132 98 131 c 0
 91 132 85 142 76 165 c 1x90
 72 293 66 331 65 533 c 1
 65 535 l 1xa0
 79 547 89 554 98 554 c 0
EndSplineSet
Validated: 1
EndChar

StartChar: quotedbl
Encoding: 34 34 5
Width: 202
VWidth: 863
GlyphClass: 2
Flags: HMW
HStem: 576 158
VStem: 42 77
LayerCount: 2
Fore
SplineSet
142 734 m 1
 138 583 l 1
 111 583 l 1
 108 735 l 1
 142 734 l 1
94 734 m 1
 90 583 l 1
 63 583 l 1
 60 735 l 1
 94 734 l 1
EndSplineSet
Validated: 1
EndChar

StartChar: numbersign
Encoding: 35 35 6
Width: 569
VWidth: 715
GlyphClass: 2
Flags: HMW
HStem: -4 13G<299 350 299 299> 159 43<60 150 60 158 60 200> 392 43<427 509 435 509 435 509> 571 12G<234 234>
LayerCount: 2
Fore
SplineSet
378 392 m 1
 334 392 289 391 245 391 c 1
 208 202 l 1
 340 203 l 1
 378 392 l 1
427 392 m 1
 390 203 l 1
 480 203 l 1
 479 160 l 1
 381 160 l 1
 350 -4 l 1
 299 -4 l 1
 332 160 l 1
 200 159 l 1
 170 4 l 1
 119 4 l 1
 150 159 l 1
 60 159 l 1
 60 202 l 1
 158 202 l 1
 195 391 l 1
 78 390 l 1
 79 433 l 1
 204 434 l 1
 234 583 l 1
 282 582 l 1
 254 434 l 1
 386 435 l 1
 414 575 l 1
 462 574 l 1
 435 436 l 1
 509 436 l 1
 509 392 l 1
 427 392 l 1
EndSplineSet
Validated: 1
EndChar

StartChar: dollar
Encoding: 36 36 7
Width: 489
VWidth: 720
GlyphClass: 2
Flags: HMW
HStem: -1 13G<261 261> 35 44<261 264 261 281 261 264> 37 46<220 220> 267 44<305 323> 270 49<221 221> 528 46<261 261>
VStem: 60 35<144 177> 61 46<410 411 410 450> 220 41<0 35 -1 37 -1 37 83 83> 383 46<166 187>
LayerCount: 2
Fore
SplineSet
94 180 m 1xa6c0
 96 173 96 149 101 144 c 1
 101 140 l 1
 126 108 174 91 220 83 c 1
 221 270 l 1xaec0
 165 276 111 294 74 344 c 1
 65 373 61 397 61 419 c 0
 61 480 93 515 125 535 c 0
 158 555 190 568 222 572 c 1
 223 603 l 1
 261 601 l 1
 261 573 l 1
 296 571 331 558 368 535 c 0
 387 523 392 516 406 497 c 0
 408 493 410 492 410 489 c 0
 410 478 404 452 389 452 c 0
 386 452 385 452 383 453 c 2
 382 454 l 1
 358 506 306 525 261 528 c 1
 261 314 l 1
 278 312 294 312 305 311 c 1
 334 311 l 2
 396 311 428 246 428 210 c 0
 429 205 429 199 429 194 c 0
 429 135 402 75 362 57 c 1
 331 38 307 35 281 35 c 2
 261 35 l 1xd5c0
 261 -1 l 1
 220 0 l 1
 220 37 l 1
 177 38 107 74 76 111 c 0
 75 112 73 113 72 114 c 0
 67 120 60 140 60 148 c 0
 60 169 81 179 94 180 c 1xa6c0
221 320 m 1
 222 525 l 1
 200 521 179 511 157 496 c 0
 123 473 107 446 107 411 c 2
 107 410 l 1x85c0
 111 398 105 379 130 354 c 1
 153 335 187 326 221 320 c 1
261 267 m 1xd4c0
 261 79 l 1
 266 79 271 78 276 78 c 0
 281 78 286 79 290 79 c 0
 304 79 317 82 338 96 c 1
 340 98 l 1
 368 112 383 148 383 183 c 0
 383 190 382 198 381 205 c 0
 381 228 354 267 323 267 c 2
 261 267 l 1xd4c0
EndSplineSet
Validated: 1
EndChar

StartChar: percent
Encoding: 37 37 8
Width: 452
VWidth: 707
GlyphClass: 2
Flags: HMW
HStem: -16 43<296 305 296 310> 196 41<295 303> 298 43<145 154 145 159> 510 41<144 152>
VStem: 60 38<406 438 406 445> 198 43<423 440> 211 38<91 124 91 130> 349 43<108 126>
LayerCount: 2
Fore
SplineSet
299 196 m 0xfb
 291 196 281 191 273 183 c 0
 256 166 249 141 249 107 c 0
 249 76 256 56 272 40 c 0
 280 32 292 27 300 27 c 0
 309 27 318 33 327 42 c 0
 344 58 349 76 349 109 c 0
 349 141 341 166 324 183 c 0
 316 191 307 196 299 196 c 0xfb
392 108 m 1
 388 59 374 32 350 5 c 1
 333 -8 318 -16 302 -16 c 0
 288 -16 273 -13 258 0 c 0
 228 24 211 56 211 104 c 0
 211 157 225 193 257 218 c 0
 273 230 288 237 302 237 c 0
 316 237 329 231 345 218 c 0
 376 193 392 158 392 108 c 1
148 510 m 0
 140 510 131 506 123 498 c 0
 106 481 98 455 98 421 c 0
 98 390 106 370 122 354 c 0
 130 346 141 342 149 342 c 0
 158 342 168 348 177 357 c 0
 194 373 198 391 198 424 c 0xfd
 198 456 190 480 173 497 c 0
 165 505 156 510 148 510 c 0
240 423 m 1
 236 374 224 346 200 319 c 1
 183 306 168 298 152 298 c 0
 138 298 123 302 108 315 c 0
 78 339 60 370 60 418 c 0
 60 471 75 507 107 532 c 0
 123 544 137 551 151 551 c 0
 165 551 179 545 195 532 c 0
 226 507 240 473 240 423 c 1
375 527 m 1
 123 -6 l 1
 77 6 l 1
 326 540 l 1
 375 527 l 1
EndSplineSet
Validated: 1
EndChar

StartChar: ampersand
Encoding: 38 38 9
Width: 500
VWidth: 715
GlyphClass: 2
Flags: HMW
HStem: -13 40<211 212> 548 40<231 254>
VStem: 60 41<107 159 107 167> 91 41<447 463 447 471> 399 41<30 38>
LayerCount: 2
Fore
SplineSet
331 496 m 1xc8
 329 492 330 486 332 482 c 0
 334 481 337 481 339 481 c 1
 337 486 334 491 331 496 c 1xc8
333 176 m 1
 357 251 361 308 363 320 c 1
 403 317 l 1
 403 311 l 2
 403 309 396 222 367 140 c 1
 377 129 384 118 393 108 c 0
 408 93 440 68 440 32 c 0
 440 25 438 18 437 11 c 1
 397 20 l 1
 398 23 399 26 399 30 c 0
 399 44 383 61 363 81 c 1
 363 82 l 1
 358 87 354 94 350 98 c 1
 323 43 282 -5 221 -12 c 0
 217 -13 214 -13 210 -13 c 0
 146 -13 60 51 60 141 c 0xe8
 60 194 91 251 166 304 c 1
 140 339 117 375 98 416 c 1
 98 417 l 1
 93 428 91 441 91 452 c 0
 91 492 116 527 144 549 c 1
 170 573 208 588 245 588 c 0
 272 588 298 580 321 562 c 0
 330 555 340 547 348 539 c 0
 352 535 355 533 358 528 c 1
 357 526 l 2
 358 526 360 527 362 524 c 0
 370 513 377 500 380 485 c 0
 380 484 380 481 380 479 c 0
 380 456 360 441 336 441 c 0
 310 441 289 461 289 491 c 0
 289 504 292 516 302 526 c 1
 289 539 266 548 244 548 c 0
 191 548 132 501 132 450 c 0xd8
 132 443 133 437 135 431 c 0
 179 335 257 257 333 176 c 1
101 141 m 0
 101 74 171 27 211 27 c 2
 216 27 l 1
 262 32 295 79 318 134 c 0
 317 135 318 134 317 135 c 0
 276 180 231 224 191 272 c 1
 122 223 101 178 101 141 c 0
EndSplineSet
Validated: 1
EndChar

StartChar: quotesingle
Encoding: 39 39 10
Width: 154
VWidth: 863
GlyphClass: 2
Flags: HMW
HStem: 576 158
VStem: 42 77
LayerCount: 2
Fore
SplineSet
94 734 m 1
 90 583 l 1
 63 583 l 1
 60 735 l 1
 94 734 l 1
EndSplineSet
Validated: 1
EndChar

StartChar: parenleft
Encoding: 40 40 11
Width: 362
VWidth: 716
GlyphClass: 2
Flags: HMW
HStem: -4 34<267 276 276 277> 557 28<278 278>
VStem: 60 53<248 291>
LayerCount: 2
Fore
SplineSet
302 10 m 0
 302 0 284 -4 277 -4 c 2
 276 -4 l 2
 242 -4 209 8 173 33 c 0
 99 85 60 188 60 291 c 1
 64 405 114 495 176 547 c 1
 211 571 244 585 277 585 c 2
 281 585 l 1
 294 584 297 579 297 572 c 2
 297 569 l 1
 296 560 292 567 278 557 c 1
 246 545 234 537 206 516 c 0
 147 469 113 381 113 290 c 0
 113 206 137 117 192 73 c 1
 211 49 253 30 281 30 c 0
 291 29 302 18 302 10 c 0
EndSplineSet
Validated: 1
EndChar

StartChar: parenright
Encoding: 41 41 12
Width: 361
VWidth: 716
GlyphClass: 2
Flags: HMW
HStem: -4 34<81 84 84 85> 557 28<84 84>
VStem: 249 53<248 291 240 336>
LayerCount: 2
Fore
SplineSet
84 -4 m 2
 77 -4 60 0 60 10 c 0
 60 18 70 29 80 30 c 0
 108 30 150 49 169 73 c 1
 224 117 249 206 249 290 c 0
 249 381 215 469 156 516 c 0
 128 537 116 545 84 557 c 1
 70 567 65 560 64 569 c 1
 64 572 l 2
 64 579 67 584 80 585 c 1
 84 585 l 2
 117 585 151 571 186 547 c 1
 248 495 297 405 301 291 c 1
 301 188 263 85 189 33 c 0
 153 8 119 -4 85 -4 c 2
 84 -4 l 2
EndSplineSet
Validated: 1
EndChar

StartChar: asterisk
Encoding: 42 42 13
Width: 309
VWidth: 847
GlyphClass: 2
Flags: HMW
HStem: 606 29<82 131 82 82> 610 26<181 230>
VStem: 142 29<531 531>
LayerCount: 2
Fore
SplineSet
86 568 m 1x60
 131 606 l 1
 82 606 l 1
 60 619 l 1
 82 635 l 1xa0
 133 634 l 1
 86 677 l 1
 81 703 l 1
 106 698 l 1
 143 650 l 1
 140 704 l 1
 154 723 l 1
 169 704 l 1
 166 649 l 1
 203 699 l 1
 227 701 l 1
 224 678 l 1
 182 636 l 1
 230 636 l 1
 249 625 l 1
 230 608 l 1
 181 610 l 1
 225 569 l 1
 228 546 l 1
 205 548 l 1
 169 587 l 1
 171 531 l 1
 160 515 l 1
 142 531 l 1
 146 588 l 1
 107 547 l 1
 82 542 l 1
 86 568 l 1x60
EndSplineSet
Validated: 1
EndChar

StartChar: plus
Encoding: 43 43 14
Width: 362
VWidth: 680
GlyphClass: 2
Flags: HMW
HStem: 182 44<60 155 60 155 60 155 200 302 200 200>
VStem: 155 45<226 226>
LayerCount: 2
Fore
SplineSet
155 280 m 5
 153 388 l 5
 198 388 l 5
 200 280 l 5
 302 280 l 5
 302 236 l 5
 200 236 l 5
 201 120 l 5
 156 120 l 5
 155 236 l 5
 60 236 l 5
 60 280 l 5
 155 280 l 5
EndSplineSet
Validated: 1
EndChar

StartChar: comma
Encoding: 44 44 15
Width: 197
VWidth: 493
GlyphClass: 2
Flags: HMW
HStem: -363 193<74 107>
VStem: 75 62<-205 -202 -202 -196 -205 -192> 88 46
LayerCount: 2
Fore
SplineSet
75 27 m 4xc0
 75 49 88 60 105 60 c 6
 107 60 l 6
 108 60 108 61 109 61 c 4
 111 61 112 60 113 59 c 4
 128 58 135 41 137 34 c 5
 137 28 l 6xc0
 137 22 136 12 134 7 c 4
 133 -46 109 -92 74 -133 c 5
 60 -113 l 5
 76 -87 88 -63 88 -35 c 4xa0
 88 -21 86 -8 81 8 c 5
 76 14 75 20 75 27 c 4xc0
EndSplineSet
Validated: 1
EndChar

StartChar: hyphen
Encoding: 45 45 16
Width: 362
VWidth: 682
GlyphClass: 2
Flags: HMW
HStem: 185 44<60 302 60 302>
LayerCount: 2
Fore
SplineSet
60 279 m 5
 302 279 l 5
 302 235 l 5
 60 235 l 5
 60 279 l 5
EndSplineSet
Validated: 1
EndChar

StartChar: period
Encoding: 46 46 17
Width: 200
VWidth: 542
GlyphClass: 2
Flags: HMW
HStem: -184 83<87 110>
VStem: 60 80<-154 -133>
LayerCount: 2
Fore
SplineSet
60 36 m 4
 60 58 75 78 100 78 c 4
 124 78 140 58 140 37 c 4
 140 15 122 -4 98 -4 c 4
 74 -4 60 15 60 36 c 4
EndSplineSet
Validated: 1
EndChar

StartChar: slash
Encoding: 47 47 18
Width: 284
VWidth: 712
GlyphClass: 2
Flags: HMW
HStem: -9 13G<60 60 60 111>
VStem: 60 163
LayerCount: 2
Fore
SplineSet
60 -9 m 1
 175 569 l 1
 224 568 l 1
 111 -9 l 1
 60 -9 l 1
EndSplineSet
Validated: 1
EndChar

StartChar: zero
Encoding: 48 48 19
Width: 530
VWidth: 700
GlyphClass: 2
Flags: HMW
HStem: -30 58<260 285> 479 55<255 282>
VStem: 60 53<199 287 199 296> 423 47<204 292>
LayerCount: 2
Fore
SplineSet
269 493 m 4
 243 493 217 482 191 460 c 4
 138 414 113 347 113 255 c 4
 113 170 137 124 187 81 c 0
 212 59 247 48 273 48 c 0
 301 48 328 62 356 86 c 0
 407 130 423 174 423 262 c 4
 423 350 398 414 346 459 c 4
 320 481 295 493 269 493 c 4
470 261 m 4
 470 149 448 92 377 37 c 0
 339 7 303 -10 267 -10 c 0
 236 -10 202 -3 168 25 c 0
 100 79 60 145 60 252 c 4
 60 370 93 450 165 507 c 4
 200 535 234 548 266 548 c 4
 298 548 331 534 366 506 c 4
 436 451 470 372 470 261 c 4
EndSplineSet
Validated: 1
EndChar

StartChar: one
Encoding: 49 49 20
Width: 229
VWidth: 693
GlyphClass: 2
Flags: HMW
VStem: 122 47<-23 -23>
LayerCount: 2
Fore
SplineSet
123 544 m 5
 125 544 131 543 132 543 c 4
 141 543 139 544 160 544 c 6
 166 544 l 5
 169 -3 l 1
 122 -3 l 1
 119 436 l 5
 99 399 92 387 78 361 c 6
 73 352 l 5
 60 391 l 5
 123 544 l 5
EndSplineSet
Validated: 1
EndChar

StartChar: two
Encoding: 50 50 21
Width: 568
VWidth: 702
GlyphClass: 2
Flags: HMW
HStem: -17 41<335 364 335 368> 10 41 308 41<143 158 143 164> 485 42<228 253>
VStem: 66 43<385 398 385 406> 196 45<396 407> 400 43<332 353>
LayerCount: 2
Fore
SplineSet
154 370 m 4x3e
 179 370 196 406 196 416 c 4
 196 438 170 453 147 453 c 4
 143 453 140 453 136 452 c 4
 135 452 131 451 126 452 c 5
 121 445 118 440 115 433 c 4
 112 427 108 422 108 415 c 4
 108 396 132 370 154 370 c 4x3e
66 415 m 4
 66 439 83 471 99 481 c 5
 99 483 l 5
 102 489 l 5
 133 520 182 547 238 547 c 4
 275 547 311 537 343 522 c 4
 369 510 407 489 423 452 c 4
 437 417 443 389 443 363 c 4
 443 335 435 307 418 270 c 4
 373 179 281 97 196 51 c 1x7e
 208 50 220 48 232 46 c 1
 315 25 l 2
 323 24 331 24 339 24 c 0
 390 24 439 42 466 82 c 1
 471 89 l 1
 508 67 l 1
 502 59 l 1
 464 3 398 -17 337 -17 c 0xbe
 328 -17 319 -17 310 -16 c 0
 275 -14 247 3 226 5 c 1
 223 5 l 1
 209 8 195 10 181 10 c 0x7e
 150 10 118 3 86 -4 c 0
 85 -5 83 -4 82 -4 c 0
 71 -4 60 4 60 17 c 0
 60 42 112 52 118 58 c 0
 215 105 330 192 377 287 c 4
 393 321 400 341 400 363 c 4
 400 383 394 404 380 438 c 4
 372 458 347 472 322 485 c 4
 294 498 267 505 239 505 c 4
 217 505 196 500 177 490 c 5
 212 480 241 454 241 417 c 4
 241 415 241 412 241 410 c 4
 238 377 198 328 156 328 c 4
 109 328 66 370 66 415 c 4
EndSplineSet
Validated: 1
EndChar

StartChar: three
Encoding: 51 51 22
Width: 467
VWidth: 702
GlyphClass: 2
Flags: HMW
HStem: -21 44<230 241 219 273> 239 41<222 268> 487 46
VStem: 60 44<108 114 96 124> 71 48<408 415> 357 43<352 377> 360 46<127 153 127 160>
LayerCount: 2
Fore
SplineSet
216 248 m 4xf2
 192 248 155 249 155 272 c 4
 155 285 173 292 179 296 c 5
 188 294 208 289 235 289 c 4
 254 289 276 291 300 298 c 4
 337 312 357 341 357 378 c 4
 357 395 353 414 344 433 c 5
 322 466 329 464 292 487 c 5
 275 494 255 497 234 497 c 4
 178 497 119 474 119 423 c 4
 119 412 122 400 128 386 c 5
 124 368 115 357 102 357 c 4
 74 357 71 382 71 423 c 4xec
 71 428 71 434 72 439 c 5
 91 461 104 539 233 543 c 5
 348 542 386 448 389 448 c 5
 397 422 401 400 401 380 c 4
 401 343 388 313 364 279 c 4
 357 268 360 272 358 267 c 5
 378 238 l 6
 399 206 407 179 407 148 c 4
 407 127 404 105 399 79 c 4
 386 32 353 13 328 0 c 5
 308 -7 285 -11 262 -11 c 4
 198 -11 135 10 136 11 c 5
 102 28 85 50 69 84 c 4
 64 98 60 111 60 124 c 4
 60 143 67 160 81 174 c 4
 88 181 94 184 101 184 c 4
 112 184 122 174 122 162 c 4
 122 148 105 136 105 120 c 4
 105 92 134 58 159 51 c 5
 183 40 206 34 232 34 c 4
 250 34 270 36 293 43 c 4
 341 56 360 91 360 146 c 4
 360 193 339 234 301 244 c 4
 291 248 276 249 260 249 c 4
 246 249 230 248 216 248 c 4xf2
EndSplineSet
Validated: 33
EndChar

StartChar: four
Encoding: 52 52 23
Width: 555
VWidth: 702
GlyphClass: 2
Flags: HMW
HStem: -29 13G<396 411> 238 40<79 380 428 475>
VStem: 380 48<238 238 279 431>
LayerCount: 2
Fore
SplineSet
403 -9 m 0
 389 -9 384 -2 379 5 c 1
 380 219 l 1
 79 219 l 1
 75 220 72 222 68 223 c 1
 60 236 l 1
 61 240 61 243 63 246 c 2
 256 542 l 6
 260 548 269 552 277 552 c 4
 292 552 298 542 304 533 c 5
 246 452 190 342 133 260 c 1
 380 260 l 1
 380 451 l 2
 380 460 388 471 404 471 c 0
 419 471 428 461 428 451 c 2
 428 260 l 1
 475 260 l 2
 486 260 495 251 495 240 c 0
 495 229 486 219 475 219 c 2
 428 219 l 1
 427 9 l 2
 427 1 419 -9 403 -9 c 0
EndSplineSet
Validated: 1
EndChar

StartChar: five
Encoding: 53 53 24
Width: 504
VWidth: 686
GlyphClass: 2
Flags: HMW
HStem: -44 44<210 270 210 273> 242 42<203 245> 421 43<245 293 242 295> 431 43<404 412>
VStem: 74 44<263 430 263 455 263 461> 400 44<80 117 64 123>
LayerCount: 2
Fore
SplineSet
421 503 m 1xec
 374 493 322 491 271 491 c 0
 220 491 168 494 118 500 c 1
 118 333 l 1
 143 344 181 354 225 354 c 0
 277 354 339 340 406 293 c 1
 434 265 438 223 444 180 c 0
 445.013825355 173.048054709 445.487509329 166.15903851 445.487509329 159.359914123 c 0
 445.487509329 72.2693552991 367.768926355 -0.0724160967859 352 -1 c 0
 316 -4 287 -14 259 -14 c 0
 138 -14 78 61 65 80 c 2
 60 88 l 1
 79 98 l 2
 80 99 81 99 82 100 c 2
 98 109 l 1
 113 91 154 29 259 29 c 0
 282 29 307 32 335 40 c 0
 355.424312126 45.5702669435 400.843300387 108.024969228 400.843300387 168.152616338 c 0
 400.843300387 172.791323573 400.572977409 177.416180731 400 182 c 0
 397 204 393 230 376 261 c 1
 318 300 266 312 224 312 c 0
 159 312 117 283 107 277 c 0
 105 276 101 274 96 274 c 0
 84 274 74 284 74 296 c 2
 74 525 l 2
 74 537 85 546 97 546 c 2
 100 546 l 1
 156 538 214 534 271 534 c 0
 318 534 369 536 413 546 c 1
 421 503 l 1xec
EndSplineSet
Validated: 524289
EndChar

StartChar: six
Encoding: 54 54 25
Width: 472
VWidth: 707
GlyphClass: 2
Flags: HMW
HStem: -10 45<236 264 236 268> 267 44<221 256> 504 44<253 285>
VStem: 60 37<280 298 275 303> 371 35 375 38<125 164>
LayerCount: 2
Fore
SplineSet
98 237 m 1xf8
 130 285 185 311 238 311 c 0
 278 311 319 298 352 273 c 1
 391 248 412 196 412 144 c 0
 412 92 394 52 359 28 c 1
 327 3 288 -10 249 -10 c 0
 132 -10 78 101 64 197 c 0
 62 213 61 228 60 245 c 0
 60 259 60 272 60 286 c 0
 60 320 61 355 71 390 c 0
 90 457 136 510 197 537 c 0
 219 545 240 548 260 548 c 0
 324 548 377 509 405 447 c 0
 406 444 406 441 406 438 c 0
 406 428 399 416 388 416 c 0
 381 416 374 421 371 429 c 0
 348 478 308 504 261 504 c 0
 245 504 230 502 213 496 c 0
 163 474 122 431 106 376 c 0
 98 347 97 315 97 281 c 0
 97 270 97 257 97 246 c 0
 97 241 98 239 98 237 c 1xf8
106 179 m 1
 117 127 140 81 180 56 c 0
 200 42 224 35 249 35 c 0
 280 35 311 45 337 64 c 1
 337 65 l 1
 360 81 375 106 375 144 c 0xf4
 375 183 358 220 333 234 c 0
 332 235 332 235 331 236 c 0
 304 256 272 267 240 267 c 0
 203 267 166 252 138 222 c 0
 125 206 115 193 106 179 c 1
EndSplineSet
Validated: 1
EndChar

StartChar: seven
Encoding: 55 55 26
Width: 488
VWidth: 697
GlyphClass: 2
Flags: HMW
HStem: -32 13G<239 243> 473 44<75 99>
VStem: 60 40<430 431> 217 41<-26 -14>
LayerCount: 2
Fore
SplineSet
60 457 m 5
 60 526 l 6
 60 539 72 543 79 543 c 6
 408 544 l 6
 416 544 428 539 428 527 c 4
 428 524 429 521 428 519 c 6
 258 -5 l 1
 252 -7 248 -11 239 -11 c 0
 238 -11 236 -10 235 -10 c 0
 225 -8 221 -1 217 7 c 1
 381 500 l 5
 99 500 l 5
 100 458 l 5
 60 457 l 5
EndSplineSet
Validated: 1
EndChar

StartChar: eight
Encoding: 56 56 27
Width: 438
VWidth: 709
GlyphClass: 2
Flags: HMW
HStem: -9 44<229 230 224 232> 512 43<196 223>
VStem: 60 42<146 151 151 152> 77 42<422 450 422 451> 287 42<421 435> 336 42<128 137 128 137>
LayerCount: 2
Fore
SplineSet
203 548 m 4xdc
 274 548 329 495 329 421 c 4
 329 393 320 366 298 347 c 4
 282 333 262 316 244 301 c 5
 295 279 355 249 368 185 c 1
 376 175 378 153 378 137 c 2
 378 128 l 1
 376 33 300 -9 230 -9 c 2
 224 -9 l 1
 148 -7 60 46 60 146 c 2
 60 151 l 2xec
 60 154 61 157 62 159 c 0
 61 163 61 166 61 170 c 0
 61 216 105 262 170 296 c 5
 176 300 l 5
 127 333 77 380 77 434 c 4
 77 454 83 476 99 499 c 4
 104 507 111 515 119 523 c 4
 124 529 134 533 142 536 c 4
 164 544 184 548 203 548 c 4xdc
146 490 m 5
 134 475 119 453 119 433 c 4xdc
 119 398 154 368 209 328 c 5
 232 347 255 366 271 381 c 4
 282 391 287 406 287 422 c 4
 287 435 284 448 278 460 c 4
 265 485 242 505 205 505 c 4
 188 505 168 500 146 490 c 5
336 133 m 0
 336 215 276 242 211 273 c 5
 131 232 102 181 102 146 c 0xec
 102 77 164 35 229 35 c 2
 232 35 l 1
 288 36 336 68 336 133 c 0
EndSplineSet
Validated: 1
EndChar

StartChar: nine
Encoding: 57 57 28
Width: 473
VWidth: 707
GlyphClass: 2
Flags: HMW
HStem: -10 44<188 219 188 223> 227 44<217 252 217 258> 503 45<209 237>
VStem: 60 38<374 413 374 420> 66 35 375 37<257 292 292 293>
LayerCount: 2
Fore
SplineSet
375 301 m 1xec
 344 254 287 227 234 227 c 0
 194 227 153 240 120 265 c 1
 81 290 60 342 60 394 c 0xf4
 60 446 79 486 114 510 c 1
 146 535 185 548 224 548 c 0
 340 548 394 437 408 342 c 0
 410 326 412 310 413 293 c 1
 413 252 l 2
 413 218 412 184 402 149 c 0
 383 82 337 29 276 2 c 0
 254 -6 233 -10 213 -10 c 0
 149 -10 96 29 68 91 c 0
 67 94 66 97 66 100 c 0
 66 110 73 122 84 122 c 0
 91 122 98 117 101 109 c 0
 124 60 165 34 212 34 c 0
 228 34 243 37 260 43 c 0
 310 65 350 107 366 162 c 0
 374 191 375 223 375 257 c 2
 375 301 l 1xec
367 360 m 1
 352 432 310 503 224 503 c 0
 193 503 162 493 136 474 c 1
 135 473 l 1
 112 457 98 432 98 394 c 0
 98 355 115 318 140 304 c 0
 141 303 141 303 142 302 c 0
 169 282 201 271 233 271 c 0
 270 271 307 286 335 316 c 0
 348 332 358 346 367 360 c 1
EndSplineSet
Validated: 1
EndChar

StartChar: colon
Encoding: 58 58 29
Width: 202
VWidth: 634
GlyphClass: 2
Flags: HMW
HStem: 2 84<90 113> 206 83<88 111>
VStem: 62 80<32 54>
LayerCount: 2
Fore
SplineSet
60 246 m 0
 60 268 75 288 100 288 c 0
 124 288 140 268 140 247 c 0
 140 225 123 206 99 206 c 0
 75 206 60 225 60 246 c 0
62 42 m 0
 62 64 78 86 103 86 c 0
 127 86 142 65 142 44 c 0
 142 22 125 2 101 2 c 0
 77 2 62 21 62 42 c 0
EndSplineSet
Validated: 1
EndChar

StartChar: semicolon
Encoding: 59 59 30
Width: 205
VWidth: 594
GlyphClass: 2
Flags: HMW
HStem: 173 84<93 116>
VStem: 65 80<204 225> 87 46
LayerCount: 2
Fore
SplineSet
71 1 m 0xa0
 71 23 87 40 108 40 c 0
 134 40 142 24 142 -1 c 0
 142 -9 138 -20 133 -25 c 1
 132 -78 108 -123 73 -164 c 1
 60 -145 l 1
 76 -119 87 -95 87 -67 c 0
 87 -53 84 -40 79 -24 c 1
 72 -17 71 -8 71 1 c 0xa0
65 214 m 0xc0
 65 236 81 257 106 257 c 0
 130 257 145 236 145 215 c 0
 145 193 128 173 104 173 c 0
 80 173 65 193 65 214 c 0xc0
EndSplineSet
Validated: 1
EndChar

StartChar: less
Encoding: 60 60 31
Width: 352
VWidth: 650
GlyphClass: 2
Flags: W
HStem: 137 238
VStem: 60 232
LayerCount: 2
Fore
SplineSet
132 257 m 5
 292 177 l 5
 271 137 l 5
 206 169 143 201 78 233 c 6
 68 238 l 5
 60 254 l 5
 72 277 l 5
 137 310 204 342 269 375 c 5
 289 335 l 5
 132 257 l 5
EndSplineSet
Validated: 1
EndChar

StartChar: equal
Encoding: 61 61 32
Width: 362
VWidth: 655
GlyphClass: 2
Flags: HMW
HStem: 114 46<60 302 60 302> 197 44<60 302 60 302>
LayerCount: 2
Fore
SplineSet
60 240 m 5
 302 240 l 5
 302 194 l 5
 60 194 l 5
 60 240 l 5
60 322 m 5
 302 322 l 5
 302 277 l 5
 60 277 l 5
 60 322 l 5
EndSplineSet
Validated: 1
EndChar

StartChar: greater
Encoding: 62 62 33
Width: 352
VWidth: 647
GlyphClass: 2
Flags: W
HStem: 137 239
VStem: 63 229
LayerCount: 2
Fore
SplineSet
220 257 m 5
 63 336 l 5
 83 376 l 5
 148 343 215 311 280 278 c 5
 292 254 l 5
 284 238 l 5
 217 203 149 171 81 137 c 5
 60 177 l 5
 220 257 l 5
EndSplineSet
Validated: 1
EndChar

StartChar: question
Encoding: 63 63 34
Width: 365
VWidth: 710
GlyphClass: 2
Flags: HMW
HStem: -6 65<182.077 199.077> 507 50<176.077 189.077>
VStem: 152 45<292 315> 160 62<18 35> 167 29<109 114> 265 40<421 427>
LayerCount: 2
Fore
SplineSet
180 556 m 0xe4
 253 556 305 511 305 434 c 0
 305 400 295 367 284 351 c 1
 258 324 257 328 216 309 c 0
 209 304 197 308 197 293 c 0xe4
 197 290 198 285 199 280 c 1
 195 114 l 1
 167 109 l 1xcc
 152 304 l 1
 152 326 160 344 185 353 c 1
 219 360 252 373 258 401 c 1
 264 412 265 419 265 424 c 0
 265 430 263 434 264 441 c 0
 260 464 250 480 227 493 c 0
 214 500 198 507 180 507 c 0
 140 507 121 484 104 454 c 0
 99 444 94 429 80 429 c 2
 77 429 l 1
 69 430 60 438 60 455 c 0
 60 457 60 460 60 462 c 0
 59 467 68 481 71 486 c 0
 79 499 85 509 95 520 c 0
 119 546 135 550 161 555 c 0
 167 556 173 556 180 556 c 0xe4
160 25 m 0xd4
 160 44 172 59 191 59 c 0
 209 59 222 44 222 27 c 0
 222 10 208 -6 189 -6 c 0
 171 -6 160 8 160 25 c 0xd4
EndSplineSet
Validated: 1
EndChar

StartChar: at
Encoding: 64 64 35
Width: 623
VWidth: 718
GlyphClass: 2
Flags: HMW
HStem: 2 43<285 319 285 323> 116 51<302 320 302 323> 445 47<307 325> 546 46<293 328>
VStem: 60 46<244 341 244 350> 149 52<278 332 278 338> 418 43<464 464 464 466 464 466> 515 47<250 346>
LayerCount: 2
Fore
SplineSet
229 143 m 0
 175 178 149 231 149 302 c 0
 149 374 175 426 230 461 c 0
 259 480 288 491 317 491 c 0
 343 491 370 482 396 465 c 0
 404 460 412 453 418 448 c 1
 418 466 l 1
 461 464 l 1
 458 139 l 1
 414 141 l 1
 417 165 l 1
 408 157 400 150 390 143 c 0
 363 126 337 116 310 116 c 0
 283 116 256 125 229 143 c 0
256 187 m 0
 275 174 293 167 311 167 c 0
 329 167 347 174 366 187 c 0
 404 214 421 253 421 309 c 0
 421 361 406 399 370 425 c 0
 351 438 334 445 317 445 c 0
 298 445 277 436 257 422 c 0
 220 396 201 358 201 305 c 0
 201 252 219 214 256 187 c 0
413 510 m 0
 379 533 345 546 311 546 c 0
 277 546 243 534 209 511 c 0
 137 462 106 391 106 290 c 0
 106 198 134 127 201 80 c 0
 235 57 268 45 301 45 c 0
 337 45 374 60 412 86 c 0
 482 134 515 201 515 298 c 0
 515 393 481 462 413 510 c 0
437 549 m 0
 521 493 563 412 563 300 c 0
 563 187 522 106 437 50 c 0
 391 19 346 2 300 2 c 0
 259 2 218 16 177 44 c 0
 95 99 60 183 60 290 c 0
 60 408 99 492 186 550 c 0
 229 578 269 592 311 592 c 0
 353 592 394 577 437 549 c 0
EndSplineSet
Validated: 1
EndChar

StartChar: A
Encoding: 65 65 36
Width: 484
VWidth: 718
GlyphClass: 2
Flags: HMW
HStem: -3 13G<60 102 60 60> 205 52<156 312>
LayerCount: 2
Fore
SplineSet
382 -2 m 1
 324 216 l 1
 156 215 l 1
 102 -3 l 1
 60 -3 l 1
 219 555 l 1
 267 555 l 1
 424 -2 l 1
 382 -2 l 1
241 501 m 1
 171 267 l 1
 312 267 l 1
 241 501 l 1
EndSplineSet
Validated: 1
EndChar

StartChar: B
Encoding: 66 66 37
Width: 445
VWidth: 718
GlyphClass: 2
Flags: HMW
HStem: 4 41<105 108> 268 54<288 291 288 288> 541 48<106 283> 547 42<109 109>
VStem: 60 46 336 44<116 180> 337 48<416 461 416 461>
LayerCount: 2
Fore
SplineSet
294 41 m 1xcc
 316 74 329 109 334 144 c 0
 335 150 336 155 336 160 c 0
 336 200 308 258 291 258 c 6
 288 258 l 5
 287 257 l 5
 106 256 l 5
 105 44 l 1
 294 41 l 1xcc
293 312 m 5
 295 315 l 5
 312 347 337 381 337 425 c 2
 337 431 l 1xda
 336 431 l 1
 335 434 323 467 285 507 c 1
 283 511 l 1xec
 109 517 l 1xdc
 106 312 l 5
 293 312 l 5
385 406 m 0
 385 362 348 313 327 270 c 5
 367 210 374 213 379 154 c 0
 379 148 380 146 380 143 c 0
 380 87 337 26 324 2 c 1
 108 4 l 1
 60 3 l 1
 63 557 l 1
 74 558 83 558 97 559 c 1xdc
 159 559 221 559 283 559 c 1xec
 343 531 369 489 382 427 c 0
 383 419 385 411 385 406 c 0
EndSplineSet
Validated: 1
EndChar

StartChar: C
Encoding: 67 67 38
Width: 494
VWidth: 716
GlyphClass: 2
Flags: HMW
HStem: -4 45<252 280 269 280> 542 43<263 288>
VStem: 60 53<226 313 226 321>
LayerCount: 2
Fore
SplineSet
280 41 m 2
 319 41 392 70 413 101 c 1
 422 94 434 81 434 68 c 2
 434 62 l 1
 401 29 312 -4 272 -4 c 2
 269 -4 l 2
 235 -4 201 8 165 33 c 0
 91 85 60 161 60 264 c 0
 60 377 91 463 168 517 c 4
 205 542 240 555 274 555 c 4
 327 555 397 516 432 477 c 5
 426 471 418 455 412 450 c 5
 398 462 378 481 347 492 c 5
 324 505 300 512 278 512 c 4
 249 512 220 502 192 481 c 4
 133 434 113 359 113 268 c 0
 113 184 137 117 192 73 c 0
 219 53 247 41 275 41 c 2
 280 41 l 2
EndSplineSet
Validated: 1
EndChar

StartChar: D
Encoding: 68 68 39
Width: 518
VWidth: 717
GlyphClass: 2
Flags: HMW
HStem: -5 44<158 178 158 202> 540 52<114 160 128 137>
VStem: 60 53 60 55<-4 -4> 405 52<300 348>
LayerCount: 2
Fore
SplineSet
195 509 m 4xe8
 178 509 162 510 137 510 c 6
 116 510 l 6
 112 510 111 504 111 495 c 4
 111 487 111 475 111 464 c 4
 111 369 114 159 114 96 c 2
 114 81 l 1xe8
 111 78 l 1
 115 76 l 1
 115 74 l 2xd8
 115 68 114 60 114 54 c 0
 114 50 113 46 118 44 c 0
 133 41 150 39 166 39 c 0
 189 39 212 42 227 44 c 0
 264 51 304 50 335 75 c 0
 393 121 405 181 405 272 c 4
 405 363 376 430 318 477 c 4
 290 500 225 508 195 509 c 4xe8
61 558 m 5
 87 561 115 562 141 562 c 4
 178 562 212 560 231 558 c 4
 267 554 304 545 342 517 c 4
 419 462 458 382 458 270 c 4
 457 155 421 62 368 31 c 1
 322 0 236 -5 168 -5 c 0
 149 -5 130 -4 115 -4 c 2xd8
 60 -4 l 1
 61 558 l 5
EndSplineSet
Validated: 1
EndChar

StartChar: E
Encoding: 69 69 40
Width: 394
VWidth: 720
GlyphClass: 2
Flags: HMW
HStem: 3 47<109 328 109 329 108 328> 294 47<110 333 110 334 109 333> 554 47<111 328 103 329 111 111>
VStem: 60 50
LayerCount: 2
Fore
SplineSet
60 559 m 5
 72 560 89 559 103 561 c 5
 328 561 l 5
 329 547 329 530 329 514 c 5
 111 514 l 5
 111 510 l 6
 111 442 110 373 110 305 c 6
 110 301 l 5
 333 301 l 5
 334 287 334 270 334 254 c 5
 109 254 l 5
 109 50 l 1
 328 50 l 1
 329 36 329 19 329 3 c 1
 108 3 l 1
 108 2 l 1
 61 2 l 1
 60 559 l 5
EndSplineSet
Validated: 1
EndChar

StartChar: F
Encoding: 70 70 41
Width: 394
VWidth: 720
GlyphClass: 2
Flags: HMW
HStem: 2 13G<61 108 61 61> 294 47<110 333 110 334 109 333> 554 46<111 139 96 329 111 111>
VStem: 60 50
LayerCount: 2
Fore
SplineSet
333 301 m 1
 334 287 334 270 334 254 c 1
 109 254 l 1
 109 54 l 1
 108 2 l 1
 61 2 l 1
 60 559 l 1
 71 560 82 559 96 560 c 1
 103 560 l 2
 176 560 249 561 324 561 c 2
 328 561 l 1
 329 547 329 530 329 514 c 1
 111 514 l 1
 111 510 l 2
 111 442 110 373 110 305 c 2
 110 301 l 1
 333 301 l 1
EndSplineSet
Validated: 33
EndChar

StartChar: G
Encoding: 71 71 42
Width: 502
VWidth: 715
GlyphClass: 2
Flags: HMW
HStem: -5 45<253 280 270 280> 199 44<393 442> 542 43<269 294>
VStem: 60 53<225 313 225 320> 393 49<80 199 199 199>
LayerCount: 2
Fore
SplineSet
280 40 m 2
 311 40 362 60 393 80 c 1
 393 199 l 1
 277 198 l 1
 277 243 l 1
 332 243 387 243 442 243 c 1
 442 75 l 1
 407 17 338 -8 293 -8 c 0
 285 -8 276 -7 270 -5 c 1
 236 -5 201 8 165 33 c 0
 91 85 60 161 60 264 c 0
 60 377 97 463 174 517 c 4
 211 542 246 555 280 555 c 4
 333 555 403 516 438 477 c 5
 432 467 426 441 420 433 c 5
 405 448 387 481 355 492 c 5
 332 505 305 512 283 512 c 4
 254 512 227 501 199 480 c 4
 140 433 114 358 114 267 c 0
 114 183 137 116 192 72 c 0
 219 52 247 40 275 40 c 2
 280 40 l 2
EndSplineSet
Validated: 1
EndChar

StartChar: H
Encoding: 72 72 43
Width: 483
VWidth: 719
GlyphClass: 2
Flags: HMW
HStem: -2 13G<61 61 61 107> 286 56<108 109>
VStem: 60 49 375 48<344 368>
LayerCount: 2
Fore
SplineSet
61 -2 m 1
 60 197 61 357 60 555 c 5
 106 554 l 5
 106 550 l 6
 106 484 109 379 109 314 c 6
 109 302 l 5
 375 304 l 5
 374 557 l 5
 420 555 l 5
 420 551 l 6
 420 484 423 394 423 328 c 6
 423 305 l 5
 422 212 421 53 421 2 c 2
 421 0 l 1
 376 0 l 1
 375 247 l 5
 334 245 257 245 233 245 c 6
 108 246 l 5
 107 150 108 92 107 -2 c 1
 61 -2 l 1
EndSplineSet
Validated: 33
EndChar

StartChar: I
Encoding: 73 73 44
Width: 263
VWidth: 708
GlyphClass: 2
Flags: HMW
HStem: -13 34<60 108 201 201> 525 29<69 110 69 200>
VStem: 108 49<21 21>
LayerCount: 2
Fore
SplineSet
203 21 m 1
 201 -13 l 1
 161 -12 l 1
 60 -13 l 1
 62 21 l 1
 108 21 l 1
 110 525 l 1
 69 525 l 1
 69 554 l 1
 200 554 l 1
 200 526 l 1
 156 525 l 1
 157 21 l 1
 203 21 l 1
EndSplineSet
Validated: 1
EndChar

StartChar: J
Encoding: 74 74 45
Width: 421
VWidth: 714
GlyphClass: 2
Flags: HMW
HStem: -11 45<184 211> 570 12G<312 320>
VStem: 312 47<107 107 107 582>
LayerCount: 2
Fore
SplineSet
358 107 m 1
 336 39 291 -5 201 -11 c 0
 167 -11 134 1 97 26 c 0
 69 45 60 61 60 71 c 0
 60 79 66 84 79 84 c 0
 91 84 107 79 124 66 c 0
 152 45 180 34 207 34 c 2
 211 34 l 2
 249 34 290 76 312 105 c 1
 312 562 l 5
 329 562 348 561 361 560 c 5
 358 107 l 1
EndSplineSet
Validated: 1
EndChar

StartChar: K
Encoding: 75 75 46
Width: 420
VWidth: 717
GlyphClass: 2
Flags: HMW
HStem: -2 13G<360 360> 574 12G<61 68 306 306>
VStem: 60 46<-1 236>
LayerCount: 2
Fore
SplineSet
61 556 m 1
 77 556 94 556 106 555 c 1
 104 323 l 1
 306 556 l 1
 356 557 l 1
 127 281 l 5
 360 -2 l 1
 350 -2 l 1
 334 -1 315 0 304 0 c 1
 106 236 l 1
 106 -1 l 1
 60 -1 l 1
 61 556 l 1
EndSplineSet
Validated: 1
EndChar

StartChar: L
Encoding: 76 76 47
Width: 436
VWidth: 720
GlyphClass: 2
Flags: HMW
HStem: 3 47<373 376>
VStem: 61 45<3 5>
LayerCount: 2
Fore
SplineSet
376 50 m 1
 375 33 374 16 373 3 c 1
 106 5 l 1
 106 3 l 1
 61 3 l 1
 60 559 l 5
 76 559 94 559 106 558 c 5
 106 50 l 1
 376 50 l 1
EndSplineSet
Validated: 1
EndChar

StartChar: M
Encoding: 77 77 48
Width: 595
VWidth: 711
GlyphClass: 2
Flags: HMW
HStem: -8 13G<531 531>
VStem: 60 49 65 46<-10 10> 493 38<-8 26 -8 70> 493 43
LayerCount: 2
Fore
SplineSet
535 343 m 1xc8
 534 256 532 40 531 -8 c 1
 493 -8 l 1x90
 493 26 l 2
 493 114 495 62 495 183 c 0
 495 241 494 338 493 508 c 1
 493 528 l 1
 309 134 l 1
 107 512 l 1
 108 493 l 2
 109 456 109 411 109 376 c 2
 109 322 l 2
 109 236 111 96 111 10 c 2
 111 -9 l 1
 65 -10 l 1xa0
 64 175 61 375 60 557 c 1
 73 558 88 560 106 560 c 0
 116 560 125 559 132 558 c 1
 304 222 l 1
 457 561 l 1
 534 565 l 1
 534 560 l 2
 534 501 535 414 535 355 c 2
 535 343 l 1xc8
EndSplineSet
Validated: 1
EndChar

StartChar: N
Encoding: 78 78 49
Width: 483
VWidth: 719
GlyphClass: 2
Flags: HMW
HStem: -2 13G<61 61 61 107>
VStem: 60 45 375 48
LayerCount: 2
Fore
SplineSet
61 -2 m 1
 60 197 61 362 60 560 c 1
 108 559 l 1
 109 557 l 1
 147 492 211 400 242 345 c 0
 276 284 330 184 373 112 c 2
 384 94 l 1
 382 115 l 2
 378 166 377 228 375 286 c 1
 374 562 l 1
 420 560 l 1
 420 556 l 2
 420 489 423 417 423 351 c 0
 423 349 422 349 422 345 c 0
 421 253 421 48 421 4 c 2
 421 0 l 1
 388 0 l 1
 387 3 l 1
 302 145 198 298 114 440 c 1
 105 455 l 1
 105 438 l 1
 104 387 104 370 104 334 c 2
 104 321 l 2
 104 230 107 98 107 7 c 2
 107 -2 l 1
 61 -2 l 1
EndSplineSet
Validated: 33
EndChar

StartChar: O
Encoding: 79 79 50
Width: 574
VWidth: 714
GlyphClass: 2
Flags: HMW
HStem: -10 53<269 297> 533 50<276 305 269 306>
VStem: 60 55<237 330 237 338> 466 48<242 334>
LayerCount: 2
Fore
SplineSet
284 43 m 0
 316 43 348 58 379 83 c 0
 437 130 466 176 466 269 c 4
 466 361 437 429 379 476 c 4
 350 499 321 513 291 513 c 4
 261 513 231 500 202 477 c 4
 142 428 115 358 115 261 c 4
 115 172 141 124 197 78 c 0
 226 55 255 43 284 43 c 0
60 257 m 4
 60 379 97 463 177 521 c 4
 215 549 251 563 287 563 c 4
 323 563 359 550 397 521 c 4
 474 465 514 382 514 267 c 4
 514 151 478 94 399 37 c 0
 357 6 316 -10 277 -10 c 0
 242 -10 207 3 170 31 c 0
 94 87 60 147 60 257 c 4
EndSplineSet
Validated: 1
EndChar

StartChar: P
Encoding: 80 80 51
Width: 473
VWidth: 716
GlyphClass: 2
Flags: HMW
HStem: -8 13G 220 50 553 39
VStem: 92 53 95 44 362 40
LayerCount: 2
Fore
SplineSet
228 265 m 4xe4
 251 265 293 270 315 286 c 4
 331 297 366 323 366 375 c 4
 366 427 344 465 299 491 c 4
 277 504 256 511 234 511 c 4
 212 511 156 510 106 509 c 5
 108 267 l 5
 133 265 157 264 178 264 c 4
 200 264 217 265 228 265 c 4xe4
208 222 m 6
 108 224 l 5
 108 138 108 83 108 -3 c 1
 60 -2 l 1
 64 438 l 6
 65 439 65 440 66 441 c 5
 66 555 l 5
 112 553 l 5
 123 554 156 556 194 556 c 4
 244 556 303 552 334 532 c 4
 392 494 413 439 413 370 c 4
 413 300 387 280 325 246 c 4
 293 229 244 222 212 222 c 4
 210 222 209 222 208 222 c 6
EndSplineSet
Validated: 1
EndChar

StartChar: Q
Encoding: 81 81 52
Width: 595
VWidth: 708
GlyphClass: 2
Flags: HMW
HStem: -17 53<267 296> 508 50<275 304 268 305>
VStem: 60 55<215 307 215 316> 466 48<235 312>
LayerCount: 2
Fore
SplineSet
514 265 m 0
 514 187 494 135 459 89 c 1
 535 18 l 1
 502 -18 l 1
 426 53 l 1
 416 45 407 39 396 31 c 0
 354 0 316 -17 276 -17 c 0
 241 -17 205 -3 168 25 c 0
 91 80 60 147 60 256 c 0
 60 377 97 459 177 517 c 0
 215 545 250 558 286 558 c 0
 322 558 359 545 397 516 c 0
 474 460 514 379 514 265 c 0
423 123 m 1
 450 160 466 202 466 266 c 0
 466 357 437 425 379 472 c 0
 350 495 320 508 290 508 c 0
 260 508 231 496 202 473 c 0
 142 425 114 354 114 259 c 0
 114 171 140 117 196 71 c 0
 225 48 253 37 282 37 c 0
 314 37 347 51 378 76 c 1
 390 87 l 1
 343 131 l 1
 376 167 l 1
 423 123 l 1
EndSplineSet
Validated: 1
EndChar

StartChar: R
Encoding: 82 82 53
Width: 473
VWidth: 716
GlyphClass: 2
Flags: HMW
HStem: 570 12G
VStem: 64 161
LayerCount: 2
Fore
SplineSet
228 272 m 0
 251 272 293 277 315 293 c 0
 331 304 366 330 366 382 c 0
 366 434 344 472 299 498 c 0
 277 511 256 518 234 518 c 0
 212 518 156 517 106 516 c 1
 108 274 l 1
 133 272 157 271 178 271 c 0
 200 271 217 272 228 272 c 0
146 230 m 1
 108 231 l 1
 108 145 108 83 108 -3 c 1
 60 -2 l 1
 64 445 l 2
 65 446 65 447 66 448 c 1
 66 562 l 1
 112 560 l 1
 123 561 156 563 194 563 c 0
 244 563 303 559 334 539 c 0
 392 501 413 446 413 377 c 0
 413 307 387 287 325 253 c 0
 293 236 244 229 212 229 c 2
 203 229 l 1
 410 -3 l 1
 356 -3 l 1
 146 230 l 1
EndSplineSet
Validated: 1
EndChar

StartChar: S
Encoding: 83 83 54
Width: 530
VWidth: 715
GlyphClass: 2
Flags: HMW
HStem: -10 47<260 302 262 302> 248 49<234 320 287 308> 537 51<254 290 246 298>
VStem: 60 38<111 147> 62 50<405 407 405 450> 419 50<134 158>
LayerCount: 2
Fore
SplineSet
77 313 m 5xf4
 67 345 62 372 62 396 c 4
 62 464 97 502 133 525 c 4
 179 553 224 568 268 568 c 4
 312 568 355 554 402 525 c 4
 424 512 429 503 445 483 c 4
 448 479 449 478 449 474 c 4
 449 462 443 433 426 433 c 4
 422 433 421 433 419 434 c 5
 419 435 l 5
 390 497 325 517 272 517 c 4
 237 517 202 505 168 482 c 4
 131 456 113 426 113 387 c 6
 113 385 l 5xec
 117 371 110 351 138 324 c 5
 188 284 242 279 287 276 c 5
 320 276 l 6
 389 276 469 224 469 184 c 0
 470 178 470 172 470 166 c 0
 470 99 440 34 395 14 c 1
 361 -6 335 -10 306 -10 c 2
 262 -10 l 2
 257 -10 245 -8 239 -8 c 0
 192 -8 112 33 78 74 c 0
 77 75 75 76 74 77 c 0
 69 84 60 107 60 116 c 0
 60 139 83 148 98 150 c 1
 99 147 l 1
 103 140 100 117 105 111 c 1
 107 106 l 1
 147 56 241 38 300 38 c 0
 305 38 311 37 316 38 c 0
 332 38 346 42 369 58 c 0
 370 59 370 58 371 59 c 0
 402 75 419 115 419 154 c 0
 419 162 419 170 417 178 c 0
 417 204 342 228 308 228 c 6
 277 228 l 6
 190 228 151 253 77 313 c 5xf4
EndSplineSet
Validated: 1
EndChar

StartChar: T
Encoding: 84 84 55
Width: 546
VWidth: 706
GlyphClass: 2
Flags: HMW
HStem: -16 13G<247 296 247 247> 501 49<60 250 60 60>
VStem: 247 49<-16 -16>
LayerCount: 2
Fore
SplineSet
486 555 m 1
 486 539 486 518 485 506 c 1
 298 507 l 1
 296 -1 l 5
 247 -1 l 5
 250 507 l 1
 60 507 l 1
 60 556 l 1
 486 555 l 1
EndSplineSet
Validated: 1
EndChar

StartChar: U
Encoding: 85 85 56
Width: 509
VWidth: 704
GlyphClass: 2
Flags: HMW
HStem: -29 58<244 321>
VStem: 62 50 395 44<519 552> 396 53<170 267 173 267>
LayerCount: 2
Fore
SplineSet
154 25 m 4xd0
 92 74 69 148 63 245 c 6
 62 262 l 5
 61 364 61 455 60 556 c 1
 111 559 l 1
 112 492 111 294 112 256 c 4
 115 177 139 122 185 82 c 4
 208 62 233 49 256 49 c 4
 279 49 319 50 344 74 c 4
 375 103 386 147 396 190 c 5
 396 193 l 5xd0
 398 224 398 317 398 379 c 4
 398 428 397 488 395 525 c 1
 392 557 l 1
 439 558 l 1xe0
 441 448 449 347 449 229 c 4
 449 204 448 178 447 153 c 5
 424 55 361 -9 281 -9 c 4
 274 -9 185 -1 154 25 c 4xd0
EndSplineSet
Validated: 33
EndChar

StartChar: V
Encoding: 86 86 57
Width: 500
VWidth: 711
GlyphClass: 2
Flags: W
LayerCount: 2
Fore
SplineSet
229 -5 m 1
 60 562 l 1
 106 562 l 1
 254 85 l 1
 395 563 l 1
 440 563 l 1
 279 -5 l 1
 229 -5 l 1
EndSplineSet
Validated: 1
EndChar

StartChar: W
Encoding: 87 87 58
Width: 649
VWidth: 716
GlyphClass: 2
Flags: HMW
HStem: -2 13G<193 229 193 193 440 440 440 476> 573 12G<308 340 340 340>
VStem: 60 32<569 569> 557 32<570 570>
LayerCount: 2
Fore
SplineSet
325 472 m 5
 229 -2 l 1
 193 -2 l 1
 60 559 l 5
 92 559 l 5
 211 101 l 1
 308 555 l 5
 340 555 l 5
 455 101 l 1
 557 560 l 5
 589 560 l 5
 476 -2 l 1
 440 -2 l 1
 325 472 l 5
EndSplineSet
Validated: 1
EndChar

StartChar: X
Encoding: 88 88 59
Width: 487
VWidth: 710
GlyphClass: 2
Flags: HMW
HStem: -10 13G<63 121 63 63 374 427 374 374>
LayerCount: 2
Fore
SplineSet
427 -10 m 1
 374 -10 l 1
 246 246 l 1
 121 -10 l 1
 63 -10 l 1
 219 279 l 1
 60 561 l 1
 113 561 l 1
 243 335 l 1
 366 563 l 1
 424 564 l 1
 273 275 l 1
 427 -10 l 1
EndSplineSet
Validated: 1
EndChar

StartChar: Y
Encoding: 89 89 60
Width: 483
VWidth: 717
GlyphClass: 2
Flags: HMW
HStem: -2 13G<215 264 215 215> 573 12G<60 113 113 113>
VStem: 215 49<-2 -2>
LayerCount: 2
Fore
SplineSet
263 271 m 5
 264 -2 l 1
 215 -2 l 1
 214 270 l 5
 60 555 l 5
 113 555 l 5
 238 335 l 5
 365 557 l 5
 423 558 l 5
 263 271 l 5
EndSplineSet
Validated: 1
EndChar

StartChar: Z
Encoding: 90 90 61
Width: 509
VWidth: 717
GlyphClass: 2
Flags: HMW
HStem: -1 52<142 159 142 448 104 159> 538 50 542 47<63 63>
LayerCount: 2
Fore
SplineSet
60 -1 m 1xc0
 351 508 l 5
 334 508 l 5xc0
 246 509 154 511 63 512 c 5
 63 559 l 5xa0
 438 557 l 5
 340 388 245 216 142 51 c 1
 159 51 l 1
 253 50 351 50 449 49 c 1
 448 -1 l 1
 319 -1 189 -1 60 -1 c 1xc0
EndSplineSet
Validated: 1
EndChar

StartChar: bracketleft
Encoding: 91 91 62
Width: 214
VWidth: 713
GlyphClass: 2
Flags: HMW
HStem: -5 34<153 153> 542 29<152 152>
VStem: 60 49<-4 29>
LayerCount: 2
Fore
SplineSet
60 -4 m 1
 62 570 l 1
 152 571 l 1
 152 542 l 1
 108 541 l 1
 109 29 l 1
 154 29 l 1
 153 -5 l 1
 60 -4 l 1
EndSplineSet
Validated: 1
EndChar

StartChar: backslash
Encoding: 92 92 63
Width: 281
VWidth: 716
GlyphClass: 2
Flags: HMW
HStem: 569 12G<60 101 101 101>
VStem: 60 161
LayerCount: 2
Fore
SplineSet
60 581 m 1
 101 581 l 1
 221 0 l 1
 182 -1 l 1
 60 581 l 1
EndSplineSet
Validated: 1
EndChar

StartChar: bracketright
Encoding: 93 93 64
Width: 215
VWidth: 713
GlyphClass: 2
Flags: HMW
HStem: -5 29<63 63> 537 34<61 61 61 106 60 61>
VStem: 107 46<-4 25>
LayerCount: 2
Fore
SplineSet
155 570 m 1
 153 -4 l 1
 63 -5 l 1
 63 24 l 1
 107 25 l 1
 106 537 l 1
 60 537 l 1
 61 571 l 1
 155 570 l 1
EndSplineSet
Validated: 1
EndChar

StartChar: asciicircum
Encoding: 94 94 65
Width: 394
VWidth: 856
GlyphClass: 2
Flags: HMW
HStem: 545 190<163 334>
LayerCount: 2
Fore
SplineSet
163 736 m 1
 229 736 l 1
 334 545 l 1
 280 547 l 1
 203 695 l 1
 192 696 l 1
 112 548 l 1
 60 547 l 1
 163 736 l 1
EndSplineSet
Validated: 1
EndChar

StartChar: underscore
Encoding: 95 95 66
Width: 422
VWidth: 535
GlyphClass: 2
Flags: HMW
HStem: -187 52<60 362 60 362>
LayerCount: 2
Fore
SplineSet
60 -135 m 1
 362 -135 l 1
 362 -187 l 1
 60 -187 l 1
 60 -135 l 1
EndSplineSet
Validated: 1
EndChar

StartChar: grave
Encoding: 96 96 67
Width: 239
VWidth: 876
GlyphClass: 2
Flags: HMW
HStem: 634 116<60 179>
VStem: 60 118<634 750>
LayerCount: 2
Fore
SplineSet
60 750 m 1
 122 750 l 1
 179 634 l 1
 153 636 l 1
 60 750 l 1
EndSplineSet
Validated: 1
EndChar

StartChar: a
Encoding: 97 97 68
Width: 421
VWidth: 738
GlyphClass: 2
Flags: HMW
HStem: 10 41<199 217 199 223> 340 43<203 222> 367 12G<320 320>
VStem: 55 42<167 222 167 231> 320 37<8 64 64 64 334 378 7 379 7 379>
LayerCount: 2
Fore
SplineSet
217 361 m 4xd8
 252 361 297 335 320 312 c 5
 320 357 l 5
 356 356 l 5
 356 -13 l 1
 320 -12 l 1
 320 44 l 1xb8
 295 19 249 -10 210 -10 c 0
 185 -10 159 -1 133 17 c 0
 80 52 55 102 55 173 c 4
 55 244 80 296 133 331 c 4
 161 350 189 361 217 361 c 4xd8
213 318 m 4
 194 318 174 309 154 294 c 4
 116 266 97 227 97 172 c 4
 97 117 115 80 153 52 c 0
 171 39 190 32 208 32 c 0
 226 32 244 38 262 51 c 0
 302 79 319 119 319 177 c 4
 319 230 304 270 266 297 c 4
 247 311 230 318 213 318 c 4
EndSplineSet
Validated: 1
EndChar

StartChar: b
Encoding: 98 98 69
Width: 424
VWidth: 710
GlyphClass: 2
Flags: HMW
HStem: -21 41<202 220 202 222> 309 43<197 216> 564 12G<60 100 100 100>
VStem: 60 40<-22 33> 322 42<136 191>
LayerCount: 2
Fore
SplineSet
99 314 m 1
 123 338 166 363 202 363 c 0
 230 363 258 352 286 333 c 0
 339 298 364 246 364 175 c 0
 364 104 339 52 286 17 c 0
 260 -1 234 -10 209 -10 c 0
 170 -10 123 20 99 44 c 1
 99 -11 l 1
 60 -11 l 1
 60 588 l 1
 100 588 l 1
 99 314 l 1
100 179 m 0
 100 121 117 80 157 52 c 0
 175 39 193 32 211 32 c 0
 229 32 248 39 266 52 c 0
 304 80 322 120 322 175 c 0
 322 230 303 268 265 296 c 0
 245 311 225 320 206 320 c 0
 189 320 172 313 153 299 c 0
 115 272 100 232 100 179 c 0
EndSplineSet
Validated: 1
EndChar

StartChar: c
Encoding: 99 99 70
Width: 395
VWidth: 737
GlyphClass: 2
Flags: HMW
HStem: 6 43<203 222> 337 41<209 225>
VStem: 60 46<164 219 164 226> 250 85<283 308>
LayerCount: 2
Fore
SplineSet
275 74 m 1
 285 73 296 58 296 45 c 0
 296 41 294 38 292 36 c 0
 263 17 236 6 208 6 c 0
 183 6 159 16 134 33 c 0
 82 68 60 100 60 168 c 4
 60 243 84 295 139 332 c 4
 165 349 190 359 215 359 c 4
 255 359 307 330 329 301 c 4
 333 297 335 291 335 285 c 4
 335 281 334 277 334 272 c 4
 334 255 332 246 318 238 c 4
 310 234 301 230 293 230 c 4
 286 230 279 233 271 237 c 4
 255 245 250 255 250 271 c 4
 250 285 255 295 264 303 c 5
 248 312 233 317 218 317 c 4
 200 317 182 311 164 297 c 4
 124 269 107 228 107 170 c 4
 107 117 122 96 159 69 c 0
 177 56 195 49 212 49 c 0
 233 49 252 60 275 74 c 1
EndSplineSet
Validated: 1
EndChar

StartChar: d
Encoding: 100 100 71
Width: 425
VWidth: 712
GlyphClass: 2
Flags: HMW
HStem: -16 41<204 222 204 228> 314 43<209 227> 566 12G<365 365>
VStem: 60 42<141 196 141 205> 326 39<-17 38 38 38 308 578 578 578>
LayerCount: 2
Fore
SplineSet
223 357 m 0
 259 357 302 332 326 308 c 1
 326 578 l 1
 365 578 l 1
 365 -17 l 1
 326 -17 l 1
 326 38 l 1
 301 13 255 -16 216 -16 c 0
 191 -16 164 -7 138 11 c 0
 85 46 60 98 60 169 c 0
 60 240 86 292 139 327 c 0
 167 346 195 357 223 357 c 0
219 314 m 0
 200 314 179 305 159 290 c 0
 121 262 102 224 102 169 c 0
 102 114 121 74 159 46 c 0
 177 33 195 26 213 26 c 0
 231 26 250 33 268 46 c 0
 308 74 325 115 325 173 c 0
 325 226 310 266 272 293 c 0
 253 307 236 314 219 314 c 0
EndSplineSet
Validated: 1
EndChar

StartChar: e
Encoding: 101 101 72
Width: 410
VWidth: 736
GlyphClass: 2
Flags: HMW
HStem: 5 43<213 232 213 232> 171 49<98 317 50 97> 337 41<198 216>
VStem: 51 46<220 220>
LayerCount: 2
Fore
SplineSet
360 179 m 0
 360 169 361 161 360 153 c 1
 97 153 l 1
 101 109 117 75 149 51 c 0
 168 37 204 30 222 30 c 0
 241 30 262 39 282 53 c 0
 284 54 288 55 290 55 c 0
 300 55 312 44 312 32 c 0
 312 27 309 21 302 17 c 0
 273 -2 246 -13 218 -13 c 0
 193 -13 148 -3 123 14 c 0
 76 46 54 92 50 151 c 1
 50 168 50 185 50 202 c 1
 51 202 l 1
 58 260 82 303 128 334 c 0
 154 351 179 361 205 361 c 4
 231 361 256 351 282 333 c 0
 328 302 353 260 359 204 c 1
 359 200 l 1
 360 196 360 188 360 179 c 0
98 202 m 1
 317 202 l 1
 311 245 294 275 262 298 c 0
 243 312 225 319 207 319 c 0
 189 319 172 313 153 299 c 0
 121 276 103 245 98 202 c 1
EndSplineSet
Validated: 1
EndChar

StartChar: f
Encoding: 102 102 73
Width: 364
VWidth: 708
GlyphClass: 2
Flags: HMW
HStem: -12 13G<199 199> 269 33<145 148>
VStem: 148 43<302 302> 152 46<-10 -10>
LayerCount: 2
Fore
SplineSet
199 -5 m 5xd0
 152 -3 l 5xd0
 145 329 l 1
 50 329 l 1
 53 362 l 1
 148 362 l 1
 151 466 212 539 269 593 c 1
 273 601 287 612 292 614 c 1
 305 612 313 611 314 604 c 0
 315 597 313 598 313 596 c 0
 312 586 294 573 294 573 c 1
 223 501 190 435 190 380 c 0
 190 376 191 373 191 369 c 0
 191 367 190 364 190 362 c 1xe0
 308 359 l 1
 305 326 l 1
 188 329 l 1
 189 300 199 26 199 4 c 6
 199 -5 l 5xd0
EndSplineSet
Validated: 1
EndChar

StartChar: g
Encoding: 103 103 74
Width: 406
VWidth: 658
GlyphClass: 2
Flags: HMW
HStem: -371 38<223 244 223 244> -113 37<229 249> -37 44<191 207 191 208> 259 41<195 212>
VStem: 60 45<-248 -207> 112 41<-73 -69 -69 -60 -73 -54> 300 42<109 155 100 157> 361 51<-242 -200>
LayerCount: 2
Fore
SplineSet
136 290 m 0
 96 266 78 232 78 183 c 0
 78 138 94 102 131 80 c 0
 150 69 168 63 187 63 c 0
 207 63 227 70 248 83 c 0
 285 106 305 137 305 185 c 0
 305 232 286 266 249 289 c 0
 230 300 212 308 193 308 c 0
 174 308 155 302 136 290 c 0
218 -41 m 0
 147 -41 84 -97 84 -156 c 0
 84 -196 111 -224 152 -245 c 0
 172 -255 192 -261 212 -261 c 0
 234 -261 256 -254 279 -243 c 0
 321 -222 340 -192 340 -149 c 0
 340 -107 320 -77 279 -56 c 0
 259 -46 238 -41 218 -41 c 0
133 29 m 1
 135 25 137 21 137 17 c 0
 137 11 133 21 133 12 c 2
 133 3 l 2
 133 -5 133 -13 129 -24 c 1
 159 -11 187 -3 216 -3 c 0
 245 -3 274 -11 304 -25 c 0
 363 -53 391 -94 391 -150 c 0
 391 -207 362 -247 303 -275 c 0
 271 -290 239 -299 207 -299 c 0
 178 -299 150 -292 121 -278 c 0
 63 -250 39 -209 39 -155 c 0
 39 -115 52 -83 78 -57 c 1
 79 -57 l 1
 91 -31 91 -19 91 3 c 0
 91 32 82 38 71 65 c 0
 71 66 72 65 71 66 c 0
 39 96 27 134 27 180 c 0
 27 246 53 292 109 324 c 0
 136 340 162 347 189 347 c 0
 217 347 246 338 274 322 c 1
 275 324 310 393 318 409 c 1
 377 409 l 1
 310 295 l 1
 339 266 354 231 354 185 c 0
 354 123 326 78 271 47 c 0
 239 30 212 21 182 21 c 0
 166 21 148 24 133 29 c 1
EndSplineSet
Validated: 1
EndChar

StartChar: h
Encoding: 104 104 75
Width: 427
VWidth: 717
GlyphClass: 2
Flags: HMW
HStem: -4 13G<61 102 61 61 365 365> 317 42<205 223>
VStem: 61 40<-4 0 0 24 -4 63> 325 42
LayerCount: 2
Fore
SplineSet
82 591 m 2
 101 591 l 1
 102 311 l 1
 113 316 l 1
 138 338 176 359 211 359 c 0
 237 359 263 350 289 332 c 0
 341 297 365 249 367 180 c 1
 366 119 366 57 365 -4 c 1
 322 -5 l 1
 323 29 325 146 325 162 c 2
 325 183 l 1
 323 234 306 270 269 296 c 0
 250 309 233 317 214 317 c 0
 196 317 178 310 159 297 c 0
 135 280 112 256 104 228 c 1
 102 199 100 127 100 74 c 0
 100 52 101 34 102 24 c 1
 102 -4 l 1
 61 -4 l 1
 61 0 l 2
 61 124 60 463 60 587 c 2
 60 592 l 1
 67 591 75 591 82 591 c 2
EndSplineSet
Validated: 1
EndChar

StartChar: i
Encoding: 105 105 76
Width: 196
VWidth: 694
GlyphClass: 2
Flags: HMW
HStem: -25 13G<75 118 75 75> 325 12G<75 75> 417 79<87 108>
VStem: 60 76<446 466> 75 43<-25 337>
LayerCount: 2
Fore
SplineSet
60 475 m 4xf0
 60 496 76 516 99 516 c 4
 121 516 136 497 136 477 c 4
 136 456 119 437 96 437 c 4
 74 437 60 455 60 475 c 4xf0
120 361 m 1
 118 -1 l 1
 75 -1 l 1
 75 361 l 1xe8
 120 361 l 1
EndSplineSet
Validated: 1
EndChar

StartChar: j
Encoding: 106 106 77
Width: 202
VWidth: 643
GlyphClass: 2
Flags: HMW
HStem: 274 12G<204 204> 366 79<216 237>
VStem: 190 76<396 415> 204 45<273 285>
LayerCount: 2
Fore
SplineSet
70 477 m 0xe0
 70 498 84 517 107 517 c 0
 129 517 146 498 146 478 c 0
 146 457 128 438 105 438 c 0
 83 438 70 457 70 477 c 0xe0
30 -273 m 5
 59 -230 80 -185 84 -135 c 4
 85 -94 86 9 86 50 c 0
 86 124 84 271 84 345 c 2
 84 358 l 1
 129 357 l 1
 129 160 l 2
 129 104 129 -87 128 -135 c 4
 127 -190 84 -247 49 -287 c 5
 30 -273 l 5
EndSplineSet
Validated: 1
EndChar

StartChar: k
Encoding: 107 107 78
Width: 375
VWidth: 716
GlyphClass: 2
Flags: HMW
HStem: -2 13G<62 102 62 62> 574 12G<60 100 100 100>
VStem: 62 38
LayerCount: 2
Fore
SplineSet
100 125 m 1
 102 -2 l 1
 62 -2 l 1
 60 592 l 1
 100 592 l 1
 100 212 l 1
 217 360 l 5
 279 363 l 1
 145 206 l 1
 336 0 l 1
 283 -2 l 1
 123 173 l 1
 96 165 105 142 100 125 c 1
EndSplineSet
Validated: 1
EndChar

StartChar: l
Encoding: 108 108 79
Width: 167
VWidth: 766
GlyphClass: 2
Flags: HMW
HStem: 31 13G<60 60>
VStem: 62 46<539 539>
LayerCount: 2
Fore
SplineSet
107 502 m 1
 107 452 l 2
 107 289 105 183 105 3 c 2
 105 -1 l 1
 60 -1 l 1
 62 502 l 5
 107 502 l 1
EndSplineSet
Validated: 1
EndChar

StartChar: m
Encoding: 109 109 80
Width: 722
VWidth: 725
GlyphClass: 2
Flags: HMW
HStem: 308 48<203 230> 314 39<491 510>
VStem: 60 46<17 47 17 354> 60 55<314 354 314 354 314 354> 333 50<17 17 17 24 17 37> 607 51<19 27 19 27 19 27> 614 48
LayerCount: 2
Fore
SplineSet
114 314 m 1x6a
 140 336 183 356 218 356 c 0xaa
 246 356 274 347 302 329 c 0
 315 321 325 311 336 302 c 1
 342 299 349 295 357 295 c 0
 381 295 398 317 414 327 c 0
 443 344 470 353 498 353 c 0
 526 353 553 345 582 328 c 0
 629 300 659 256 662 189 c 1x6a
 660 136 659 61 658 7 c 1
 658 -1 l 1
 607 -1 l 1
 607 7 l 1x4c
 608 44 613 169 614 191 c 0
 612 238 595 271 558 295 c 0
 539 307 520 314 501 314 c 0x4a
 451 314 400 271 387 234 c 0
 386 226 386 215 385 202 c 0
 385 201 386 199 386 198 c 2
 386 195 l 1
 385 148 385 99 384 51 c 1
 384 -1 l 1
 333 -1 l 1
 333 4 l 1
 333 4 334 124 335 156 c 0
 334 176 334 194 333 213 c 1
 325 249 306 271 278 289 c 0
 259 301 239 308 220 308 c 0x8a
 172 308 121 267 108 232 c 1
 106 207 105 144 105 98 c 0
 105 76 105 58 106 47 c 1
 106 -1 l 5
 60 -1 l 5
 60 354 l 1
 114 354 l 1
 114 314 l 1x6a
EndSplineSet
Validated: 1
EndChar

StartChar: n
Encoding: 110 110 81
Width: 437
VWidth: 725
GlyphClass: 2
Flags: HMW
HStem: 5 13G<60 106 60 60 375 375> 320 48<209 228>
VStem: 60 46<5 35 5 366> 60 55<326 366 326 366 326 366> 329 48<191 191>
LayerCount: 2
Fore
SplineSet
327 -1 m 5xd8
 327 27 329 147 329 163 c 2
 329 183 l 1
 327 232 311 267 274 292 c 0
 255 305 237 312 218 312 c 0
 199 312 181 305 162 292 c 0
 137 275 116 254 108 228 c 1
 106 200 105 138 105 86 c 0
 105 64 105 46 106 35 c 1
 106 1 l 5
 60 1 l 5xe8
 60 358 l 1
 114 358 l 1
 114 318 l 1
 121 323 127 328 134 333 c 0
 162 350 189 360 216 360 c 0
 243 360 270 351 298 333 c 0
 350 299 375 250 377 183 c 1
 376 121 376 62 375 1 c 5
 327 -1 l 5xd8
EndSplineSet
Validated: 1
EndChar

StartChar: o
Encoding: 111 111 82
Width: 404
VWidth: 723
GlyphClass: 2
Flags: HMW
HStem: -8 50<190 209 190 210> 317 48<195 214>
VStem: 40 53<151 204 151 211> 315 49<154 207>
LayerCount: 2
Fore
SplineSet
260 64 m 0
 298 90 315 123 315 176 c 4
 315 228 298 266 260 292 c 4
 241 305 223 312 204 312 c 4
 185 312 168 306 149 293 c 4
 109 266 93 226 93 171 c 4
 93 120 107 87 144 61 c 0
 163 48 181 42 199 42 c 0
 219 42 240 50 260 64 c 0
120 333 m 4
 148 350 175 360 202 360 c 4
 229 360 256 351 284 333 c 4
 338 298 364 246 364 175 c 4
 364 104 339 57 284 22 c 0
 254 3 225 -8 195 -8 c 0
 169 -8 141 2 114 19 c 0
 61 54 40 101 40 169 c 4
 40 243 64 296 120 333 c 4
EndSplineSet
Validated: 1
EndChar

StartChar: p
Encoding: 112 112 83
Width: 434
VWidth: 730
GlyphClass: 2
Flags: HMW
HStem: -280 13G<60 108 60 60> 0 44<206 225 206 225> 330 42<211 230>
VStem: 60 49<-280 48 318 374> 332 43<160 215>
LayerCount: 2
Fore
SplineSet
211 0 m 0
 175 0 132 24 108 48 c 1
 108 -285 l 5
 60 -285 l 5
 60 364 l 1
 108 364 l 1
 108 308 l 1
 134 334 176 362 218 362 c 0
 244 362 270 353 296 335 c 0
 349 300 374 248 374 177 c 0
 374 106 348 65 295 30 c 0
 266 11 239 0 211 0 c 0
275 66 m 0
 313 94 332 123 332 178 c 0
 332 233 314 271 276 299 c 0
 257 313 240 320 221 320 c 0
 202 320 184 313 165 300 c 0
 125 272 109 232 109 174 c 0
 109 122 124 90 161 63 c 0
 179 50 197 43 215 43 c 0
 235 43 255 52 275 66 c 0
EndSplineSet
Validated: 1
EndChar

StartChar: q
Encoding: 113 113 84
Width: 428
VWidth: 729
GlyphClass: 2
Flags: HMW
HStem: -283 13G<326 326> -3 44<210 228 210 236> 327 42<205 223>
VStem: 60 43<158 212 158 220> 326 41<-282 45 45 45 315 371 371 371>
LayerCount: 2
Fore
SplineSet
326 45 m 1
 303 22 260 -3 224 -3 c 0
 196 -3 169 8 140 27 c 0
 87 62 60 104 60 175 c 4
 60 246 86 297 139 332 c 4
 165 350 190 359 216 359 c 4
 242 359 267 350 293 333 c 4
 306 325 316 315 326 305 c 5
 326 361 l 5
 368 362 l 5
 368 -282 l 1
 326 -283 l 1
 326 45 l 1
269 297 m 4
 250 311 233 317 214 317 c 4
 195 317 178 309 159 296 c 4
 121 268 103 230 103 175 c 4
 103 120 121 91 159 63 c 0
 179 49 199 41 219 41 c 0
 237 41 254 47 273 60 c 0
 310 87 326 119 326 171 c 4
 326 229 309 269 269 297 c 4
EndSplineSet
Validated: 1
EndChar

StartChar: r
Encoding: 114 114 85
Width: 407
VWidth: 726
GlyphClass: 2
Flags: HMW
HStem: 5 13G<60 101 60 60> 326 42<204 222>
VStem: 60 40<5 33 5 366> 60 49<322 366 322 366 322 366> 274 73<212 223 212 230>
LayerCount: 2
Fore
SplineSet
109 312 m 5xd8
 132 335 175 358 210 358 c 4
 236 358 262 349 288 331 c 4
 316 314 340 289 344 228 c 4
 346 228 347 214 347 212 c 4
 347 192 331 174 309 174 c 4
 286 174 274 192 274 211 c 4
 274 229 285 244 302 249 c 5
 290 275 298 275 268 296 c 4
 249 309 231 316 213 316 c 4
 195 316 176 309 158 296 c 4
 134 279 112 255 104 227 c 5
 102 198 100 116 100 63 c 0
 100 41 100 43 101 33 c 1
 101 -5 l 1
 60 -5 l 1
 60 356 l 5xe8
 109 356 l 5
 109 312 l 5xd8
344 232 m 1028
EndSplineSet
Validated: 1
EndChar

StartChar: s
Encoding: 115 115 86
Width: 400
VWidth: 724
GlyphClass: 2
Flags: HMW
HStem: -11 43<231 238> -11 47<179 198 179 199> 332 43<192 216 185 220>
VStem: 60 43<258 259 258 268> 295 45<99 116>
LayerCount: 2
Fore
SplineSet
234 31 m 0xb8
 271 31 294 55 294 90 c 0
 294 102 270 126 258 130 c 0
 180 156 78 136 60 232 c 0
 59.0623563973 237.090065272 58.6091564516 242.233957617 58.6091564516 247.371592975 c 0
 58.6091564516 280.589093192 77.5542689276 313.545032636 107 330 c 0
 139 349 170 358 201 358 c 0
 232 358 262 350 294 331 c 0
 308 323 306 326 316 313 c 0
 326 300 328 291 328 284 c 0
 328 273 317 270 308 270 c 0
 303 270 299 271 298 272 c 0
 276 294 237 315 203 315 c 0
 181 315 160 308 137 294 c 0
 112 279 103 264 103 242 c 2
 103 241 l 1
 106 230 110 223 124 206 c 0
 149 177 244 183 264 179 c 0
 316 168 338 125 338 95 c 0
 338 55 323 23 291 5 c 0
 266 -9 248 -11 228 -11 c 2
 198 -11 l 2
 194 -11 186 -9 183 -9 c 0
 149 -9 94 16 71 44 c 1
 71 45 l 1
 66 48 65 55 65 60 c 2
 65 64 l 2
 65 77 79 86 94 86 c 0
 98 86 100 86 102 84 c 0
 119 62 166 36 192 36 c 0x78
 197 36 212 32 214 32 c 0
 222 32 229 31 234 31 c 0xb8
EndSplineSet
Validated: 524289
EndChar

StartChar: t
Encoding: 116 116 87
Width: 369
VWidth: 744
GlyphClass: 2
Flags: HMW
HStem: 4 46<196 223> 319 45<27 130>
VStem: 120 44<139 144 144 150 129 153> 124 44<210 214> 128 47<304 309>
LayerCount: 2
Fore
SplineSet
309 56 m 1xe0
 303 48 267 0 224 -4 c 0
 219 -5 212 -5 207 -5 c 0
 182 -5 159 1 147 20 c 0
 126 51 123 89 119 130 c 1
 119 135 l 2xe0
 119 154 124 201 124 214 c 0xd0
 125 254 128 283 128 301 c 0
 128 308 127 313 126 315 c 1
 40 315 l 1
 40 358 l 1
 130 360 l 1
 130 454 l 1
 174 453 l 1
 174 361 l 1
 276 360 l 1
 276 318 l 1
 174 316 l 1
 175 314 175 312 175 308 c 0xc8
 175 293 172 264 168 215 c 0xd0
 168 204 163 148 163 134 c 0
 163 106 166 77 177 57 c 0
 184 45 197 41 213 41 c 2
 222 41 l 1
 253 43 285 84 296 99 c 2
 303 109 l 1
 309 56 l 1xe0
EndSplineSet
Validated: 1
EndChar

StartChar: u
Encoding: 117 117 88
Width: 442
VWidth: 717
GlyphClass: 2
Flags: HMW
HStem: -16 48<212 230 212 242>
VStem: 61 48 327 55<-13 -12> 333 43
LayerCount: 2
Fore
SplineSet
376 361 m 1xd0
 378 242 380 109 382 -12 c 1
 327 -13 l 1xe0
 327 28 l 1
 299 5 260 -16 223 -16 c 0
 197 -16 170 -7 143 10 c 0
 90 43 65 90 61 155 c 1
 61 215 60 298 60 358 c 5
 109 360 l 5
 109 157 l 1
 111 109 129 75 166 51 c 0
 185 38 204 32 221 32 c 0
 270 32 319 81 331 119 c 1
 332 139 333 177 333 215 c 0
 333 246 332 290 330 313 c 0
 330 323 330 351 330 361 c 1
 376 361 l 1xd0
EndSplineSet
Validated: 1
EndChar

StartChar: v
Encoding: 118 118 89
Width: 505
VWidth: 728
GlyphClass: 2
Flags: HMW
HStem: 358 12G<60 108 108 108>
LayerCount: 2
Fore
SplineSet
445 357 m 5
 284 -3 l 5
 231 -3 l 5
 60 356 l 5
 108 356 l 5
 257 48 l 5
 397 357 l 5
 445 357 l 5
EndSplineSet
Validated: 1
EndChar

StartChar: w
Encoding: 119 119 90
Width: 671
VWidth: 727
GlyphClass: 2
Flags: HMW
HStem: 8 13G<191 234 191 191 444 488 444 444> 357 13G
LayerCount: 2
Fore
SplineSet
444 8 m 1
 336 300 l 5
 234 8 l 1
 191 8 l 1
 60 360 l 5
 102 360 l 5
 212 70 l 1
 316 360 l 5
 319 360 l 6
 329 360 341 361 351 361 c 6
 358 361 l 5
 356 356 l 5
 465 69 l 1
 569 360 l 5
 611 360 l 5
 488 8 l 1
 444 8 l 1
EndSplineSet
Validated: 1
EndChar

StartChar: x
Encoding: 120 120 91
Width: 461
VWidth: 725
GlyphClass: 2
Flags: HMW
HStem: 4 13G<60 120 60 60 341 397 341 341>
LayerCount: 2
Fore
SplineSet
397 4 m 1
 341 4 l 1
 231 147 l 1
 120 4 l 1
 60 4 l 1
 201 184 l 1
 65 361 l 1
 120 361 l 1
 229 219 l 1
 341 362 l 1
 401 363 l 1
 259 182 l 1
 397 4 l 1
EndSplineSet
Validated: 1
EndChar

StartChar: y
Encoding: 121 121 92
Width: 479
VWidth: 649
GlyphClass: 2
Flags: HMW
HStem: 280 12G<60 108 108 108>
LayerCount: 2
Fore
SplineSet
140 -292 m 1
 121 -291 103 -290 84 -289 c 1
 201 2 l 1
 29 357 l 1
 77 357 l 1
 226 54 l 1
 366 358 l 1
 414 358 l 1
 253 2 l 1
 140 -292 l 1
EndSplineSet
Validated: 1
EndChar

StartChar: z
Encoding: 122 122 93
Width: 455
VWidth: 725
GlyphClass: 2
Flags: HMW
HStem: 5 46<147 147 147 393> 321 44
LayerCount: 2
Fore
SplineSet
298 321 m 1
 222 322 144 323 67 324 c 1
 67 366 l 1
 390 365 l 1
 308 261 225 158 147 51 c 1
 395 49 l 1
 393 5 l 1
 60 5 l 1
 139 110 219 216 298 321 c 1
EndSplineSet
Validated: 1
EndChar

StartChar: braceleft
Encoding: 123 123 94
Width: 290
VWidth: 717
GlyphClass: 2
Flags: HMW
HStem: -1 43<222 228> 545 43<225 230>
VStem: 159 38<68 97 68 103> 159 43<387 407> 167 40<174 201>
LayerCount: 2
Fore
SplineSet
197 79 m 0xe0
 197 56 204 47 228 43 c 1
 222 -1 l 1
 170 7 159 47 159 86 c 0xe0
 159 120 167 159 167 188 c 0xc8
 167 213 162 234 146 248 c 0
 136 256 120 271 120 271 c 1
 60 296 l 1
 120 314 l 2
 121 314 136 335 146 343 c 0
 157 353 159 371 159 395 c 0
 159 419 156 447 156 475 c 0
 156 528 167 580 225 589 c 1
 230 545 l 1
 204 538 198 516 198 486 c 0
 198 462 202 433 202 405 c 0xd0
 202 370 197 335 171 309 c 0
 164 303 157 299 149 295 c 1
 157 291 163 289 170 283 c 0
 199 258 207 223 207 189 c 0xc8
 207 149 197 114 197 79 c 0xe0
EndSplineSet
Validated: 1
EndChar

StartChar: bar
Encoding: 124 124 95
Width: 160
VWidth: 720
GlyphClass: 2
Flags: HMW
HStem: -1 13G<100 100>
VStem: 60 41<0 0>
LayerCount: 2
Fore
SplineSet
60 0 m 1
 62 603 l 1
 100 601 l 1
 100 -1 l 1
 60 0 l 1
EndSplineSet
Validated: 1
EndChar

StartChar: braceright
Encoding: 125 125 96
Width: 290
VWidth: 717
GlyphClass: 2
Flags: HMW
HStem: -1 43<92 98> 545 43<90 95>
VStem: 113 40<174 201 174 206> 118 43<387 407 383 419> 123 38<68 97>
LayerCount: 2
Fore
SplineSet
93 79 m 0xc8
 93 114 83 149 83 189 c 0xe0
 83 223 91 258 120 283 c 0
 127 289 133 291 141 295 c 1
 133 299 126 303 119 309 c 0
 93 335 88 370 88 405 c 0
 88 433 92 462 92 486 c 0
 92 516 86 538 60 545 c 1
 65 589 l 1
 123 580 134 528 134 475 c 0
 134 447 131 419 131 395 c 0xd0
 131 371 133 353 144 343 c 0
 154 335 169 314 170 314 c 2
 230 296 l 1
 170 271 l 1
 170 271 154 256 144 248 c 0
 128 234 123 213 123 188 c 0xe0
 123 159 131 120 131 86 c 0
 131 47 120 7 68 -1 c 1
 62 43 l 1
 86 47 93 56 93 79 c 0xc8
EndSplineSet
Validated: 1
EndChar

StartChar: asciitilde
Encoding: 126 126 97
Width: 501
VWidth: 722
GlyphClass: 2
Flags: HMW
HStem: 256 39<321 354 321 364> 323 35<159 181>
VStem: 413 28<322 352>
LayerCount: 2
Fore
SplineSet
170 323 m 0
 148 323 118 299 80 261 c 1
 60 293 l 1
 64 296 l 1
 108 338 139 358 171 358 c 0
 200 358 230 343 274 314 c 0
 290 304 312 295 329 295 c 0
 378 295 408 339 413 352 c 1
 419 352 l 2
 431 352 441 339 441 332 c 0
 441 312 399 256 331 256 c 0
 304 256 283 263 257 280 c 0
 215 308 192 323 170 323 c 0
EndSplineSet
Validated: 1
EndChar

StartChar: exclamdown
Encoding: 161 161 99
Width: 194
VWidth: 712
GlyphClass: 2
Flags: HMW
HStem: 476 77<87 108 86 110>
VStem: 60 74<505 524 504 525> 65 64<25 47 27 47> 76 44
LayerCount: 2
Fore
SplineSet
134 514 m 0xc0
 134 494 121 476 99 476 c 0
 76 476 60 494 60 515 c 0
 60 535 75 554 97 554 c 0
 120 554 134 535 134 514 c 0xc0
98 6 m 0
 89 6 79 13 65 25 c 1
 65 27 l 1xa0
 66 229 72 267 76 395 c 1
 85 418 91 428 98 429 c 0
 106 428 112 416 120 396 c 1x90
 123 282 129 178 129 47 c 2
 129 27 l 1xa0
 118 15 108 6 98 6 c 0
EndSplineSet
Validated: 1
EndChar

StartChar: cent
Encoding: 162 162 100
Width: 416
VWidth: 719
GlyphClass: 2
Flags: HMW
HStem: 0 13G<231 231> 135 41<229 229> 464 40<225 236 225 225>
VStem: 60 47<290 346 290 352> 176 49<503 597> 182 49<0 2> 310 24 330 26
LayerCount: 2
Fore
SplineSet
165 443 m 1xf0
 125 415 107 375 107 317 c 0
 107 261 127 218 167 194 c 1
 176 187 l 1
 178 443 l 1
 165 443 l 1xf0
60 314 m 0
 60 405 102 465 176 496 c 1
 176 597 l 1
 225 597 l 1
 225 503 l 1xf8
 270 498 331 485 354 415 c 0
 355 412 356 411 356 410 c 0
 356 400 343 393 330 386 c 1
 323 435 271 464 236 464 c 2
 225 464 l 1
 225 176 l 1xf9
 231 176 l 1
 260 177 299 197 310 221 c 0
 312 222 313 223 314 223 c 0
 323 223 334 206 334 194 c 0
 334 189 333 186 329 184 c 0
 313 161 267 140 229 135 c 1
 231 0 l 1
 182 2 l 1xf6
 179 142 l 1
 163 147 148 150 134 160 c 0
 82 195 60 246 60 314 c 0
EndSplineSet
Validated: 1
EndChar

StartChar: yen
Encoding: 165 165 101
Width: 483
VWidth: 717
GlyphClass: 2
Flags: HMW
HStem: -2 13G<215 264 215 215> 136 44<122 214 122 215 122 214 264 364 264 264> 216 44<118 214 118 214 118 214 263 359> 573 12G<60 113 113 113>
VStem: 214 50<260 300 300 300>
LayerCount: 2
Fore
SplineSet
263 216 m 1
 263 181 l 1
 364 181 l 1
 364 136 l 1
 264 136 l 1
 264 -2 l 1
 215 -2 l 1
 215 136 l 1
 122 136 l 1
 122 181 l 1
 214 181 l 1
 214 216 l 1
 118 216 l 1
 118 260 l 1
 214 260 l 1
 214 300 l 1
 60 585 l 1
 113 585 l 1
 238 365 l 1
 365 587 l 1
 423 588 l 1
 263 301 l 1
 263 260 l 1
 359 260 l 1
 359 216 l 1
 263 216 l 1
EndSplineSet
Validated: 1
EndChar

StartChar: brokenbar
Encoding: 166 166 102
Width: 182
VWidth: 719
GlyphClass: 2
Flags: HMW
HStem: -17 13G<66 122 66 66>
VStem: 60 56<613 613> 66 55<-17 -17>
LayerCount: 2
Fore
SplineSet
118 288 m 1xa0
 122 -17 l 1
 66 -17 l 1
 68 290 l 1
 118 288 l 1xa0
65 361 m 1
 60 613 l 1
 117 613 l 1xc0
 122 359 l 1
 65 361 l 1
EndSplineSet
Validated: 1
EndChar

StartChar: section
Encoding: 167 167 103
Width: 407
VWidth: 706
GlyphClass: 2
Flags: HMW
HStem: -11 43<237 244> -10 47<185 204 185 206> 157 47<182 198 182 200> 499 43<193 217 186 221>
VStem: 60 43<426 426 426 436> 66 43<227 259 232 259 259 259 259 268> 296 45<263 283> 302 45<100 117>
LayerCount: 2
Fore
SplineSet
87 190 m 0xb1
 82 194 66 222 66 227 c 2
 66 232 l 2
 66 235 66 239 68 241 c 1
 67 244 66 246 66 249 c 0
 66 286 78 325 109 345 c 1xb5
 88 358 60 377 60 416 c 0
 60 455 74 495 108 514 c 0
 140 533 170 543 201 543 c 0
 232 543 263 534 295 515 c 0
 309 507 307 510 317 497 c 0
 327 484 329 476 329 469 c 0
 329 458 318 454 309 454 c 0
 304 454 300 455 299 456 c 0
 277 478 238 499 204 499 c 0
 182 499 161 492 138 478 c 0
 113 463 104 448 104 426 c 1
 107 415 104 408 118 391 c 0
 127 380 148 375 170 371 c 1
 183 374 194 376 207 376 c 0
 240 376 281 361 305 346 c 0
 323 336 341 305 341 280 c 0xba
 341 246 328 205 305 183 c 1
 333 165 347 135 347 113 c 0
 347 73 329 23 297 6 c 0
 272 -8 254 -11 234 -11 c 0xb1
 225 -11 216 -10 206 -10 c 2
 204 -10 l 2
 200 -10 192 -9 189 -9 c 0
 155 -9 100 17 77 45 c 1
 72 48 71 55 71 60 c 2
 71 65 l 2
 71 78 85 87 100 87 c 0
 104 87 106 86 108 84 c 0
 125 62 172 37 198 37 c 0x71
 203 37 219 33 221 33 c 0
 229 33 235 32 240 32 c 0
 250 32 258 32 272 43 c 0
 289 56 302 89 302 111 c 0
 302 123 283 141 264 147 c 0
 243 154 225 157 200 157 c 2
 198 157 l 2
 194 157 186 158 183 158 c 0
 170 158 155 163 139 168 c 0
 128 172 110 172 87 190 c 0xb1
242 199 m 0
 274 199 296 246 296 277 c 0x36
 296 289 278 308 259 314 c 0
 231 323 203 324 176 327 c 1
 165 323 154 319 143 312 c 0
 118 297 109 281 109 259 c 1
 111 252 111 248 113 241 c 1
 135 222 171 204 193 204 c 0
 196 204 204 202 209 201 c 0
 221 200 232 199 242 199 c 0
EndSplineSet
Validated: 1
EndChar

StartChar: dieresis
Encoding: 168 168 104
Width: 406
VWidth: 868
GlyphClass: 2
Flags: HMW
HStem: 630 80<91 111 90 112>
VStem: 60 84<659 682 657 683> 264 83<661 684 660 685>
LayerCount: 2
Fore
SplineSet
304 712 m 0
 326 712 346 697 346 672 c 0
 346 648 326 632 305 632 c 0
 283 632 264 649 264 673 c 0
 264 697 283 712 304 712 c 0
100 710 m 0
 122 710 144 694 144 669 c 0
 144 645 123 630 102 630 c 0
 80 630 60 647 60 671 c 0
 60 695 79 710 100 710 c 0
EndSplineSet
Validated: 1
EndChar

StartChar: copyright
Encoding: 169 169 105
Width: 578
VWidth: 689
GlyphClass: 2
Flags: HMW
HStem: -34 42<261 294 261 300> 42 49<280 298 280 299> 369 48<285 301> 439 41<270 304>
VStem: 60 30<179 262 179 269> 131 53<200 255 200 263> 481 37<184 266>
LayerCount: 2
Fore
SplineSet
404 443 m 0
 481 394 518 323 518 225 c 0
 518 127 481 57 403 8 c 0
 360 -18 321 -34 279 -34 c 0
 242 -34 205 -22 167 3 c 0
 93 51 60 123 60 217 c 0
 60 320 96 393 175 443 c 0
 213 468 251 480 289 480 c 0
 327 480 366 468 404 443 c 0
371 282 m 0
 343 282 325 301 325 326 c 0
 325 340 329 349 336 357 c 1
 322 364 308 369 294 369 c 0
 276 369 258 363 239 350 c 0
 200 323 183 283 183 227 c 0
 183 173 198 137 234 111 c 0
 253 98 271 91 288 91 c 0
 307 91 328 100 348 114 c 0
 350 115 352 116 354 116 c 0
 365 116 377 97 377 84 c 0
 377 79 375 75 371 72 c 0
 342 52 313 42 284 42 c 0
 258 42 232 50 206 68 c 0
 154 103 131 157 131 225 c 0
 131 301 157 353 212 390 c 0
 239 408 264 417 291 417 c 0
 332 417 386 389 409 358 c 0
 414 352 415 347 415 340 c 2
 415 330 l 1
 408 330 l 1
 408 324 l 1
 414 324 l 1
 413 313 409 295 397 290 c 0
 389 286 381 282 371 282 c 0
384 408 m 0
 359 424 323 439 286 439 c 0
 254 439 221 429 188 409 c 0
 119 366 90 306 90 219 c 0
 90 140 115 78 180 38 c 0
 213 18 245 8 276 8 c 0
 311 8 347 21 383 43 c 0
 450 85 481 142 481 225 c 0
 481 307 449 366 384 408 c 0
EndSplineSet
Validated: 1
EndChar

StartChar: ordfeminine
Encoding: 170 170 106
Width: 253
VWidth: 836
GlyphClass: 2
Flags: HMW
HStem: 485 29<63 192 63 192> 536 29<125 130 125 135> 668 29<126 132>
VStem: 60 29<605 626 605 631> 166 26<536 550 550 550 685 695 535 696 535 696>
LayerCount: 2
Fore
SplineSet
63 514 m 1
 192 514 l 1
 192 485 l 1
 63 485 l 1
 63 514 l 1
131 697 m 0
 143 697 155 692 166 685 c 1
 166 696 l 1
 193 695 l 1
 193 535 l 1
 166 536 l 1
 166 550 l 1
 155 542 141 536 128 536 c 0
 117 536 102 540 91 548 c 0
 68 563 60 586 60 616 c 0
 60 646 71 669 94 684 c 0
 106 692 118 697 131 697 c 0
166 617 m 0
 166 641 153 668 129 668 c 0
 123 668 116 664 109 659 c 0
 95 649 89 636 89 616 c 0
 89 592 103 565 127 565 c 0
 153 565 166 591 166 617 c 0
EndSplineSet
Validated: 1
EndChar

StartChar: guillemotleft
Encoding: 171 171 107
Width: 504
VWidth: 690
GlyphClass: 2
Flags: W
HStem: 107 239
LayerCount: 2
Fore
SplineSet
284 227 m 1
 444 148 l 1
 424 107 l 1
 359 139 295 171 230 203 c 1
 221 209 l 1
 212 224 l 1
 224 248 l 1
 289 281 356 313 421 346 c 1
 442 306 l 1
 284 227 l 1
132 227 m 1
 292 147 l 1
 271 107 l 1
 206 139 142 171 77 203 c 2
 67 208 l 1
 60 224 l 1
 72 247 l 1
 137 280 204 313 269 346 c 1
 289 305 l 1
 132 227 l 1
EndSplineSet
Validated: 1
EndChar

StartChar: logicalnot
Encoding: 172 172 108
Width: 424
VWidth: 681
GlyphClass: 2
Flags: HMW
HStem: 222 52<60 310 60 361>
VStem: 312 52<131 131>
LayerCount: 2
Fore
SplineSet
60 274 m 1
 361 274 l 1
 364 131 l 1
 312 131 l 1
 310 222 l 1
 60 222 l 1
 60 274 l 1
EndSplineSet
Validated: 1
EndChar

StartChar: uni00AD
Encoding: 173 173 109
Width: 422
VWidth: 711
GlyphClass: 2
Flags: HMW
HStem: 252 52<60 362 60 362>
LayerCount: 2
Fore
SplineSet
60 304 m 1
 362 304 l 1
 362 252 l 1
 60 252 l 1
 60 304 l 1
EndSplineSet
Validated: 1
EndChar

StartChar: registered
Encoding: 174 174 110
Width: 597
VWidth: 712
GlyphClass: 2
Flags: HMW
HStem: 13 39<273 306 273 309> 400 38 507 41<281 314>
VStem: 60 43<232 320 232 328> 187 38 187 46 390 69 492 45<237 325>
LayerCount: 2
Fore
SplineSet
303 286 m 4xf3
 315 286 338 289 349 298 c 4
 358 305 376 318 376 346 c 4
 376 374 364 394 340 408 c 4
 329 415 316 419 305 419 c 4
 294 419 262 419 236 418 c 5
 238 287 l 5
 252 286 264 286 275 286 c 4
 286 286 296 286 303 286 c 4xf3
258 264 m 5
 238 264 l 5
 238 218 238 168 238 122 c 5
 211 122 l 5
 214 380 l 6
 215 381 214 381 215 382 c 5
 215 444 l 5
 239 442 l 5
 246 443 263 444 284 444 c 4
 310 444 343 441 359 430 c 4
 391 409 402 381 402 344 c 4
 402 307 387 295 354 276 c 4
 338 267 309 264 293 264 c 6
 288 264 l 5
 401 122 l 5
 371 122 l 5
 258 264 l 5
395 474 m 0
 363 495 330 507 298 507 c 0
 266 507 233 496 201 475 c 0
 133 430 103 366 103 274 c 0
 103 190 129 126 193 83 c 0
 225 62 258 52 289 52 c 0
 323 52 358 65 394 88 c 0
 460 132 492 193 492 281 c 0
 492 368 460 430 395 474 c 0
418 510 m 0
 498 459 537 384 537 283 c 0
 537 180 499 106 418 55 c 0
 374 27 330 13 287 13 c 0
 248 13 210 25 170 50 c 0
 92 100 60 177 60 274 c 0
 60 381 96 458 179 511 c 0
 219 536 258 548 298 548 c 0
 338 548 378 536 418 510 c 0
EndSplineSet
Validated: 1
EndChar

StartChar: macron
Encoding: 175 175 111
Width: 422
VWidth: 894
GlyphClass: 2
Flags: HMW
HStem: 709 52<60 362 60 362>
LayerCount: 2
Fore
SplineSet
60 761 m 1
 362 761 l 1
 362 709 l 1
 60 709 l 1
 60 761 l 1
EndSplineSet
Validated: 1
EndChar

StartChar: degree
Encoding: 176 176 112
Width: 262
VWidth: 856
GlyphClass: 2
Flags: HMW
HStem: 560 32<127 133 127 135> 690 31<129 135>
VStem: 60 33<630 650 630 655> 171 31<632 651>
LayerCount: 2
Fore
SplineSet
93 640 m 0
 93 615 105 592 130 592 c 0
 137 592 144 595 151 600 c 0
 165 610 171 621 171 641 c 0
 171 664 156 690 132 690 c 0
 126 690 120 688 113 683 c 0
 99 673 93 661 93 640 c 0
60 639 m 0
 60 680 86 721 131 721 c 0
 143 721 155 717 167 709 c 0
 190 694 202 671 202 641 c 0
 202 600 172 560 128 560 c 0
 116 560 104 565 93 572 c 0
 70 587 60 611 60 639 c 0
EndSplineSet
Validated: 1
EndChar

StartChar: plusminus
Encoding: 177 177 113
Width: 373
VWidth: 635
GlyphClass: 2
Flags: HMW
HStem: -69 46 93 44<64 159 64 159 64 159 204 306 204 204>
VStem: 159 45<137 137>
LayerCount: 2
Fore
SplineSet
159 137 m 1
 157 245 l 1
 202 245 l 1
 204 137 l 1
 306 137 l 1
 306 93 l 1
 204 93 l 1
 205 -24 l 1
 313 -21 l 1
 313 -66 l 1
 60 -69 l 1
 60 -25 l 1
 160 -24 l 1
 159 93 l 1
 64 93 l 1
 64 137 l 1
 159 137 l 1
EndSplineSet
Validated: 1
EndChar

StartChar: uni00B2
Encoding: 178 178 114
Width: 303
VWidth: 845
GlyphClass: 2
Flags: HMW
HStem: 510 20<171 182> 514 26<69 97 71 97> 630 21<96 103 96 110> 694 21<131 138>
VStem: 62 23<661 665 661 668> 113 23<664 664 662 667> 194 23<641 648>
LayerCount: 2
Fore
SplineSet
172 530 m 0xbe
 195 530 213 538 223 555 c 1
 243 544 l 1
 239 539 l 1
 226 521 201 510 172 510 c 0
 168 510 165 510 161 510 c 0xbe
 147 511 135 517 128 518 c 1
 127 518 l 1
 122 519 115 519 110 519 c 0
 98 519 87 516 74 514 c 1
 71 514 l 2
 66 514 60 518 60 525 c 0
 60 536 79 540 83 542 c 1
 84 541 85 540 87 540 c 0x7e
 106 540 182 613 185 618 c 0
 192 630 194 638 194 645 c 0
 194 652 191 660 186 672 c 0
 183 678 164 687 164 687 c 1
 153 692 143 694 133 694 c 0
 128 694 122 694 117 692 c 1
 128 687 137 677 137 664 c 2
 137 662 l 1
 136 648 119 630 101 630 c 0
 81 630 62 646 62 664 c 0
 62 673 69 685 76 690 c 1
 87 704 110 715 133 715 c 0
 148 715 162 711 175 706 c 0
 185 702 201 694 208 679 c 0
 213 666 217 655 217 645 c 0
 217 634 213 624 206 610 c 0
 189 578 157 555 126 539 c 1
 128 538 129 539 131 538 c 2
 143 530 l 1
 163 531 l 2
 167 531 169 530 172 530 c 0xbe
93 675 m 2
 89 675 85 667 85 664 c 0
 85 659 93 651 100 651 c 0
 108 651 113 662 113 664 c 0
 113 669 105 675 97 675 c 2
 93 675 l 2
EndSplineSet
Validated: 1
EndChar

StartChar: uni00B3
Encoding: 179 179 115
Width: 279
VWidth: 841
GlyphClass: 2
Flags: HMW
HStem: 488 24<137 149 133 157> 592 23<123 144 134 144 134 151> 693 25<127 144>
VStem: 60 26<542 546 539 550> 65 27<664 666> 193 26<550 561 550 566>
LayerCount: 2
Fore
SplineSet
140 615 m 0xf4
 167 615 191 623 191 648 c 0
 191 655 190 661 186 668 c 0
 177 682 181 681 164 689 c 0
 158 692 149 693 140 693 c 0
 115 693 92 683 92 666 c 0
 92 662 94 656 96 651 c 1
 94 643 90 636 82 636 c 0
 67 636 65 649 65 665 c 0
 65 667 64 672 65 674 c 0xec
 72 682 80 717 139 717 c 0
 186 717 205 686 209 679 c 1
 210 679 l 1
 214 668 216 657 216 648 c 0
 216 631 208 618 198 603 c 1
 206 593 l 2
 216 580 219 567 219 554 c 0
 219 508 193 488 152 488 c 0
 123 488 96 497 95 497 c 0
 77 505 60 521 60 545 c 0
 60 555 67 572 81 572 c 0
 88 572 93 567 93 560 c 0
 93 552 86 547 86 543 c 0
 86 522 118 512 139 512 c 0
 160 512 184 520 189 533 c 0
 191 540 193 547 193 554 c 0
 193 579 179 592 151 592 c 2
 128 592 l 2
 118 592 102 593 102 605 c 0
 102 613 113 616 115 617 c 0
 120 616 127 615 140 615 c 0xf4
EndSplineSet
Validated: 1
EndChar

StartChar: acute
Encoding: 180 180 116
Width: 264
VWidth: 862
GlyphClass: 2
Flags: HMW
HStem: 591 132<89 150>
VStem: 60 144<599 700>
LayerCount: 2
Fore
SplineSet
204 700 m 1
 89 591 l 1
 60 599 l 1
 150 723 l 1
 204 700 l 1
EndSplineSet
Validated: 1
EndChar

StartChar: uni00B5
Encoding: 181 181 117
Width: 464
VWidth: 589
GlyphClass: 2
Flags: HMW
HStem: -131 13G<354 354> -115 48<206 224 206 226>
VStem: 60 45 65 46<-298 -256 -298 -194> 327 48
LayerCount: 2
Fore
SplineSet
327 -62 m 1xe8
 301 -88 254 -115 213 -115 c 0
 176 -115 138 -94 110 -71 c 1
 111 -298 l 1
 65 -296 l 1
 65 -256 l 2xd8
 65 -133 60 84 60 205 c 2
 60 244 l 1
 107 244 l 1
 107 234 106 224 106 214 c 0
 104 191 104 147 104 116 c 0
 104 78 104 40 105 20 c 1
 117 -18 166 -67 215 -67 c 0
 232 -67 251 -61 270 -48 c 0
 307 -24 325 10 327 58 c 1
 327 241 l 1
 376 239 l 1
 376 179 375 116 375 56 c 0
 375 51 373 47 374 43 c 0
 375 35 375 25 375 17 c 0
 375 -2 373 -21 373 -40 c 0
 373 -72 378 -103 404 -130 c 1
 354 -131 l 1
 338 -116 327 -98 327 -74 c 0
 327 -70 326 -66 327 -62 c 1xe8
EndSplineSet
Validated: 1
EndChar

StartChar: paragraph
Encoding: 182 182 118
Width: 520
VWidth: 720
GlyphClass: 2
Flags: HMW
HStem: 0 13G<321 364 321 321 460 460> 224 50<206 225 206 232> 556 44<217 220> 565 32<382 414>
VStem: 60 40<390 443 390 447> 315 46 322 39 411 41<565 596> 420 41<0 1>
LayerCount: 2
Fore
SplineSet
229 601 m 0xec
 255 601 414 598 414 598 c 1
 452 596 l 1xdd
 460 0 l 1
 420 1 l 1xd880
 411 565 l 1
 411 565 400 565 389 565 c 0
 375 565 360 565 361 561 c 2xdb
 364 0 l 1
 321 0 l 1
 321 146 316 176 315 274 c 1
 306 265 302 257 293 251 c 0
 268 234 244 224 220 224 c 0
 193 224 166 235 138 254 c 0
 85 289 60 340 60 411 c 0
 60 482 85 533 137 568 c 0
 163 586 204 601 229 601 c 0xec
EndSplineSet
Validated: 1
EndChar

StartChar: periodcentered
Encoding: 183 183 119
Width: 200
VWidth: 700
GlyphClass: 2
Flags: HMW
HStem: 210 83<87 110>
VStem: 60 80<240 261>
LayerCount: 2
Fore
SplineSet
60 250 m 0
 60 272 75 292 100 292 c 0
 124 292 140 272 140 251 c 0
 140 229 122 210 98 210 c 0
 74 210 60 229 60 250 c 0
EndSplineSet
Validated: 1
EndChar

StartChar: cedilla
Encoding: 184 184 120
Width: 209
VWidth: 514
GlyphClass: 2
Flags: HMW
VStem: 75 62<-184 -181 -181 -179> 88 46
LayerCount: 2
Fore
SplineSet
77 -166 m 1x80
 120 -85 l 1
 149 -100 l 1
 122 -153 l 1
 131 -158 136 -170 137 -175 c 1
 137 -181 l 2x80
 137 -187 136 -197 134 -202 c 0
 133 -255 109 -301 74 -342 c 1
 60 -322 l 1
 76 -296 88 -272 88 -244 c 0x40
 88 -230 86 -217 81 -201 c 1
 76 -195 75 -189 75 -182 c 0
 75 -176 76 -170 78 -166 c 1
 77 -166 l 1x80
EndSplineSet
Validated: 1
EndChar

StartChar: uni00B9
Encoding: 185 185 121
Width: 220
VWidth: 843
GlyphClass: 2
Flags: HMW
HStem: 523 170<124 124>
VStem: 124 37<523 523 523 662>
LayerCount: 2
Fore
SplineSet
124 662 m 1
 103 648 87 639 71 629 c 1
 60 643 l 1
 118 692 l 1
 158 692 l 1
 160 523 l 1
 124 523 l 1
 124 662 l 1
EndSplineSet
Validated: 1
EndChar

StartChar: ordmasculine
Encoding: 186 186 122
Width: 262
VWidth: 839
GlyphClass: 2
Flags: HMW
HStem: 494 29<64 193 64 193> 543 32<127 133 127 135> 674 31<129 135>
VStem: 60 33<614 634 614 638> 171 31<615 635>
LayerCount: 2
Fore
SplineSet
64 523 m 1
 193 523 l 1
 193 494 l 1
 64 494 l 1
 64 523 l 1
93 623 m 0
 93 599 106 575 130 575 c 0
 137 575 144 579 151 584 c 0
 165 594 171 605 171 625 c 0
 171 644 164 656 151 666 c 0
 144 671 138 674 132 674 c 0
 126 674 120 672 113 667 c 0
 99 657 93 644 93 623 c 0
95 693 m 0
 107 700 119 705 131 705 c 0
 143 705 155 701 167 693 c 0
 190 678 202 655 202 625 c 0
 202 595 190 573 167 557 c 0
 154 549 141 543 128 543 c 0
 116 543 104 548 93 555 c 0
 70 570 60 595 60 623 c 0
 60 654 71 677 95 693 c 0
EndSplineSet
Validated: 1
EndChar

StartChar: guillemotright
Encoding: 187 187 123
Width: 504
VWidth: 690
GlyphClass: 2
Flags: W
HStem: 107 239
LayerCount: 2
Fore
SplineSet
220 227 m 1
 62 306 l 1
 83 346 l 1
 148 313 215 281 280 248 c 1
 292 224 l 1
 283 209 l 1
 274 203 l 1
 209 171 145 139 80 107 c 1
 60 148 l 1
 220 227 l 1
372 227 m 1
 215 305 l 1
 235 346 l 1
 300 313 367 280 432 247 c 1
 444 224 l 1
 437 208 l 1
 427 203 l 2
 362 171 298 139 233 107 c 1
 212 147 l 1
 372 227 l 1
EndSplineSet
Validated: 1
EndChar

StartChar: onequarter
Encoding: 188 188 124
Width: 652
VWidth: 707
GlyphClass: 2
Flags: HMW
HStem: -27 13G<535 543> 2 13G<93 93 93 141> 111 31<351 525 525 553 553 580> 543 13G
VStem: 140 37 144 36<227 228> 525 28<111 111 141 257>
LayerCount: 2
Fore
SplineSet
146 564 m 1xfa
 149 564 156 564 158 564 c 0
 167 564 167 564 177 565 c 1xfa
 180 228 l 1
 144 227 l 1xf6
 140 493 l 1
 110 465 100 459 77 439 c 1
 60 465 l 1
 146 564 l 1xfa
539 -27 m 0
 531 -27 528 -21 525 -16 c 1
 525 111 l 1
 351 111 l 1
 349 112 347 112 345 113 c 1
 340 123 l 1
 341 126 341 129 342 131 c 2
 454 335 l 2
 456 340 461 342 466 342 c 0
 474 342 478 334 481 328 c 1
 447 266 415 204 382 142 c 1
 525 141 l 1
 525 257 l 2
 525 264 531 272 540 272 c 0
 548 272 553 264 553 257 c 2
 553 141 l 1
 580 141 l 2
 587 141 592 134 592 126 c 0
 592 118 587 111 580 111 c 2
 553 111 l 1
 553 -12 l 2
 553 -19 548 -27 539 -27 c 0
93 2 m 1x50
 444 555 l 1
 490 553 l 1
 141 2 l 1
 93 2 l 1x50
EndSplineSet
Validated: 1
EndChar

StartChar: onehalf
Encoding: 189 189 125
Width: 644
VWidth: 719
GlyphClass: 2
Flags: HMW
HStem: 5 13G<60 60 60 110> 8 23<475 494 475 496> 23 24 196 24<354 364 354 375> 298 24<408 426 397 431> 580 12G<427 427>
VStem: 134 46 305 27<240 248 240 253> 388 28<247 253> 516 27<210 222>
LayerCount: 2
Fore
SplineSet
361 220 m 0x1fc0
 376 220 388 241 388 247 c 0
 388 260 371 268 356 268 c 0
 354 268 352 269 350 268 c 0
 349 268 347 267 344 268 c 1
 340 262 332 255 332 246 c 0
 332 235 347 220 361 220 c 0x1fc0
584 56 m 1
 559 23 518 8 477 8 c 0x5fc0
 472 8 465 8 460 9 c 0
 438 10 420 20 407 21 c 1
 405 21 l 1
 396 23 387 23 378 23 c 0
 358 23 338 20 318 16 c 0
 317 15 316 16 315 16 c 0
 308 16 302 21 302 28 c 0
 302 44 334 47 339 52 c 1
 400 79 472 117 502 172 c 0
 512 191 516 203 516 216 c 0
 516 228 513 240 504 259 c 0
 494 281 446 298 414 298 c 0
 400 298 387 295 375 290 c 1
 397 284 416 268 416 247 c 0
 416 246 416 245 416 244 c 0
 414 224 388 196 362 196 c 0
 333 196 305 220 305 246 c 0
 305 259 316 279 326 284 c 1
 326 286 l 1
 328 289 l 1
 347 307 379 322 414 322 c 0
 437 322 460 316 480 308 c 0
 496 301 521 290 531 268 c 0
 540 248 543 232 543 217 c 0
 543 201 539 185 528 163 c 0
 500 111 442 73 388 47 c 1x3fc0
 396 46 403 45 411 44 c 2
 462 32 l 2
 467 31 472 31 477 31 c 0x5fc0
 513 31 543 44 561 69 c 1
 584 56 l 1
60 5 m 1x9fc0
 427 592 l 1
 476 590 l 1
 110 5 l 1
 60 5 l 1x9fc0
149 582 m 1
 158 582 l 2
 167 582 159 583 179 583 c 2
 186 583 l 1
 188 286 l 1
 159 287 l 1
 157 544 l 1
 135 519 118 488 99 472 c 1
 87 494 l 1
 149 582 l 1
EndSplineSet
Validated: 1
EndChar

StartChar: threequarters
Encoding: 190 190 126
Width: 761
VWidth: 713
GlyphClass: 2
Flags: HMW
HStem: -11 13G<167 167 167 217> -9 13G<635 656> 180 28<424 624 656 688> 243 24<186 194 178 218> 383 22<169 196 179 196 179 208> 518 25 564 12G<534 534>
VStem: 60 33<312 316 306 322> 68 35 281 32<444 458> 283 34<323 337 323 340> 624 32<180 180 208 315>
LayerCount: 2
Fore
SplineSet
640 -9 m 0x6010
 631 -9 627 -5 624 0 c 1
 624 180 l 1
 424 180 l 1
 421 181 418 181 416 182 c 1
 411 191 l 1
 412 194 412 196 413 198 c 2
 542 388 l 2
 545 392 551 395 556 395 c 0
 566 395 570 388 573 381 c 1
 535 324 497 266 459 208 c 1
 624 208 l 1
 624 315 l 2
 624 322 631 330 641 330 c 0
 651 330 656 322 656 315 c 2
 656 208 l 1
 688 208 l 2
 696 208 701 202 701 194 c 0
 701 186 696 180 688 180 c 2
 656 180 l 1
 656 3 l 2
 656 -3 650 -9 640 -9 c 0x6010
167 -11 m 1x82
 534 576 l 1
 583 574 l 1
 217 -11 l 1
 167 -11 l 1x82
317 328 m 0
 317 264 270 243 210 243 c 0
 162 243 116 254 116 254 c 1
 91 264 77 276 66 294 c 0
 62 302 60 309 60 316 c 0
 60 329 73 348 90 348 c 0
 98 348 105 343 105 336 c 0
 105 328 93 322 93 313 c 0
 93 297 115 280 134 276 c 1
 152 270 169 267 188 267 c 0
 201 267 216 268 233 272 c 0
 267 279 283 293 283 327 c 0x1d20
 283 353 268 376 239 381 c 0
 231 383 219 383 208 383 c 2
 173 383 l 2
 158 383 130 383 130 396 c 0
 130 403 143 407 147 409 c 1
 154 408 169 405 189 405 c 0
 203 405 220 406 238 410 c 0
 265 417 281 434 281 454 c 0
 281 463 278 473 271 483 c 0
 255 501 260 500 232 513 c 0
 219 517 205 518 189 518 c 0x1c40
 148 518 104 506 104 478 c 0
 104 472 106 465 110 458 c 1
 106 448 101 442 91 442 c 0
 72 442 68 453 68 478 c 0
 68 481 67 484 68 487 c 0
 82 499 92 541 188 543 c 1
 273 542 302 492 304 492 c 0
 310 478 313 465 313 454 c 0x1cc0
 313 434 303 419 285 400 c 0
 280 394 283 395 281 393 c 1
 296 378 l 2
 312 361 317 345 317 328 c 0
EndSplineSet
Validated: 1
EndChar

StartChar: questiondown
Encoding: 191 191 127
Width: 365
VWidth: 700
GlyphClass: 2
Flags: HMW
HStem: -31 50<176 189> 466 65<166 183>
VStem: 60 40<98 104 98 108> 143 62<490 507> 168 45<210 234> 170 29<411 416>
LayerCount: 2
Fore
SplineSet
185 -31 m 0xe8
 112 -31 60 14 60 91 c 0
 60 125 70 158 81 174 c 1
 107 201 108 197 149 216 c 0
 156 221 168 217 168 232 c 0xe8
 168 235 167 240 166 245 c 1
 170 411 l 1xe4
 198 416 l 1
 213 221 l 1
 213 199 205 181 180 172 c 1
 146 165 113 152 107 124 c 1
 101 113 100 106 100 101 c 0
 100 95 102 91 101 84 c 0
 105 61 115 45 138 32 c 0
 151 25 167 18 185 18 c 0
 225 18 244 41 261 71 c 0
 266 81 271 96 285 96 c 2
 288 96 l 1
 296 95 305 87 305 70 c 0
 305 68 305 65 305 63 c 0
 306 58 297 44 294 39 c 0
 286 26 280 16 270 5 c 0
 246 -21 230 -25 204 -30 c 0
 198 -31 192 -31 185 -31 c 0xe8
205 500 m 0xf0
 205 481 193 466 174 466 c 0
 156 466 143 481 143 498 c 0
 143 515 157 531 176 531 c 0
 194 531 205 517 205 500 c 0xf0
EndSplineSet
Validated: 1
EndChar

StartChar: Agrave
Encoding: 192 192 128
Width: 484
VWidth: 715
GlyphClass: 2
Flags: HMW
HStem: -12 13G<60 102 60 60> 155 41<156 312>
LayerCount: 2
Fore
SplineSet
138 589 m 1
 199 589 l 1
 256 496 l 1
 231 497 l 1
 138 589 l 1
382 -11 m 1
 324 156 l 1
 156 155 l 1
 102 -12 l 1
 60 -12 l 1
 219 467 l 1
 267 467 l 1
 424 -11 l 1
 382 -11 l 1
241 424 m 1
 171 196 l 1
 312 196 l 1
 241 424 l 1
EndSplineSet
Validated: 1
EndChar

StartChar: Aacute
Encoding: 193 193 129
Width: 484
VWidth: 720
GlyphClass: 2
Flags: HMW
HStem: -5 13G<60 102 60 60> 161 41<156 312> 503 106<243 304>
VStem: 214 144<509 589>
LayerCount: 2
Fore
SplineSet
358 589 m 1
 243 503 l 1
 214 509 l 1
 304 608 l 1
 358 589 l 1
382 -5 m 1
 324 162 l 1
 156 161 l 1
 102 -5 l 1
 60 -5 l 1
 219 473 l 1
 267 473 l 1
 424 -5 l 1
 382 -5 l 1
241 430 m 1
 171 203 l 1
 312 203 l 1
 241 430 l 1
EndSplineSet
Validated: 1
EndChar

StartChar: Acircumflex
Encoding: 194 194 130
Width: 484
VWidth: 739
GlyphClass: 2
Flags: HMW
HStem: 20 13G<60 102 60 60> 187 41<156 312>
LayerCount: 2
Fore
SplineSet
210 661 m 5
 275 661 l 5
 380 509 l 5
 326 511 l 5
 249 629 l 5
 238 629 l 5
 158 512 l 5
 106 510 l 5
 210 661 l 5
382 2 m 5
 324 169 l 5
 156 169 l 5
 102 2 l 5
 60 2 l 5
 219 481 l 5
 267 481 l 5
 424 2 l 5
 382 2 l 5
241 437 m 5
 171 210 l 5
 312 210 l 5
 241 437 l 5
EndSplineSet
Validated: 1
EndChar

StartChar: Atilde
Encoding: 195 195 131
Width: 501
VWidth: 710
GlyphClass: 2
Flags: HMW
HStem: -19 13G<67 109 67 67> 148 41<163 319> 490 31<321 354 321 364> 542 28<159 181>
VStem: 413 28<542 566>
LayerCount: 2
Fore
SplineSet
170 561 m 4
 148 561 118 543 80 512 c 5
 60 538 l 5
 64 540 l 5
 108 574 139 590 171 590 c 4
 200 590 230 577 274 554 c 4
 290 546 312 540 329 540 c 4
 378 540 408 575 413 585 c 5
 419 585 l 6
 431 585 441 575 441 569 c 4
 441 553 399 509 331 509 c 4
 304 509 283 514 257 528 c 4
 215 550 192 561 170 561 c 4
389 1 m 5
 331 168 l 5
 163 167 l 5
 109 0 l 5
 67 0 l 5
 226 479 l 5
 274 479 l 5
 431 1 l 5
 389 1 l 5
248 436 m 5
 178 209 l 5
 319 209 l 5
 248 436 l 5
EndSplineSet
Validated: 1
EndChar

StartChar: Adieresis
Encoding: 196 196 132
Width: 484
VWidth: 704
GlyphClass: 2
Flags: HMW
HStem: -27 13G<60 102 60 60> 140 41<156 312> 481 64<131 152 130 152>
VStem: 100 84<504 522 502 523> 304 83<506 525 505 525>
LayerCount: 2
Fore
SplineSet
344 575 m 4
 366 575 387 562 387 542 c 4
 387 523 366 511 345 511 c 4
 323 511 304 525 304 544 c 4
 304 563 323 575 344 575 c 4
141 573 m 4
 163 573 184 560 184 540 c 4
 184 521 163 509 142 509 c 4
 120 509 100 523 100 542 c 4
 100 561 120 573 141 573 c 4
382 2 m 5
 324 169 l 5
 156 168 l 5
 102 1 l 5
 60 1 l 5
 219 480 l 5
 267 480 l 5
 424 2 l 5
 382 2 l 5
241 437 m 5
 171 209 l 5
 312 209 l 5
 241 437 l 5
EndSplineSet
Validated: 1
EndChar

StartChar: Aring
Encoding: 197 197 133
Width: 484
VWidth: 729
GlyphClass: 2
Flags: HMW
HStem: 6 13G<60 102 60 60> 173 41<156 312> 511 25<236 247 233 249> 615 25<239 251 239 257>
VStem: 174 33<564 585 564 586> 285 31<568 586>
LayerCount: 2
Fore
SplineSet
285 576 m 0
 285 596 268 615 246 615 c 0
 223 615 207 596 207 574 c 0
 207 554 222 536 244 536 c 0
 251 536 258 539 265 543 c 0
 279 551 285 560 285 576 c 0
174 574 m 0
 174 609 204 640 245 640 c 0
 283 640 316 610 316 576 c 0
 316 541 283 511 242 511 c 0
 202 511 174 540 174 574 c 0
382 7 m 1
 324 174 l 1
 156 173 l 1
 102 6 l 1
 60 6 l 1
 219 485 l 1
 267 485 l 1
 424 7 l 1
 382 7 l 1
241 442 m 1
 171 214 l 1
 312 214 l 1
 241 442 l 1
EndSplineSet
Validated: 1
EndChar

StartChar: Ccedilla
Encoding: 199 199 134
Width: 494
VWidth: 679
GlyphClass: 2
Flags: HMW
HStem: -87 36<252 280 269 280> 350 34<263 288>
VStem: 60 53<96 166 96 173> 225 62<-160 -157 -157 -156> 239 46
LayerCount: 2
Fore
SplineSet
227 -69 m 5x10
 270 -5 l 5
 299 -17 l 5
 272 -59 l 5
 281 -63 286 -73 287 -77 c 5
 287 -81 l 6x10
 287 -86 286 -94 284 -98 c 4
 283 -140 260 -177 225 -210 c 5
 211 -194 l 5
 227 -174 239 -153 239 -131 c 4x08
 239 -120 236 -110 231 -97 c 5
 226 -92 225 -87 225 -82 c 4
 225 -77 226 -73 228 -69 c 5
 227 -69 l 5x10
413 73 m 5xe0
 422 67 434 57 434 46 c 6
 434 42 l 5
 433 41 432 41 431 40 c 4
 396 15 312 -11 272 -11 c 6
 269 -11 l 6
 235 -11 201 -1 165 19 c 4
 91 60 60 122 60 204 c 4
 60 295 91 386 168 429 c 4
 205 449 240 460 274 460 c 4
 327 460 397 428 432 397 c 5
 426 392 418 387 412 383 c 5
 398 393 378 405 347 414 c 5
 324 425 300 426 278 426 c 4
 249 426 220 417 192 400 c 4
 133 363 113 279 113 206 c 4
 113 139 137 85 192 50 c 4
 219 34 247 25 275 25 c 6
 280 25 l 6
 320 25 386 48 411 70 c 5
 413 73 l 5xe0
EndSplineSet
Validated: 5
EndChar

StartChar: Egrave
Encoding: 200 200 135
Width: 394
VWidth: 717
GlyphClass: 2
Flags: HMW
HStem: -6 37 227 37 435 37<111 328 103 329 111 111>
VStem: 60 50
LayerCount: 2
Fore
SplineSet
110 601 m 5
 171 601 l 5
 228 508 l 5
 202 509 l 5
 110 601 l 5
60 478 m 5
 87 478 l 2
 92 478 98 478 103 479 c 5
 328 479 l 5
 329 468 329 455 329 442 c 5
 111 442 l 5
 111 438 l 6
 111 384 110 328 110 274 c 6
 110 271 l 5
 333 271 l 5
 334 260 334 247 334 234 c 5
 109 234 l 5
 109 39 l 5
 328 39 l 5
 329 28 329 14 329 1 c 5
 108 1 l 5
 108 0 l 5
 61 0 l 5
 60 478 l 5
EndSplineSet
Validated: 1
EndChar

StartChar: Eacute
Encoding: 201 201 136
Width: 394
VWidth: 722
GlyphClass: 2
Flags: HMW
HStem: 0 37 233 37 441 37<111 328 103 329 111 111> 508 106<216 277>
VStem: 60 50 187 144<514 594>
LayerCount: 2
Fore
SplineSet
331 594 m 1
 216 508 l 1
 187 514 l 1
 277 613 l 1
 331 594 l 1
328 38 m 1
 329 27 329 13 329 0 c 1
 240 0 150 0 61 0 c 1
 60 477 l 1
 71 478 82 477 96 478 c 0
 173 478 251 478 328 478 c 1
 329 467 329 454 329 441 c 1
 111 441 l 1
 111 438 l 2
 111 384 110 328 110 274 c 2
 110 271 l 1
 333 271 l 1
 334 260 334 246 334 233 c 1
 109 233 l 1
 109 38 l 1
 328 38 l 1
EndSplineSet
Validated: 33
EndChar

StartChar: Ecircumflex
Encoding: 202 202 137
Width: 395
VWidth: 741
GlyphClass: 2
Flags: HMW
HStem: 25 37 258 37 466 37<110 327 102 329 110 110>
VStem: 60 50
LayerCount: 2
Fore
SplineSet
165 664 m 5
 230 664 l 5
 335 512 l 5
 281 514 l 5
 204 632 l 5
 193 632 l 5
 113 515 l 5
 62 513 l 5
 165 664 l 5
60 482 m 5
 72 483 88 482 102 484 c 5
 327 484 l 5
 328 473 329 459 329 446 c 5
 110 446 l 5
 110 389 110 333 110 276 c 5
 332 276 l 5
 333 265 333 251 333 238 c 5
 109 238 l 5
 108 43 l 5
 327 43 l 5
 328 32 329 18 329 5 c 5
 240 5 150 5 61 5 c 5
 60 482 l 5
EndSplineSet
Validated: 1
EndChar

StartChar: Edieresis
Encoding: 203 203 138
Width: 406
VWidth: 706
GlyphClass: 2
Flags: HMW
HStem: -21 37 212 37 420 37<118 336 111 337 118 118> 488 64<91 111 90 112>
VStem: 60 84<512 530 510 531> 68 50 264 83<513 532 512 533>
LayerCount: 2
Fore
SplineSet
304 574 m 4x1a
 326 574 346 562 346 542 c 4
 346 523 326 510 305 510 c 4
 283 510 264 524 264 543 c 4
 264 562 283 574 304 574 c 4x1a
100 572 m 4
 122 572 144 559 144 539 c 4
 144 520 123 508 102 508 c 4
 80 508 60 522 60 541 c 4
 60 560 79 572 100 572 c 4
68 476 m 5
 80 477 97 476 111 478 c 5
 336 478 l 5
 337 467 337 453 337 440 c 5
 118 440 l 5
 118 383 118 327 118 270 c 5
 340 270 l 5
 341 259 342 245 342 232 c 5
 117 232 l 5
 117 37 l 5
 336 37 l 5xe4
 337 26 337 12 337 -1 c 5
 248 -1 158 -1 69 -1 c 5
 68 476 l 5
EndSplineSet
Validated: 1
EndChar

StartChar: Igrave
Encoding: 204 204 139
Width: 293
VWidth: 712
GlyphClass: 2
Flags: HMW
HStem: -16 27<91 138 232 232> 415 23<100 141 100 231>
VStem: 138 49<11 11>
LayerCount: 2
Fore
SplineSet
60 592 m 5
 121 592 l 5
 178 499 l 5
 152 500 l 5
 60 592 l 5
233 25 m 5
 232 -2 l 5
 192 -1 l 5
 91 -2 l 5
 92 25 l 5
 138 25 l 5
 141 429 l 5
 100 429 l 5
 100 452 l 5
 231 452 l 5
 231 429 l 5
 186 428 l 5
 188 25 l 5
 233 25 l 5
EndSplineSet
Validated: 1
EndChar

StartChar: Iacute
Encoding: 205 205 140
Width: 310
VWidth: 717
GlyphClass: 2
Flags: HMW
HStem: -9 27<60 108 201 201> 422 23<69 110 69 200> 492 106<135 196>
VStem: 106 144<498 579> 108 49<18 18>
LayerCount: 2
Fore
SplineSet
250 579 m 1x30
 135 492 l 1
 106 498 l 1
 196 598 l 1
 250 579 l 1x30
202 18 m 1xc8
 201 -9 l 1
 161 -8 l 1
 60 -9 l 1
 61 18 l 1
 108 18 l 1
 110 422 l 1
 69 422 l 1
 69 445 l 1
 200 445 l 1
 200 423 l 1
 156 421 l 1
 157 18 l 1
 202 18 l 1xc8
EndSplineSet
Validated: 1
EndChar

StartChar: Icircumflex
Encoding: 206 206 141
Width: 394
VWidth: 737
GlyphClass: 2
Flags: HMW
HStem: 17 27<123 170 264 264> 447 23<132 172 132 262>
VStem: 170 49<44 44>
LayerCount: 2
Fore
SplineSet
163 654 m 5
 229 654 l 5
 334 503 l 5
 280 504 l 5
 203 622 l 5
 192 623 l 5
 112 505 l 5
 60 503 l 5
 163 654 l 5
265 29 m 5
 264 2 l 5
 223 3 l 5
 123 2 l 5
 124 29 l 5
 170 29 l 5
 172 432 l 5
 132 432 l 5
 132 455 l 5
 262 455 l 5
 262 433 l 5
 218 432 l 5
 219 29 l 5
 265 29 l 5
EndSplineSet
Validated: 1
EndChar

StartChar: Idieresis
Encoding: 207 207 142
Width: 406
VWidth: 701
GlyphClass: 2
Flags: HMW
HStem: -30 27<129 176 270 270> 401 23<138 178 138 268> 471 64<91 112 90 112>
VStem: 60 84<494 512 493 514> 176 49<-3 -3> 264 83<496 515 495 515>
LayerCount: 2
Fore
SplineSet
304 565 m 4
 326 565 346 553 346 533 c 4
 346 514 326 501 305 501 c 4
 283 501 264 515 264 534 c 4
 264 553 283 565 304 565 c 4
100 563 m 4
 122 563 144 550 144 530 c 4
 144 511 123 499 102 499 c 4
 80 499 60 513 60 532 c 4
 60 551 79 563 100 563 c 4
271 25 m 5
 270 -2 l 5
 229 -1 l 5
 129 -2 l 5
 130 25 l 5
 176 25 l 5
 178 429 l 5
 138 429 l 5
 138 452 l 5
 268 452 l 5
 268 429 l 5
 224 428 l 5
 225 25 l 5
 271 25 l 5
EndSplineSet
Validated: 1
EndChar

StartChar: Ntilde
Encoding: 209 209 143
Width: 501
VWidth: 711
GlyphClass: 2
Flags: HMW
HStem: -17 13G<67 67 67 112> 491 31<321 354 321 365> 544 28<159 181>
VStem: 65 45 380 48 413 28<544 568>
LayerCount: 2
Fore
SplineSet
60 520 m 1xf4
 104 553 138 572 171 572 c 0
 200 572 230 559 274 536 c 0
 290 528 312 522 329 522 c 0
 378 522 408 558 413 568 c 1
 419 568 l 2
 431 568 441 557 441 551 c 0
 441 535 399 491 331 491 c 0
 304 491 283 496 257 510 c 0
 215 532 192 544 170 544 c 0
 147 544 126 530 85 499 c 1
 80 494 l 1
 60 520 l 1xf4
67 -17 m 1
 66 143 66 302 65 460 c 1
 113 460 l 1
 115 458 l 1
 153 406 216 305 247 261 c 0
 281 212 336 132 379 74 c 1
 389 60 l 1
 388 77 l 1
 384 118 382 168 380 214 c 1
 380 462 l 1
 425 461 l 1
 425 458 l 2
 425 404 428 319 428 266 c 0
 428 265 428 263 428 260 c 0xf8
 427 187 427 23 427 -12 c 2
 427 -15 l 1
 394 -15 l 1
 392 -13 l 1
 307 100 203 251 119 365 c 1
 110 376 l 1
 110 363 l 1
 109 322 109 280 109 251 c 2
 109 241 l 2
 109 168 112 63 112 -10 c 2
 112 -17 l 1
 67 -17 l 1
EndSplineSet
Validated: 1
EndChar

StartChar: Ograve
Encoding: 210 210 144
Width: 574
VWidth: 711
GlyphClass: 2
Flags: HMW
HStem: -19 43<269 297> 415 40<276 305 269 306>
VStem: 60 55<178 252 178 259> 466 48<182 256>
LayerCount: 2
Fore
SplineSet
181 576 m 1
 243 576 l 1
 300 483 l 1
 274 485 l 1
 181 576 l 1
284 23 m 0
 316 23 348 35 379 55 c 0
 437 92 466 145 466 219 c 0
 466 292 437 348 379 386 c 0
 350 405 321 415 291 415 c 0
 261 415 231 405 202 386 c 0
 142 347 115 290 115 213 c 0
 115 142 141 88 197 51 c 0
 226 33 255 23 284 23 c 0
60 210 m 0
 60 308 97 375 177 422 c 0
 215 445 251 455 287 455 c 0
 323 455 359 444 397 421 c 0
 474 376 514 310 514 218 c 0
 514 126 478 64 399 18 c 0
 357 -7 316 -19 277 -19 c 0
 242 -19 207 -9 170 14 c 0
 94 58 60 122 60 210 c 0
EndSplineSet
Validated: 1
EndChar

StartChar: Oacute
Encoding: 211 211 145
Width: 574
VWidth: 716
GlyphClass: 2
Flags: HMW
HStem: -13 43<269 297> 422 40<276 305 269 306> 491 106<287 348>
VStem: 60 55<185 259 185 266> 258 144<497 578> 466 48<189 263>
LayerCount: 2
Fore
SplineSet
402 578 m 1
 287 491 l 1
 258 497 l 1
 348 597 l 1
 402 578 l 1
284 30 m 0
 316 30 348 42 379 62 c 0
 437 99 466 152 466 226 c 0
 466 299 437 354 379 392 c 0
 350 411 321 422 291 422 c 0
 261 422 231 412 202 393 c 0
 142 354 115 297 115 220 c 0
 115 149 141 94 197 57 c 0
 226 39 255 30 284 30 c 0
60 217 m 0
 60 315 97 381 177 428 c 0
 215 451 251 462 287 462 c 0
 323 462 359 451 397 428 c 0
 474 383 514 317 514 225 c 0
 514 133 478 71 399 25 c 0
 357 0 316 -13 277 -13 c 0
 242 -13 207 -3 170 20 c 0
 94 64 60 129 60 217 c 0
EndSplineSet
Validated: 1
EndChar

StartChar: Ocircumflex
Encoding: 212 212 146
Width: 574
VWidth: 736
GlyphClass: 2
Flags: HMW
HStem: 12 43<269 297> 447 40<276 305 269 306>
VStem: 60 55<210 284 210 291> 466 48<214 288>
LayerCount: 2
Fore
SplineSet
253 657 m 5
 319 657 l 5
 424 505 l 5
 370 506 l 5
 293 624 l 5
 282 625 l 5
 202 507 l 5
 150 505 l 5
 253 657 l 5
284 44 m 4
 316 44 348 56 379 76 c 4
 437 113 466 166 466 240 c 4
 466 313 437 368 379 406 c 4
 350 425 321 436 291 436 c 4
 261 436 231 426 202 407 c 4
 142 368 115 311 115 234 c 4
 115 163 141 109 197 72 c 4
 226 54 255 44 284 44 c 4
60 231 m 4
 60 329 97 395 177 442 c 4
 215 465 251 476 287 476 c 4
 323 476 359 465 397 442 c 4
 474 397 514 331 514 239 c 4
 514 147 478 85 399 39 c 4
 357 14 316 1 277 1 c 4
 242 1 207 11 170 34 c 4
 94 78 60 143 60 231 c 4
EndSplineSet
Validated: 1
EndChar

StartChar: Otilde
Encoding: 213 213 147
Width: 574
VWidth: 706
GlyphClass: 2
Flags: HMW
HStem: -26 43<269 297> 408 40<276 305 269 306> 477 31<357 390 357 401> 530 28<195 217>
VStem: 60 55<171 245 171 252> 450 28<530 554> 466 48<175 249>
LayerCount: 2
Fore
SplineSet
207 554 m 4xfc
 185 554 154 536 116 505 c 5
 96 531 l 5
 100 533 l 5
 144 567 175 582 207 582 c 4
 236 582 266 570 310 547 c 4
 326 539 349 532 366 532 c 4
 415 532 445 568 450 578 c 5
 455 578 l 6
 467 578 477 568 477 562 c 4
 477 546 435 501 367 501 c 4
 340 501 320 506 294 520 c 4
 252 542 229 554 207 554 c 4xfc
284 40 m 4
 316 40 348 52 379 72 c 4
 437 109 466 163 466 237 c 4xfa
 466 310 437 365 379 403 c 4
 350 422 321 432 291 432 c 4
 261 432 231 422 202 403 c 4
 142 364 115 308 115 231 c 4
 115 160 141 105 197 68 c 4
 226 50 255 40 284 40 c 4
60 228 m 4
 60 326 97 392 177 439 c 4
 215 462 251 472 287 472 c 4
 323 472 359 461 397 438 c 4
 474 393 514 327 514 235 c 4
 514 143 478 82 399 36 c 4
 357 11 316 -2 277 -2 c 4
 242 -2 207 8 170 31 c 4
 94 75 60 140 60 228 c 4
EndSplineSet
Validated: 1
EndChar

StartChar: Odieresis
Encoding: 214 214 148
Width: 574
VWidth: 700
GlyphClass: 2
Flags: HMW
HStem: -34 43<269 297> 400 40<276 305 269 306> 469 64<174 196 174 196>
VStem: 60 55<163 237 163 244> 144 84<493 511 491 512> 348 83<494 513 493 514> 466 48<167 241>
LayerCount: 2
Fore
SplineSet
388 565 m 4
 410 565 430 553 430 533 c 4
 430 514 410 501 389 501 c 4
 367 501 348 515 348 534 c 4
 348 553 367 565 388 565 c 4
184 563 m 4
 206 563 228 550 228 530 c 4
 228 511 207 499 186 499 c 4
 164 499 144 513 144 532 c 4
 144 551 163 563 184 563 c 4
284 38 m 4
 316 38 348 50 379 70 c 4
 437 107 466 161 466 235 c 4
 466 308 437 363 379 401 c 4
 350 420 321 430 291 430 c 4
 261 430 231 420 202 401 c 4
 142 362 115 306 115 229 c 4
 115 158 141 103 197 66 c 4
 226 48 255 38 284 38 c 4
60 226 m 4
 60 324 97 390 177 437 c 4
 215 460 251 470 287 470 c 4
 323 470 359 459 397 436 c 4
 474 391 514 325 514 233 c 4
 514 141 478 80 399 34 c 4
 357 9 316 -4 277 -4 c 4
 242 -4 207 6 170 29 c 4
 94 73 60 138 60 226 c 4
EndSplineSet
Validated: 1
EndChar

StartChar: multiply
Encoding: 215 215 149
Width: 442
VWidth: 739
GlyphClass: 2
Flags: W
VStem: 60 322
LayerCount: 2
Fore
SplineSet
382 197 m 1
 343 170 l 1
 222 313 l 1
 100 170 l 1
 60 200 l 1
 189 350 l 1
 67 495 l 1
 100 527 l 1
 220 385 l 1
 343 528 l 1
 382 497 l 1
 253 348 l 1
 382 197 l 1
EndSplineSet
Validated: 1
EndChar

StartChar: Ugrave
Encoding: 217 217 150
Width: 509
VWidth: 726
GlyphClass: 2
Flags: HMW
HStem: -13 47
VStem: 62 50 395 44<425 451> 396 53<146 224 148 224>
LayerCount: 2
Fore
SplineSet
157 586 m 1x00
 218 586 l 1
 275 493 l 1
 249 494 l 1
 157 586 l 1x00
154 14 m 0xd0
 92 54 69 112 63 190 c 2
 62 203 l 1
 61 285 61 369 60 450 c 1
 111 452 l 1
 112 398 111 230 112 199 c 0
 115 136 139 91 185 59 c 0
 208 43 233 33 256 33 c 0
 279 33 319 34 344 53 c 0
 375 76 386 112 396 146 c 1
 396 148 l 1xd0
 398 173 398 248 398 297 c 0
 398 337 397 395 395 425 c 1
 392 451 l 1
 439 451 l 1xe0
 441 363 449 270 449 176 c 0
 449 156 448 136 447 116 c 1
 424 38 361 -13 281 -13 c 0
 274 -13 185 -7 154 14 c 0xd0
EndSplineSet
Validated: 33
EndChar

StartChar: Uacute
Encoding: 218 218 151
Width: 509
VWidth: 730
GlyphClass: 2
Flags: HMW
HStem: -8 47 494 106<252 313>
VStem: 62 50 223 144<500 580> 395 44<430 456> 396 53<151 228 152 228>
LayerCount: 2
Fore
SplineSet
367 580 m 1x50
 252 494 l 1
 223 500 l 1
 313 599 l 1
 367 580 l 1x50
154 19 m 0xa4
 92 59 69 117 63 195 c 2
 62 208 l 1
 61 290 61 374 60 455 c 1
 111 457 l 1
 112 403 111 234 112 203 c 0
 115 140 139 96 185 64 c 0
 208 48 233 38 256 38 c 0
 279 38 319 39 344 58 c 0
 375 81 386 117 396 151 c 1
 396 152 l 1xa4
 398 177 398 253 398 302 c 0
 398 342 397 400 395 430 c 1
 392 455 l 1
 439 456 l 1xa8
 441 368 449 275 449 181 c 0
 449 161 448 141 447 121 c 1
 424 43 361 -8 281 -8 c 0
 274 -8 185 -2 154 19 c 0xa4
EndSplineSet
Validated: 33
EndChar

StartChar: Ucircumflex
Encoding: 219 219 152
Width: 509
VWidth: 733
GlyphClass: 2
Flags: HMW
HStem: 1 47
VStem: 62 50 395 44<439 465> 396 53<160 238 162 238>
LayerCount: 2
Fore
SplineSet
213 664 m 1x00
 278 664 l 1
 383 512 l 1
 329 513 l 1
 252 632 l 1
 241 632 l 1
 161 515 l 1
 110 513 l 1
 213 664 l 1x00
154 28 m 0xd0
 92 68 69 126 63 204 c 2
 62 217 l 1
 61 299 61 383 60 464 c 1
 111 467 l 1
 112 413 111 244 112 213 c 0
 115 150 139 105 185 73 c 0
 208 57 233 47 256 47 c 0
 279 47 319 48 344 67 c 0
 375 90 386 126 396 160 c 1
 396 162 l 1xd0
 398 187 398 262 398 311 c 0
 398 351 397 409 395 439 c 1
 392 465 l 1
 439 465 l 1xe0
 441 377 449 285 449 191 c 0
 449 171 448 151 447 131 c 1
 424 53 361 1 281 1 c 0
 274 1 185 7 154 28 c 0xd0
EndSplineSet
Validated: 33
EndChar

StartChar: Udieresis
Encoding: 220 220 153
Width: 509
VWidth: 715
GlyphClass: 2
Flags: HMW
HStem: -27 47 479 64<143 164 142 165>
VStem: 62 50 112 84<503 521 501 522> 316 83<504 523 503 524> 395 44<411 437> 396 53<132 210 134 210>
LayerCount: 2
Fore
SplineSet
356 545 m 0x58
 378 545 399 533 399 513 c 0
 399 494 378 481 357 481 c 0
 335 481 316 495 316 514 c 0
 316 533 335 545 356 545 c 0x58
153 543 m 0
 175 543 196 530 196 510 c 0
 196 491 175 479 154 479 c 0
 132 479 112 493 112 512 c 0
 112 531 132 543 153 543 c 0
154 0 m 0xa2
 92 40 69 98 63 176 c 2
 62 189 l 1
 61 271 61 355 60 436 c 1
 111 438 l 1
 112 384 111 216 112 185 c 0
 115 122 139 77 185 45 c 0
 208 29 233 19 256 19 c 0
 279 19 319 20 344 39 c 0
 375 62 386 98 396 132 c 1
 396 134 l 1xa2
 398 159 398 234 398 283 c 0
 398 323 397 381 395 411 c 1
 392 437 l 1
 439 437 l 1xa4
 441 349 449 256 449 162 c 0
 449 142 448 122 447 102 c 1
 424 24 361 -27 281 -27 c 0
 274 -27 185 -21 154 0 c 0xa2
EndSplineSet
Validated: 33
EndChar

StartChar: Yacute
Encoding: 221 221 154
Width: 483
VWidth: 720
GlyphClass: 2
Flags: HMW
HStem: -4 13G<215 264 215 215> 456 13G 498 106<239 301>
VStem: 211 144<504 584> 215 49<-4 -4>
LayerCount: 2
Fore
SplineSet
355 584 m 1x30
 239 498 l 1
 211 504 l 1
 301 604 l 1
 355 584 l 1x30
263 238 m 1xc8
 264 -4 l 1
 215 -4 l 1
 214 237 l 1
 60 466 l 1
 113 466 l 1
 238 289 l 1
 365 467 l 1
 423 467 l 1
 263 238 l 1xc8
EndSplineSet
Validated: 1
EndChar

StartChar: agrave
Encoding: 224 224 155
Width: 421
VWidth: 728
GlyphClass: 2
Flags: HMW
HStem: 1 41<204 222 204 228> 330 43<208 227> 358 12G<325 325>
VStem: 60 42<158 213 158 222> 325 37<-1 55 55 55 325 369 -2 370 -2 370>
LayerCount: 2
Fore
SplineSet
222 374 m 0xd8
 257 374 302 348 325 325 c 1
 325 370 l 1
 361 369 l 1
 361 -2 l 1
 325 -1 l 1
 325 55 l 1xb8
 300 30 255 1 215 1 c 0
 190 1 164 10 138 28 c 0
 85 63 60 115 60 186 c 0
 60 257 85 309 138 344 c 0
 166 363 194 374 222 374 c 0xd8
218 330 m 0
 199 330 179 322 159 307 c 0
 121 279 102 240 102 185 c 0
 102 130 120 91 158 63 c 0
 176 50 195 42 213 42 c 0
 231 42 249 49 267 62 c 0
 307 90 324 131 324 189 c 0
 324 242 309 283 271 310 c 0
 252 324 235 330 218 330 c 0
116 526 m 1
 177 526 l 1
 234 410 l 1
 208 411 l 1
 116 526 l 1
EndSplineSet
Validated: 1
EndChar

StartChar: aacute
Encoding: 225 225 156
Width: 421
VWidth: 734
GlyphClass: 2
Flags: HMW
HStem: 6 41<204 222 204 228> 336 43<208 227> 363 12G<325 325> 415 132<222 283>
VStem: 60 42<163 218 163 227> 193 144<423 523> 325 37<4 60 60 60 330 374 3 375 3 375>
LayerCount: 2
Fore
SplineSet
337 523 m 1x14
 222 415 l 1
 193 423 l 1
 283 547 l 1
 337 523 l 1x14
222 379 m 0xca
 257 379 302 353 325 330 c 1
 325 375 l 1
 361 374 l 1
 361 3 l 1
 325 4 l 1
 325 60 l 1xaa
 300 35 254 6 215 6 c 0
 190 6 164 15 138 33 c 0
 85 68 60 120 60 191 c 0
 60 262 85 314 138 349 c 0
 166 368 194 379 222 379 c 0xca
218 336 m 0
 199 336 179 327 159 312 c 0
 121 284 102 245 102 190 c 0
 102 135 120 96 158 68 c 0
 176 55 195 48 213 48 c 0
 231 48 249 54 267 67 c 0
 307 95 324 137 324 195 c 0
 324 248 309 288 271 315 c 0
 252 329 235 336 218 336 c 0
EndSplineSet
Validated: 1
EndChar

StartChar: acircumflex
Encoding: 226 226 157
Width: 421
VWidth: 753
GlyphClass: 2
Flags: HMW
HStem: 26 41<204 222 204 228> 355 43<208 227> 383 12G<325 325>
VStem: 60 42<182 237 182 246> 325 37<24 80 80 80 350 393 23 395 23 395>
LayerCount: 2
Fore
SplineSet
222 398 m 0xd8
 257 398 302 373 325 350 c 1
 325 395 l 1
 361 393 l 1
 361 23 l 1
 325 24 l 1
 325 80 l 1xb8
 300 55 255 26 215 26 c 0
 190 26 164 35 138 53 c 0
 85 88 60 139 60 210 c 0
 60 281 85 333 138 368 c 0
 166 387 194 398 222 398 c 0xd8
218 355 m 0
 199 355 179 347 159 332 c 0
 121 304 102 265 102 210 c 0
 102 155 120 115 158 87 c 0
 176 74 195 67 213 67 c 0
 231 67 249 74 267 87 c 0
 307 115 324 156 324 214 c 0
 324 267 309 308 271 335 c 0
 252 349 235 355 218 355 c 0
188 624 m 1
 253 624 l 1
 358 434 l 1
 304 436 l 1
 228 584 l 1
 216 585 l 1
 136 437 l 1
 85 435 l 1
 188 624 l 1
EndSplineSet
Validated: 1
EndChar

StartChar: atilde
Encoding: 227 227 158
Width: 501
VWidth: 724
GlyphClass: 2
Flags: HMW
HStem: -4 41<233 251 233 257> 326 43<238 256> 353 12G<354 354> 405 39<321 354 321 364> 471 35<159 181>
VStem: 89 42<153 208 153 217> 354 37<-6 50 50 50 320 364 -7 365 -7 365> 413 28<471 501>
LayerCount: 2
Fore
SplineSet
170 471 m 0x9f
 148 471 118 448 80 410 c 1
 60 442 l 1
 64 445 l 1
 108 487 139 507 171 507 c 0
 200 507 230 491 274 462 c 0
 290 452 312 444 329 444 c 0
 378 444 408 488 413 501 c 1
 419 501 l 2
 431 501 441 488 441 481 c 0
 441 461 399 405 331 405 c 0
 304 405 283 412 257 429 c 0
 215 457 192 471 170 471 c 0x9f
251 369 m 0xdf
 286 369 331 343 354 320 c 1
 354 365 l 1xbf
 391 364 l 1
 391 -7 l 1
 354 -6 l 1
 354 50 l 1
 329 25 283 -4 244 -4 c 0
 219 -4 193 5 167 23 c 0
 114 58 89 110 89 181 c 0
 89 252 114 304 167 339 c 0
 195 358 223 369 251 369 c 0xdf
247 326 m 0xdf
 228 326 208 317 188 302 c 0
 150 274 131 235 131 180 c 0
 131 125 149 86 187 58 c 0
 205 45 224 38 242 38 c 0
 260 38 278 44 296 57 c 0
 336 85 353 127 353 185 c 0
 353 238 339 278 301 305 c 0
 282 319 264 326 247 326 c 0xdf
EndSplineSet
Validated: 1
EndChar

StartChar: adieresis
Encoding: 228 228 159
Width: 425
VWidth: 717
GlyphClass: 2
Flags: HMW
HStem: -10 41<204 222 204 228> 319 43<209 227> 347 12G<325 325> 398 80<109 130 109 131>
VStem: 60 42<147 202 147 210> 78 84<428 451 426 452> 282 83<430 453 428 454> 325 37<-12 44 44 44 314 358 -13 359 -13 359>
LayerCount: 2
Fore
SplineSet
323 481 m 0x16
 345 481 365 465 365 440 c 0
 365 416 345 401 324 401 c 0
 302 401 282 418 282 442 c 0
 282 466 302 481 323 481 c 0x16
119 479 m 0
 141 479 162 463 162 438 c 0
 162 414 141 398 120 398 c 0
 98 398 78 416 78 440 c 0
 78 464 98 479 119 479 c 0
222 362 m 0xc9
 257 362 302 337 325 314 c 1
 325 359 l 1
 362 358 l 1
 362 -13 l 1
 325 -12 l 1
 325 44 l 1xa9
 300 19 255 -10 215 -10 c 0
 190 -10 164 -1 138 17 c 0
 85 52 60 104 60 175 c 0
 60 246 85 297 138 332 c 0
 166 351 194 362 222 362 c 0xc9
218 319 m 0
 199 319 179 311 159 296 c 0
 121 268 102 229 102 174 c 0
 102 119 120 80 158 52 c 0
 176 39 195 31 213 31 c 0
 231 31 249 38 267 51 c 0
 307 79 324 120 324 178 c 0
 324 231 310 272 272 299 c 0
 253 313 235 319 218 319 c 0
EndSplineSet
Validated: 1
EndChar

StartChar: aring
Encoding: 229 229 160
Width: 421
VWidth: 743
GlyphClass: 2
Flags: HMW
HStem: 16 41<204 222 204 228> 345 43<208 227> 373 12G<325 325> 425 32<217 224 217 225> 555 31<220 226>
VStem: 60 42<173 228 173 236> 151 33<495 515 495 519> 261 31<496 516> 325 37<14 70 70 70 340 384 13 385 13 385>
LayerCount: 2
Fore
SplineSet
261 497 m 4x9f80
 261 519 246 546 223 546 c 4
 217 546 211 544 204 539 c 4
 190 529 184 516 184 495 c 4
 184 476 189 463 202 454 c 4
 209 449 214 447 220 447 c 4
 227 447 234 451 241 456 c 4
 255 466 261 477 261 497 c 4x9f80
151 495 m 4
 151 536 177 577 222 577 c 4
 234 577 246 573 258 565 c 4
 281 550 292 527 292 497 c 4
 292 456 263 416 219 416 c 4
 176 416 151 456 151 495 c 4
222 380 m 4
 257 380 302 354 325 331 c 5
 325 376 l 5
 361 375 l 5
 361 4 l 5
 325 5 l 5
 325 61 l 5
 300 36 255 7 215 7 c 4
 190 7 164 16 138 34 c 4
 85 69 60 121 60 192 c 4
 60 263 85 315 138 350 c 4
 166 369 194 380 222 380 c 4
218 336 m 4
 199 336 179 328 159 313 c 4
 121 285 102 246 102 191 c 4
 102 136 120 97 158 69 c 4
 176 56 195 48 213 48 c 4
 231 48 249 55 267 68 c 4
 307 96 324 137 324 195 c 4
 324 248 309 289 271 316 c 4
 252 330 235 336 218 336 c 4
EndSplineSet
Validated: 1
EndChar

StartChar: ccedilla
Encoding: 231 231 161
Width: 395
VWidth: 697
GlyphClass: 2
Flags: HMW
HStem: -33 43 298 41<209 225>
VStem: 60 46<124 180 124 186> 154 62<-112 -110> 167 46 250 85<244 268>
LayerCount: 2
Fore
SplineSet
275 54 m 1xf4
 252 40 233 30 212 30 c 0
 195 30 177 37 159 50 c 0
 122 77 107 118 107 171 c 0
 107 229 124 269 164 297 c 0
 182 311 200 318 218 318 c 0
 233 318 248 312 264 303 c 1
 255 295 250 286 250 272 c 0
 250 256 255 245 271 237 c 0
 279 233 286 231 293 231 c 0
 301 231 310 234 318 238 c 0
 332 246 334 256 334 273 c 0
 334 278 335 281 335 285 c 0
 335 291 333 297 329 301 c 0
 307 330 255 359 215 359 c 0
 190 359 165 350 139 333 c 0
 84 296 60 243 60 168 c 0
 60 100 82 48 134 13 c 0
 153 0 172 -9 191 -12 c 1
 156 -77 l 1
 157 -77 l 1
 155 -81 154 -87 154 -93 c 0xf4
 154 -100 155 -105 160 -111 c 1
 165 -127 167 -140 167 -154 c 0
 167 -182 156 -206 140 -232 c 1
 153 -252 l 1
 188 -211 212 -165 213 -112 c 0xec
 215 -107 216 -98 216 -92 c 2
 216 -86 l 1
 215 -81 210 -69 201 -64 c 1
 227 -12 l 1
 248 -8 270 2 292 16 c 0
 294 18 296 22 296 26 c 0
 296 39 285 53 275 54 c 1xf4
EndSplineSet
Validated: 9
EndChar

StartChar: egrave
Encoding: 232 232 162
Width: 430
VWidth: 727
GlyphClass: 2
Flags: HMW
HStem: -5 43<223 242 223 242> 162 49<108 327 60 107> 328 41<208 226>
VStem: 61 46<211 211>
LayerCount: 2
Fore
SplineSet
109 522 m 1
 171 522 l 1
 228 405 l 1
 202 407 l 1
 109 522 l 1
370 187 m 0
 370 177 371 170 370 162 c 1
 107 162 l 1
 111 118 127 84 159 60 c 0
 178 46 214 39 232 39 c 0
 251 39 272 47 292 61 c 0
 294 62 298 64 300 64 c 0
 310 64 322 52 322 40 c 0
 322 35 319 29 312 25 c 0
 283 6 256 -5 228 -5 c 0
 203 -5 158 6 133 23 c 0
 86 55 64 101 60 160 c 1
 60 177 60 194 60 211 c 1
 61 211 l 1
 68 269 92 312 138 343 c 0
 164 360 189 369 215 369 c 0
 241 369 266 360 292 342 c 0
 338 311 363 269 369 213 c 1
 369 208 l 1
 370 204 370 196 370 187 c 0
108 211 m 1
 327 211 l 1
 321 254 304 284 272 307 c 0
 253 321 235 328 217 328 c 0
 199 328 182 321 163 307 c 0
 131 284 113 254 108 211 c 1
EndSplineSet
Validated: 1
EndChar

StartChar: eacute
Encoding: 233 233 163
Width: 430
VWidth: 732
GlyphClass: 2
Flags: HMW
HStem: 1 43<223 242 223 242> 167 49<108 327 60 107> 333 41<208 226> 410 132<215 276>
VStem: 61 46<216 216> 186 144<418 519>
LayerCount: 2
Fore
SplineSet
330 519 m 1
 215 410 l 1
 186 418 l 1
 276 542 l 1
 330 519 l 1
370 193 m 0
 370 183 371 175 370 167 c 1
 107 167 l 1
 111 123 127 89 159 65 c 0
 178 51 214 44 232 44 c 0
 251 44 272 53 292 67 c 0
 294 68 298 69 300 69 c 0
 310 69 322 58 322 46 c 0
 322 41 319 35 312 31 c 0
 283 12 256 1 228 1 c 0
 203 1 158 11 133 28 c 0
 86 60 64 106 60 165 c 1
 60 182 60 199 60 216 c 1
 61 216 l 1
 68 274 92 317 138 348 c 0
 164 365 189 374 215 374 c 0
 241 374 266 365 292 347 c 0
 338 316 363 274 369 218 c 1
 369 214 l 1
 370 210 370 202 370 193 c 0
108 216 m 1
 327 216 l 1
 321 259 304 289 272 312 c 0
 253 326 235 333 217 333 c 0
 199 333 182 327 163 313 c 0
 131 290 113 259 108 216 c 1
EndSplineSet
Validated: 1
EndChar

StartChar: ecircumflex
Encoding: 234 234 164
Width: 430
VWidth: 712
GlyphClass: 2
Flags: HMW
HStem: -20 43<223 242 223 242> 146 49<108 327 60 107> 312 41<208 226>
VStem: 61 46<195 195>
LayerCount: 2
Fore
SplineSet
181 590 m 5
 247 590 l 5
 352 400 l 5
 298 402 l 5
 221 549 l 5
 210 550 l 5
 130 403 l 5
 78 401 l 5
 181 590 l 5
370 182 m 4
 370 172 371 164 370 156 c 5
 107 156 l 5
 111 112 127 78 159 54 c 4
 178 40 214 33 232 33 c 4
 251 33 272 42 292 56 c 4
 294 57 298 58 300 58 c 4
 310 58 322 47 322 35 c 4
 322 30 319 24 312 20 c 4
 283 1 256 -10 228 -10 c 4
 203 -10 158 1 133 18 c 4
 86 50 64 95 60 154 c 5
 60 171 60 188 60 205 c 5
 61 205 l 5
 68 263 92 306 138 337 c 4
 164 354 189 364 215 364 c 4
 241 364 266 355 292 337 c 4
 338 306 363 263 369 207 c 5
 369 203 l 5
 370 199 370 191 370 182 c 4
108 205 m 5
 327 205 l 5
 321 248 304 278 272 301 c 4
 253 315 235 322 217 322 c 4
 199 322 182 316 163 302 c 4
 131 279 113 248 108 205 c 5
EndSplineSet
Validated: 1
EndChar

StartChar: edieresis
Encoding: 235 235 165
Width: 430
VWidth: 716
GlyphClass: 2
Flags: HMW
HStem: -16 43<223 242 223 242> 150 49<108 327 60 107> 317 41<208 226> 394 80<102 124 102 124>
VStem: 61 46<200 200> 72 84<423 446 422 447> 276 83<426 449 424 450>
LayerCount: 2
Fore
SplineSet
316 487 m 4x16
 338 487 358 471 358 446 c 4
 358 422 338 406 317 406 c 4
 295 406 276 424 276 448 c 4
 276 472 295 487 316 487 c 4x16
112 484 m 4
 134 484 156 469 156 444 c 4
 156 420 135 404 114 404 c 4
 92 404 72 421 72 445 c 4
 72 469 91 484 112 484 c 4
370 186 m 4xe8
 370 176 371 168 370 160 c 5
 107 160 l 5
 111 116 127 82 159 58 c 4
 178 44 214 37 232 37 c 4
 251 37 272 46 292 60 c 4
 294 61 298 63 300 63 c 4
 310 63 322 51 322 39 c 4
 322 34 319 28 312 24 c 4
 283 5 256 -6 228 -6 c 4
 203 -6 158 5 133 22 c 4
 86 54 64 100 60 159 c 5
 60 176 60 193 60 210 c 5
 61 210 l 5
 68 268 92 311 138 342 c 4
 164 359 189 368 215 368 c 4
 241 368 266 359 292 341 c 4
 338 310 363 267 369 211 c 5
 369 207 l 5
 370 203 370 195 370 186 c 4xe8
108 210 m 5
 327 210 l 5
 321 253 304 283 272 306 c 4
 253 320 235 327 217 327 c 4
 199 327 182 320 163 306 c 4
 131 283 113 253 108 210 c 5
EndSplineSet
Validated: 1
EndChar

StartChar: igrave
Encoding: 236 236 166
Width: 248
VWidth: 732
GlyphClass: 2
Flags: HMW
HStem: 13 13G<143 186 143 143> 362 12G<143 143>
VStem: 143 43<13 374>
LayerCount: 2
Fore
SplineSet
60 527 m 1
 121 527 l 1
 178 410 l 1
 152 412 l 1
 60 527 l 1
188 373 m 1
 186 13 l 1
 143 13 l 1
 143 374 l 1
 188 373 l 1
EndSplineSet
Validated: 1
EndChar

StartChar: iacute
Encoding: 237 237 167
Width: 264
VWidth: 737
GlyphClass: 2
Flags: HMW
HStem: 18 13G<67 110 67 67> 368 12G<67 67> 416 132<89 150>
VStem: 60 144<423 524> 67 43<18 380>
LayerCount: 2
Fore
SplineSet
204 524 m 1x30
 89 416 l 1
 60 423 l 1
 150 548 l 1
 204 524 l 1x30
112 378 m 1xc8
 110 18 l 1
 67 18 l 1
 67 380 l 1
 112 378 l 1xc8
EndSplineSet
Validated: 1
EndChar

StartChar: icircumflex
Encoding: 238 238 168
Width: 394
VWidth: 716
GlyphClass: 2
Flags: HMW
HStem: -2 13G<175 219 175 175> 347 12G<175 175>
VStem: 175 43<-2 359>
LayerCount: 2
Fore
SplineSet
163 585 m 1
 229 585 l 1
 334 395 l 1
 280 397 l 1
 203 544 l 1
 192 546 l 1
 112 398 l 1
 60 396 l 1
 163 585 l 1
220 358 m 1
 219 -2 l 1
 175 -2 l 1
 175 359 l 1
 220 358 l 1
EndSplineSet
Validated: 1
EndChar

StartChar: idieresis
Encoding: 239 239 169
Width: 406
VWidth: 720
GlyphClass: 2
Flags: HMW
HStem: 2 13G<181 225 181 181> 351 12G<181 181> 399 80<91 111 90 112>
VStem: 60 84<429 451 427 453> 181 43<2 363> 264 83<431 454 429 455>
LayerCount: 2
Fore
SplineSet
304 482 m 0
 326 482 346 466 346 441 c 0
 346 417 326 402 305 402 c 0
 283 402 264 419 264 443 c 0
 264 467 283 482 304 482 c 0
100 480 m 0
 122 480 144 464 144 439 c 0
 144 415 123 399 102 399 c 0
 80 399 60 417 60 441 c 0
 60 465 79 480 100 480 c 0
226 362 m 1
 225 2 l 1
 181 2 l 1
 181 363 l 1
 226 362 l 1
EndSplineSet
Validated: 1
EndChar

StartChar: ntilde
Encoding: 241 241 170
Width: 501
VWidth: 725
GlyphClass: 2
Flags: HMW
HStem: 5 13G<92 138 92 92 407 407> 320 48<241 260> 404 39<321 354 321 364> 470 35<159 181>
VStem: 92 46<5 35 5 366> 92 55<326 366 326 366 326 366> 361 48<191 191> 413 28<470 500>
LayerCount: 2
Fore
SplineSet
413 500 m 1x31
 419 500 l 2
 431 500 441 487 441 480 c 0
 441 460 399 404 331 404 c 0
 304 404 283 411 257 428 c 0
 215 456 192 470 170 470 c 0
 147 470 126 452 85 414 c 1
 80 408 l 1
 60 441 l 1
 64 444 l 1
 108 486 139 506 171 506 c 0
 200 506 230 490 274 461 c 0
 290 451 312 443 329 443 c 0
 378 443 408 487 413 500 c 1x31
359 3 m 1xc6
 359 31 361 155 361 171 c 2
 361 191 l 1
 359 240 343 275 306 300 c 0
 287 313 269 320 250 320 c 0
 231 320 213 313 194 300 c 0
 169 283 148 262 140 236 c 1
 138 208 137 138 137 86 c 0
 137 64 137 46 138 35 c 1
 138 5 l 1
 92 5 l 1xca
 92 366 l 1
 146 366 l 1
 146 326 l 1
 153 331 159 336 166 341 c 0
 194 358 221 368 248 368 c 0
 275 368 302 359 330 341 c 0
 382 307 407 258 409 191 c 1
 408 129 408 66 407 5 c 1
 359 3 l 1xc6
EndSplineSet
Validated: 1
EndChar

StartChar: ograve
Encoding: 242 242 171
Width: 444
VWidth: 727
GlyphClass: 2
Flags: HMW
HStem: -3 50<210 229 210 230> 322 48<215 234>
VStem: 60 53<156 209 156 216> 335 49<159 212>
LayerCount: 2
Fore
SplineSet
117 522 m 1
 178 522 l 1
 235 406 l 1
 209 407 l 1
 117 522 l 1
280 69 m 0
 318 95 335 132 335 185 c 0
 335 237 318 276 280 302 c 0
 261 315 243 322 224 322 c 0
 205 322 188 315 169 302 c 0
 129 275 113 236 113 181 c 0
 113 130 127 92 164 66 c 0
 183 53 201 47 219 47 c 0
 239 47 260 55 280 69 c 0
140 343 m 0
 168 360 195 370 222 370 c 0
 249 370 276 361 304 343 c 0
 358 308 384 256 384 185 c 0
 384 114 359 62 304 27 c 0
 274 8 245 -3 215 -3 c 0
 189 -3 161 6 134 23 c 0
 81 58 60 111 60 179 c 0
 60 253 84 306 140 343 c 0
EndSplineSet
Validated: 1
EndChar

StartChar: oacute
Encoding: 243 243 172
Width: 444
VWidth: 733
GlyphClass: 2
Flags: HMW
HStem: 2 50<210 229 210 230> 327 48<215 234> 411 132<222 283>
VStem: 60 53<161 214 161 221> 193 144<419 519> 335 49<164 217>
LayerCount: 2
Fore
SplineSet
337 519 m 1x28
 222 411 l 1
 193 419 l 1
 283 543 l 1
 337 519 l 1x28
280 74 m 0xd4
 318 100 335 138 335 191 c 0
 335 243 318 281 280 307 c 0
 261 320 243 327 224 327 c 0
 205 327 188 321 169 308 c 0
 129 281 113 241 113 186 c 0
 113 135 127 97 164 71 c 0
 183 58 201 52 219 52 c 0
 239 52 260 60 280 74 c 0xd4
140 348 m 0
 168 365 195 375 222 375 c 0
 249 375 276 366 304 348 c 0
 358 313 384 261 384 190 c 0
 384 119 359 67 304 32 c 0
 274 13 245 2 215 2 c 0
 189 2 161 12 134 29 c 0
 81 64 60 116 60 184 c 0
 60 258 84 311 140 348 c 0
EndSplineSet
Validated: 1
EndChar

StartChar: ocircumflex
Encoding: 244 244 173
Width: 444
VWidth: 712
GlyphClass: 2
Flags: HMW
HStem: -18 50<210 229 210 230> 306 48<215 234>
VStem: 60 53<140 193 140 201> 335 49<144 196>
LayerCount: 2
Fore
SplineSet
188 580 m 1
 254 580 l 1
 359 390 l 1
 305 392 l 1
 228 540 l 1
 217 541 l 1
 137 393 l 1
 85 391 l 1
 188 580 l 1
280 54 m 0
 318 80 335 117 335 170 c 0
 335 222 318 260 280 286 c 0
 261 299 243 306 224 306 c 0
 205 306 188 300 169 287 c 0
 129 260 113 221 113 166 c 0
 113 115 127 77 164 51 c 0
 183 38 201 31 219 31 c 0
 239 31 260 40 280 54 c 0
140 328 m 0
 168 345 195 354 222 354 c 0
 249 354 276 345 304 327 c 0
 358 292 384 240 384 169 c 0
 384 98 359 47 304 12 c 0
 274 -7 245 -18 215 -18 c 0
 189 -18 161 -9 134 8 c 0
 81 43 60 95 60 163 c 0
 60 237 84 291 140 328 c 0
EndSplineSet
Validated: 1
EndChar

StartChar: otilde
Encoding: 245 245 174
Width: 501
VWidth: 723
GlyphClass: 2
Flags: HMW
HStem: -8 50<238 257 238 258> 317 48<243 262> 401 39<321 354 321 364> 467 35<159 181>
VStem: 88 53<151 204 151 211> 364 49<154 207> 413 28<467 497>
LayerCount: 2
Fore
SplineSet
170 467 m 0xfa
 148 467 118 444 80 406 c 1
 60 438 l 1
 64 441 l 1
 108 483 139 503 171 503 c 0
 200 503 230 487 274 458 c 0
 290 448 312 440 329 440 c 0
 378 440 408 484 413 497 c 1
 419 497 l 2
 431 497 441 484 441 477 c 0
 441 457 399 401 331 401 c 0
 304 401 283 408 257 425 c 0
 215 453 192 467 170 467 c 0xfa
308 64 m 0
 346 90 364 128 364 181 c 0xfc
 364 233 346 271 308 297 c 0
 289 310 272 317 253 317 c 0
 234 317 216 311 197 298 c 0
 157 271 141 231 141 176 c 0
 141 125 156 87 193 61 c 0
 212 48 229 42 247 42 c 0
 267 42 288 50 308 64 c 0
169 338 m 0
 197 355 223 365 250 365 c 0
 277 365 304 356 332 338 c 0
 386 303 412 251 412 180 c 0
 412 109 387 57 332 22 c 0
 302 3 273 -8 243 -8 c 0
 217 -8 190 2 163 19 c 0
 110 54 88 106 88 174 c 0
 88 248 113 301 169 338 c 0
EndSplineSet
Validated: 1
EndChar

StartChar: odieresis
Encoding: 246 246 175
Width: 444
VWidth: 716
GlyphClass: 2
Flags: HMW
HStem: -14 50<210 229 210 230> 310 48<215 234> 394 80<110 130 109 131>
VStem: 60 53<144 198 144 205> 79 84<424 447 422 448> 283 83<426 449 424 450> 335 49<148 200>
LayerCount: 2
Fore
SplineSet
323 477 m 0x2c
 345 477 365 461 365 436 c 0
 365 412 345 397 324 397 c 0
 302 397 283 414 283 438 c 0
 283 462 302 477 323 477 c 0x2c
119 475 m 0
 141 475 163 459 163 434 c 0
 163 410 142 394 121 394 c 0
 99 394 79 412 79 436 c 0
 79 460 98 475 119 475 c 0
280 58 m 0xd2
 318 84 335 121 335 174 c 0
 335 226 318 265 280 291 c 0
 261 304 243 310 224 310 c 0
 205 310 188 304 169 291 c 0
 129 264 113 225 113 170 c 0
 113 119 127 81 164 55 c 0
 183 42 201 36 219 36 c 0
 239 36 260 44 280 58 c 0xd2
140 332 m 0
 168 349 195 358 222 358 c 0
 249 358 276 349 304 331 c 0
 358 296 384 245 384 174 c 0
 384 103 359 51 304 16 c 0
 274 -3 245 -14 215 -14 c 0
 189 -14 161 -5 134 12 c 0
 81 47 60 100 60 168 c 0
 60 242 84 295 140 332 c 0
EndSplineSet
Validated: 1
EndChar

StartChar: divide
Encoding: 247 247 176
Width: 459
VWidth: 708
GlyphClass: 2
Flags: HMW
HStem: 129 84<217 240> 250 52<60 399 60 399> 333 83<215 238>
VStem: 189 80<160 180>
LayerCount: 2
Fore
SplineSet
187 373 m 0
 187 395 202 415 227 415 c 0
 251 415 267 395 267 374 c 0
 267 352 250 333 226 333 c 0
 202 333 187 352 187 373 c 0
189 169 m 0
 189 191 205 213 230 213 c 0
 254 213 269 192 269 171 c 0
 269 149 252 129 228 129 c 0
 204 129 189 148 189 169 c 0
60 301 m 1
 399 301 l 1
 399 250 l 1
 60 250 l 1
 60 301 l 1
EndSplineSet
Validated: 1
EndChar

StartChar: ugrave
Encoding: 249 249 177
Width: 442
VWidth: 722
GlyphClass: 2
Flags: HMW
HStem: -11 48<212 230 212 242>
VStem: 61 48 327 55<-7 -6> 333 43
LayerCount: 2
Fore
SplineSet
376 349 m 1xd0
 378 230 380 115 382 -6 c 1
 327 -7 l 1xe0
 327 33 l 1
 299 10 260 -11 223 -11 c 0
 197 -11 170 -2 143 15 c 0
 90 48 65 96 61 161 c 1
 61 221 60 284 60 344 c 1
 109 346 l 1
 109 162 l 1
 111 114 129 81 166 57 c 0
 185 44 204 37 221 37 c 0
 240 37 258 44 277 58 c 0
 301 75 323 98 331 124 c 1
 332 144 333 182 333 220 c 0
 333 251 332 296 330 319 c 0
 330 329 330 338 330 348 c 1
 376 349 l 1xd0
114 504 m 1
 175 504 l 1
 232 387 l 1
 207 389 l 1
 114 504 l 1
EndSplineSet
Validated: 1
EndChar

StartChar: uacute
Encoding: 250 250 178
Width: 442
VWidth: 729
GlyphClass: 2
Flags: HMW
HStem: -3 48<212 230 212 242> 400 132<209 270>
VStem: 61 48 180 144<408 509> 327 55<0 1> 333 43
LayerCount: 2
Fore
SplineSet
324 509 m 1x50
 209 400 l 1
 180 408 l 1
 270 532 l 1
 324 509 l 1x50
376 356 m 1xa4
 378 237 380 122 382 1 c 1
 327 0 l 1xa8
 327 40 l 1
 299 17 260 -3 223 -3 c 0
 197 -3 170 5 143 22 c 0
 90 55 65 103 61 168 c 1
 61 228 60 291 60 351 c 1
 109 353 l 1
 109 169 l 1
 111 121 129 88 166 64 c 0
 185 51 204 45 221 45 c 0
 270 45 319 94 331 132 c 1
 332 152 333 190 333 228 c 0
 333 259 332 303 330 326 c 0
 330 336 330 345 330 355 c 1
 376 356 l 1xa4
EndSplineSet
Validated: 1
EndChar

StartChar: ucircumflex
Encoding: 251 251 179
Width: 442
VWidth: 751
GlyphClass: 2
Flags: HMW
HStem: 18 48<212 230 212 242>
VStem: 61 48 327 55<22 23> 333 43
LayerCount: 2
Fore
SplineSet
376 378 m 1xd0
 378 259 380 144 382 23 c 1
 327 22 l 1xe0
 327 62 l 1
 299 39 260 18 223 18 c 0
 197 18 170 27 143 44 c 0
 90 77 65 125 61 190 c 1
 61 250 60 313 60 373 c 1
 109 375 l 1
 109 191 l 1
 111 143 129 110 166 86 c 0
 185 73 204 66 221 66 c 0
 240 66 258 73 277 87 c 0
 301 104 323 127 331 153 c 1
 332 173 333 211 333 249 c 0
 333 280 332 325 330 348 c 0
 330 358 330 367 330 377 c 1
 376 378 l 1xd0
186 620 m 1
 251 620 l 1
 356 429 l 1
 302 431 l 1
 225 579 l 1
 214 580 l 1
 134 432 l 1
 82 431 l 1
 186 620 l 1
EndSplineSet
Validated: 1
EndChar

StartChar: udieresis
Encoding: 252 252 180
Width: 442
VWidth: 716
GlyphClass: 2
Flags: HMW
HStem: -17 48<212 230 212 242> 395 80<101 122 101 123>
VStem: 61 48 70 84<425 447 423 449> 274 83<427 450 425 451> 327 55<-13 -13> 333 43
LayerCount: 2
Fore
SplineSet
315 478 m 0x58
 337 478 357 462 357 437 c 0
 357 413 337 398 316 398 c 0
 294 398 274 415 274 439 c 0
 274 463 294 478 315 478 c 0x58
111 476 m 0
 133 476 154 460 154 435 c 0
 154 411 133 395 112 395 c 0
 90 395 70 413 70 437 c 0
 70 461 90 476 111 476 c 0
376 342 m 1xa2
 378 223 380 108 382 -13 c 1
 327 -13 l 1xa4
 327 27 l 1
 299 4 260 -17 223 -17 c 0
 197 -17 170 -8 143 9 c 0
 90 42 65 90 61 155 c 1
 61 215 60 278 60 338 c 1
 109 339 l 1
 109 156 l 1
 111 108 129 74 166 50 c 0
 185 37 204 31 221 31 c 0
 270 31 319 80 331 118 c 1
 332 138 333 176 333 214 c 0
 333 245 332 289 330 312 c 0
 330 322 330 332 330 342 c 1
 376 342 l 1xa2
EndSplineSet
Validated: 1
EndChar

StartChar: yacute
Encoding: 253 253 181
Width: 505
VWidth: 661
GlyphClass: 2
Flags: HMW
HStem: 291 12G<60 108 108 108> 344 132<262 324>
VStem: 234 144<351 452>
LayerCount: 2
Fore
SplineSet
378 452 m 1
 262 344 l 1
 234 351 l 1
 324 476 l 1
 378 452 l 1
188 -291 m 1
 169 -290 151 -289 132 -288 c 1
 232 -57 l 1
 60 303 l 1
 108 303 l 1
 257 -5 l 1
 397 304 l 1
 445 304 l 1
 284 -57 l 1
 188 -291 l 1
EndSplineSet
Validated: 1
EndChar

StartChar: ydieresis
Encoding: 255 255 182
Width: 505
VWidth: 648
GlyphClass: 2
Flags: HMW
HStem: 278 12G<60 108 108 108> 342 80<135 157 135 157>
VStem: 105 84<371 394 369 395> 309 83<373 396 372 397>
LayerCount: 2
Fore
SplineSet
349 424 m 0
 371 424 391 409 391 384 c 0
 391 360 371 344 350 344 c 0
 328 344 309 361 309 385 c 0
 309 409 328 424 349 424 c 0
145 422 m 0
 167 422 189 406 189 381 c 0
 189 357 168 342 147 342 c 0
 125 342 105 359 105 383 c 0
 105 407 124 422 145 422 c 0
188 -303 m 1
 169 -302 151 -302 132 -301 c 1
 232 -70 l 1
 60 290 l 1
 108 290 l 1
 257 -18 l 1
 397 291 l 1
 445 291 l 1
 284 -69 l 1
 188 -303 l 1
EndSplineSet
Validated: 1
EndChar

StartChar: Amacron
Encoding: 256 256 183
Width: 484
VWidth: 693
GlyphClass: 2
Flags: HMW
HStem: -40 13G<60 102 60 60> 127 41<156 312> 468 41<93 394 93 394>
LayerCount: 2
Fore
SplineSet
93 549 m 5
 394 549 l 5
 394 508 l 5
 93 508 l 5
 93 549 l 5
382 1 m 5
 324 167 l 5
 156 167 l 5
 102 0 l 5
 60 0 l 5
 219 479 l 5
 267 479 l 5
 424 1 l 5
 382 1 l 5
241 436 m 5
 171 208 l 5
 312 208 l 5
 241 436 l 5
EndSplineSet
Validated: 1
EndChar

StartChar: amacron
Encoding: 257 257 184
Width: 433
VWidth: 667
GlyphClass: 2
Flags: HMW
HStem: -61 41<204 222 204 228> 269 43<209 227> 296 12G<325 325> 348 52<72 373 72 373>
VStem: 60 42<96 151 96 160> 325 37<-62 -7 -7 -7 263 307 -64 308 -64 308>
LayerCount: 2
Fore
SplineSet
72 456 m 5x10
 373 456 l 5
 373 404 l 5
 72 404 l 5
 72 456 l 5x10
325 49 m 5xac
 300 24 255 -5 216 -5 c 4
 191 -5 164 4 138 22 c 4
 85 57 60 109 60 180 c 4
 60 251 86 303 139 338 c 4
 167 357 194 368 222 368 c 4xcc
 247 368 272 359 298 342 c 4
 308 335 317 327 325 319 c 5
 325 364 l 5
 362 363 l 5
 362 -8 l 5
 325 -6 l 5
 325 49 l 5xac
219 325 m 4
 200 325 179 316 159 301 c 4
 121 273 102 235 102 180 c 4
 102 125 121 85 159 57 c 4
 177 44 195 37 213 37 c 4
 231 37 250 44 268 57 c 4
 308 85 325 126 325 184 c 4
 325 237 310 277 272 304 c 4
 253 318 236 325 219 325 c 4
EndSplineSet
Validated: 1
EndChar

StartChar: Cacute
Encoding: 262 262 185
Width: 494
VWidth: 718
GlyphClass: 2
Flags: HMW
HStem: -7 36<252 280 269 280> 430 34<263 288> 493 106<274 335>
VStem: 60 53<176 246 176 253> 245 144<499 579>
LayerCount: 2
Fore
SplineSet
389 579 m 1
 274 493 l 1
 245 499 l 1
 335 598 l 1
 389 579 l 1
413 77 m 1
 422 71 434 61 434 50 c 2
 434 46 l 1
 433 45 432 45 431 44 c 0
 396 19 312 -7 272 -7 c 2
 269 -7 l 2
 235 -7 201 3 165 23 c 0
 91 64 60 126 60 208 c 0
 60 299 91 390 168 433 c 0
 205 453 240 464 274 464 c 0
 327 464 397 432 432 401 c 1
 426 396 418 391 412 387 c 1
 398 397 378 409 347 418 c 1
 324 429 300 430 278 430 c 0
 249 430 220 421 192 404 c 0
 133 367 113 283 113 210 c 0
 113 143 137 89 192 54 c 0
 219 38 247 29 275 29 c 2
 280 29 l 2
 320 29 386 52 411 74 c 1
 413 77 l 1
EndSplineSet
Validated: 1
EndChar

StartChar: cacute
Encoding: 263 263 186
Width: 395
VWidth: 693
GlyphClass: 2
Flags: HMW
HStem: -38 43<203 222> 293 41<209 225> 371 132<215 276>
VStem: 60 46<120 175 120 182> 186 144<379 479> 250 85<239 264>
LayerCount: 2
Fore
SplineSet
330 509 m 5x28
 215 401 l 5
 186 409 l 5
 276 533 l 5
 330 509 l 5x28
275 60 m 5xd4
 285 59 296 44 296 31 c 4
 296 27 294 24 292 22 c 4
 263 3 236 -8 208 -8 c 4
 183 -8 159 2 134 19 c 4
 82 54 60 106 60 174 c 4
 60 249 84 301 139 338 c 4
 165 355 190 365 215 365 c 4
 255 365 307 336 329 307 c 4
 333 303 335 297 335 291 c 4
 335 287 334 283 334 278 c 4
 334 261 332 252 318 244 c 4
 310 240 301 236 293 236 c 4
 286 236 279 239 271 243 c 4
 255 251 250 261 250 277 c 4
 250 291 255 301 264 309 c 5
 248 318 233 323 218 323 c 4
 200 323 182 317 164 303 c 4
 124 275 107 234 107 176 c 4
 107 123 122 82 159 55 c 4
 177 42 195 35 212 35 c 4
 233 35 252 46 275 60 c 5xd4
EndSplineSet
Validated: 1
EndChar

StartChar: Ccircumflex
Encoding: 264 264 187
Width: 494
VWidth: 737
GlyphClass: 2
Flags: HMW
HStem: 18 36<252 280 269 280> 455 34<263 288>
VStem: 60 53<202 272 202 278>
LayerCount: 2
Fore
SplineSet
240 657 m 5
 306 657 l 5
 411 505 l 5
 357 506 l 5
 280 624 l 5
 269 625 l 5
 189 507 l 5
 137 506 l 5
 240 657 l 5
413 89 m 5
 422 83 434 73 434 62 c 6
 434 58 l 5
 433 57 432 58 431 57 c 4
 396 32 312 5 272 5 c 6
 269 5 l 6
 235 5 201 15 165 35 c 4
 91 76 60 151 60 233 c 0
 60 324 91 403 168 446 c 4
 205 466 240 476 274 476 c 4
 327 476 397 445 432 414 c 5
 426 409 418 403 412 399 c 5
 398 409 378 421 347 430 c 5
 324 441 300 442 278 442 c 4
 249 442 220 434 192 417 c 4
 133 380 113 295 113 222 c 4
 113 155 137 101 192 66 c 4
 219 50 247 41 275 41 c 6
 280 41 l 6
 320 41 386 64 411 86 c 5
 413 89 l 5
EndSplineSet
Validated: 1
EndChar

StartChar: ccircumflex
Encoding: 265 265 188
Width: 412
VWidth: 712
GlyphClass: 2
Flags: HMW
HStem: -18 43<203 222> 313 41<208 225>
VStem: 60 46<139 195 139 201> 250 85<259 283>
LayerCount: 2
Fore
SplineSet
181 590 m 5
 247 590 l 5
 352 400 l 5
 298 402 l 5
 221 550 l 5
 210 551 l 5
 130 403 l 5
 78 401 l 5
 181 590 l 5
275 59 m 5
 285 58 296 44 296 31 c 4
 296 27 294 23 292 21 c 4
 263 2 236 -8 208 -8 c 4
 183 -8 158 1 133 18 c 4
 81 53 60 105 60 173 c 4
 60 248 84 301 139 338 c 4
 165 355 190 364 215 364 c 4
 255 364 307 335 329 306 c 4
 333 302 334 296 334 290 c 4
 334 286 334 283 334 278 c 4
 334 261 332 251 318 243 c 4
 310 239 301 236 293 236 c 4
 286 236 279 238 271 242 c 4
 255 250 250 261 250 277 c 4
 250 291 255 300 264 308 c 5
 248 317 232 323 217 323 c 4
 199 323 181 316 163 302 c 4
 123 274 106 234 106 176 c 4
 106 123 122 82 159 55 c 4
 177 42 195 35 212 35 c 4
 233 35 252 45 275 59 c 5
EndSplineSet
Validated: 1
EndChar

StartChar: Cdotaccent
Encoding: 266 266 189
Width: 494
VWidth: 701
GlyphClass: 2
Flags: HMW
HStem: -28 36<252 280 269 280> 408 34<263 288>
VStem: 60 53<155 225 155 232>
LayerCount: 2
Fore
SplineSet
234 523 m 4
 234 541 249 557 274 557 c 4
 298 557 314 541 314 524 c 4
 314 506 296 491 272 491 c 4
 248 491 234 506 234 523 c 4
413 76 m 5
 422 70 434 60 434 49 c 6
 434 44 l 5
 433 43 432 44 431 43 c 4
 396 18 312 -8 272 -8 c 6
 269 -8 l 6
 235 -8 201 2 165 22 c 4
 91 63 60 124 60 206 c 4
 60 297 91 389 168 432 c 4
 205 452 240 463 274 463 c 4
 327 463 397 431 432 400 c 5
 426 395 418 390 412 386 c 5
 398 396 378 407 347 416 c 5
 324 427 300 428 278 428 c 4
 249 428 220 420 192 403 c 4
 133 366 113 282 113 209 c 4
 113 142 137 88 192 53 c 4
 219 37 247 28 275 28 c 6
 280 28 l 6
 320 28 386 51 411 73 c 5
 413 76 l 5
EndSplineSet
Validated: 1
EndChar

StartChar: cdotaccent
Encoding: 267 267 190
Width: 395
VWidth: 676
GlyphClass: 2
Flags: HMW
HStem: -54 43<203 222> 277 41<209 225>
VStem: 60 46<104 159 104 165> 250 85<223 248>
LayerCount: 2
Fore
SplineSet
175 445 m 4
 175 467 190 487 215 487 c 4
 239 487 255 467 255 446 c 4
 255 424 237 404 213 404 c 4
 189 404 175 424 175 445 c 4
275 64 m 5
 285 63 296 48 296 35 c 4
 296 31 294 27 292 25 c 4
 263 6 236 -4 208 -4 c 4
 183 -4 159 5 134 22 c 4
 82 57 60 110 60 178 c 4
 60 253 84 305 139 342 c 4
 165 359 190 368 215 368 c 4
 255 368 307 339 329 310 c 4
 333 306 335 301 335 295 c 4
 335 291 334 287 334 282 c 4
 334 265 332 255 318 247 c 4
 310 243 301 240 293 240 c 4
 286 240 279 243 271 247 c 4
 255 255 250 265 250 281 c 4
 250 295 255 305 264 313 c 5
 248 322 233 327 218 327 c 4
 200 327 182 321 164 307 c 4
 124 279 107 238 107 180 c 4
 107 127 122 86 159 59 c 4
 177 46 195 39 212 39 c 4
 233 39 252 50 275 64 c 5
EndSplineSet
Validated: 1
EndChar

StartChar: Ccaron
Encoding: 268 268 191
Width: 494
VWidth: 737
GlyphClass: 2
Flags: HMW
HStem: 18 36<252 280 269 280> 455 34<263 288>
VStem: 60 53<202 272 202 278>
LayerCount: 2
Fore
SplineSet
240 496 m 5
 137 647 l 5
 189 645 l 5
 269 527 l 5
 280 528 l 5
 357 647 l 5
 411 648 l 5
 306 496 l 5
 240 496 l 5
413 80 m 5
 422 74 434 64 434 53 c 6
 434 49 l 5
 433 48 432 49 431 48 c 4
 396 23 312 -4 272 -4 c 6
 269 -4 l 6
 235 -4 201 6 165 26 c 4
 91 67 60 129 60 211 c 4
 60 302 91 394 168 437 c 4
 205 457 240 467 274 467 c 4
 327 467 397 436 432 405 c 5
 426 400 418 394 412 390 c 5
 398 400 378 412 347 421 c 5
 324 432 300 433 278 433 c 4
 249 433 220 425 192 408 c 4
 133 371 113 286 113 213 c 4
 113 146 137 92 192 57 c 4
 219 41 247 32 275 32 c 6
 280 32 l 6
 320 32 386 55 411 77 c 5
 413 80 l 5
EndSplineSet
Validated: 1
EndChar

StartChar: ccaron
Encoding: 269 269 192
Width: 412
VWidth: 712
GlyphClass: 2
Flags: HMW
HStem: -18 43<203 222> 313 41<208 225> 567 12G<78 78>
VStem: 60 46<139 195 139 201> 250 85<259 283>
LayerCount: 2
Fore
SplineSet
181 400 m 5
 78 589 l 5
 130 587 l 5
 210 440 l 5
 221 441 l 5
 298 589 l 5
 352 590 l 5
 247 400 l 5
 181 400 l 5
275 59 m 5
 285 58 296 44 296 31 c 4
 296 27 294 23 292 21 c 4
 263 2 236 -8 208 -8 c 4
 183 -8 158 1 133 18 c 4
 81 53 60 105 60 173 c 4
 60 248 84 301 139 338 c 4
 165 355 190 364 215 364 c 4
 255 364 307 335 329 306 c 4
 333 302 334 296 334 290 c 4
 334 286 334 283 334 278 c 4
 334 261 332 251 318 243 c 4
 310 239 301 236 293 236 c 4
 286 236 279 238 271 242 c 4
 255 250 250 261 250 277 c 4
 250 291 255 300 264 308 c 5
 248 317 232 323 217 323 c 4
 199 323 181 316 163 302 c 4
 123 274 106 234 106 176 c 4
 106 123 122 82 159 55 c 4
 177 42 195 35 212 35 c 4
 233 35 252 45 275 59 c 5
EndSplineSet
Validated: 1
EndChar

StartChar: Dcaron
Encoding: 270 270 193
Width: 518
VWidth: 740
GlyphClass: 2
Flags: HMW
HStem: 19 35<158 178 158 202> 454 42<114 160 128 137>
VStem: 60 53<19 69> 60 55<19 19> 405 52<263 300>
LayerCount: 2
Fore
SplineSet
188 503 m 5xc8
 84 660 l 5
 136 659 l 5
 216 541 l 5
 227 542 l 5
 304 659 l 5
 358 661 l 5
 253 503 l 5
 188 503 l 5xc8
195 434 m 5xe8
 116 434 l 6
 112 434 111 429 111 422 c 4
 111 415 111 407 111 398 c 4
 111 322 114 129 114 79 c 6
 114 67 l 5xe8
 111 65 l 5
 115 64 l 5
 115 62 l 6xd8
 115 57 114 51 114 46 c 4
 114 43 113 39 118 38 c 4
 133 36 150 34 166 34 c 4
 189 34 212 36 227 38 c 4
 264 43 304 43 335 63 c 4
 393 100 405 171 405 244 c 4
 405 317 376 372 318 409 c 4
 290 427 225 433 195 434 c 5xe8
61 473 m 5
 87 475 115 476 141 476 c 4
 178 476 212 474 231 473 c 4
 267 470 304 463 342 440 c 4
 419 396 458 332 458 243 c 4
 457 151 421 53 368 28 c 5
 322 3 236 -1 168 -1 c 6
 60 -1 l 5
 61 473 l 5
EndSplineSet
Validated: 1
EndChar

StartChar: dcaron
Encoding: 271 271 194
Width: 554
VWidth: 712
GlyphClass: 2
Flags: HMW
HStem: -16 41<204 222 204 228> 314 43<209 227> 566 12G<364 364 466 468>
VStem: 60 42<141 196 141 205> 325 39<-17 38 38 38 308 578 578 578>
LayerCount: 2
Fore
SplineSet
467 588 m 6
 483 588 492 569 494 561 c 5
 494 555 l 6
 494 549 493 540 491 535 c 4
 490 482 467 436 432 395 c 5
 418 415 l 5
 434 441 446 465 446 493 c 4
 446 507 443 520 438 536 c 5
 433 542 432 548 432 555 c 4
 432 577 446 588 463 588 c 6
 467 588 l 6
222 367 m 4
 258 367 301 342 325 318 c 5
 325 588 l 5
 364 588 l 5
 364 -7 l 5
 325 -7 l 5
 325 48 l 5
 300 23 254 -6 215 -6 c 4
 190 -6 164 3 138 21 c 4
 85 56 60 108 60 179 c 4
 60 250 85 302 138 337 c 4
 166 356 194 367 222 367 c 4
218 324 m 4
 199 324 179 315 159 300 c 4
 121 272 102 234 102 179 c 4
 102 124 120 84 158 56 c 4
 176 43 195 36 213 36 c 4
 231 36 249 43 267 56 c 4
 307 84 324 125 324 183 c 4
 324 236 310 276 272 303 c 4
 253 317 235 324 218 324 c 4
EndSplineSet
Validated: 1
EndChar

StartChar: Emacron
Encoding: 274 274 195
Width: 422
VWidth: 697
GlyphClass: 2
Flags: HMW
HStem: -33 37 200 37 408 37<124 341 116 342 124 124> 477 41<60 362 60 362>
VStem: 74 50
LayerCount: 2
Fore
SplineSet
60 549 m 5
 362 549 l 5
 362 507 l 5
 60 507 l 5
 60 549 l 5
74 474 m 5
 101 474 l 2
 106 474 111 474 116 475 c 5
 341 475 l 5
 342 464 342 451 342 438 c 5
 124 438 l 5
 124 434 l 6
 124 380 123 324 123 270 c 6
 123 267 l 5
 346 267 l 5
 347 256 347 243 347 230 c 5
 123 230 l 5
 122 35 l 5
 341 35 l 5
 342 24 342 10 342 -3 c 5
 122 -3 l 5
 122 -4 l 5
 75 -4 l 5
 74 474 l 5
EndSplineSet
Validated: 1
EndChar

StartChar: emacron
Encoding: 275 275 196
Width: 430
VWidth: 705
GlyphClass: 2
Flags: HMW
HStem: -26 43<223 242 223 242> 140 49<108 327 60 107> 306 41<208 226> 384 52<64 366 64 366>
VStem: 61 46<189 189>
LayerCount: 2
Fore
SplineSet
64 445 m 5
 366 445 l 5
 366 394 l 5
 64 394 l 5
 64 445 l 5
370 176 m 4
 370 166 371 158 370 150 c 5
 107 150 l 5
 111 106 127 72 159 48 c 4
 178 34 214 27 232 27 c 4
 251 27 272 36 292 50 c 4
 294 51 298 52 300 52 c 4
 310 52 322 41 322 29 c 4
 322 24 319 18 312 14 c 4
 283 -5 256 -16 228 -16 c 4
 203 -16 158 -6 133 11 c 4
 86 43 64 89 60 148 c 5
 60 165 60 182 60 199 c 5
 61 199 l 5
 68 257 92 300 138 331 c 4
 164 348 189 358 215 358 c 4
 241 358 266 349 292 331 c 4
 338 300 363 257 369 201 c 5
 369 197 l 5
 370 193 370 185 370 176 c 4
108 199 m 5
 327 199 l 5
 321 242 304 272 272 295 c 4
 253 309 235 316 217 316 c 4
 199 316 182 310 163 296 c 4
 131 273 113 242 108 199 c 5
EndSplineSet
Validated: 1
EndChar

StartChar: Edotaccent
Encoding: 278 278 197
Width: 394
VWidth: 746
GlyphClass: 2
Flags: HMW
HStem: 19 37 252 37 460 37<111 328 103 329 111 111>
VStem: 60 50
LayerCount: 2
Fore
SplineSet
175 539 m 4
 175 557 190 574 215 574 c 4
 239 574 255 558 255 541 c 4
 255 523 237 507 213 507 c 4
 189 507 175 522 175 539 c 4
328 38 m 5
 329 27 329 13 329 0 c 5
 108 0 l 5
 108 -1 l 5
 61 -1 l 5
 60 477 l 5
 71 478 82 477 96 478 c 4
 173 478 251 478 328 478 c 5
 329 467 329 454 329 441 c 5
 111 441 l 5
 111 437 l 6
 111 383 110 328 110 274 c 6
 110 271 l 5
 333 271 l 5
 334 260 334 246 334 233 c 5
 109 233 l 5
 109 38 l 5
 328 38 l 5
EndSplineSet
Validated: 33
EndChar

StartChar: edotaccent
Encoding: 279 279 198
Width: 430
VWidth: 716
GlyphClass: 2
Flags: HMW
HStem: -16 43<223 242 223 242> 150 49<108 327 60 107> 317 41<208 226>
VStem: 61 46<200 200>
LayerCount: 2
Fore
SplineSet
175 444 m 4
 175 466 190 487 215 487 c 4
 239 487 255 466 255 445 c 4
 255 423 237 404 213 404 c 4
 189 404 175 423 175 444 c 4
370 186 m 4
 370 176 371 168 370 160 c 5
 107 160 l 5
 111 116 127 82 159 58 c 4
 178 44 214 37 232 37 c 4
 251 37 272 46 292 60 c 4
 294 61 298 63 300 63 c 4
 310 63 322 51 322 39 c 4
 322 34 319 28 312 24 c 4
 283 5 256 -6 228 -6 c 4
 203 -6 158 5 133 22 c 4
 86 54 64 100 60 159 c 5
 60 176 60 193 60 210 c 5
 61 210 l 5
 68 268 92 311 138 342 c 4
 164 359 189 368 215 368 c 4
 241 368 266 359 292 341 c 4
 338 310 363 267 369 211 c 5
 369 207 l 5
 370 203 370 195 370 186 c 4
108 210 m 5
 327 210 l 5
 321 253 304 283 272 306 c 4
 253 320 235 327 217 327 c 4
 199 327 182 320 163 306 c 4
 131 283 113 253 108 210 c 5
EndSplineSet
Validated: 1
EndChar

StartChar: Ecaron
Encoding: 282 282 199
Width: 413
VWidth: 742
GlyphClass: 2
Flags: HMW
HStem: 26 37 258 37 467 37<111 328 103 329 111 111> 533 32<182 210 210 210 210 247>
VStem: 60 50
LayerCount: 2
Fore
SplineSet
182 506 m 5
 79 657 l 5
 131 656 l 5
 210 537 l 5
 222 538 l 5
 299 656 l 5
 353 658 l 5
 247 506 l 5
 182 506 l 5
60 476 m 5
 87 476 l 2
 92 476 98 476 103 477 c 5
 328 477 l 5
 329 466 329 453 329 440 c 5
 111 440 l 5
 111 436 l 6
 111 382 110 326 110 272 c 6
 110 269 l 5
 333 269 l 5
 334 258 334 244 334 231 c 5
 110 231 l 5
 109 36 l 5
 328 36 l 5
 329 25 329 12 329 -1 c 5
 108 -1 l 5
 108 -2 l 5
 62 -2 l 5
 60 476 l 5
EndSplineSet
Validated: 1
EndChar

StartChar: ecaron
Encoding: 283 283 200
Width: 430
VWidth: 712
GlyphClass: 2
Flags: HMW
HStem: -20 43<223 242 223 242> 146 49<108 327 60 107> 312 41<208 226> 567 12G<78 78>
VStem: 61 46<195 195>
LayerCount: 2
Fore
SplineSet
181 400 m 5
 78 589 l 5
 130 587 l 5
 210 439 l 5
 221 441 l 5
 298 588 l 5
 352 590 l 5
 247 400 l 5
 181 400 l 5
370 182 m 4
 370 172 371 164 370 156 c 5
 107 156 l 5
 111 112 127 78 159 54 c 4
 178 40 214 33 232 33 c 4
 251 33 272 42 292 56 c 4
 294 57 298 58 300 58 c 4
 310 58 322 47 322 35 c 4
 322 30 319 24 312 20 c 4
 283 1 256 -10 228 -10 c 4
 203 -10 158 1 133 18 c 4
 86 50 64 95 60 154 c 5
 60 171 60 188 60 205 c 5
 61 205 l 5
 68 263 92 306 138 337 c 4
 164 354 189 364 215 364 c 4
 241 364 266 355 292 337 c 4
 338 306 363 263 369 207 c 5
 369 203 l 5
 370 199 370 191 370 182 c 4
108 205 m 5
 327 205 l 5
 321 248 304 278 272 301 c 4
 253 315 235 322 217 322 c 4
 199 322 182 316 163 302 c 4
 131 279 113 248 108 205 c 5
EndSplineSet
Validated: 1
EndChar

StartChar: Gcircumflex
Encoding: 284 284 201
Width: 502
VWidth: 736
GlyphClass: 2
Flags: HMW
HStem: 17 36<253 280 270 280> 179 35<393 393> 454 34<269 294>
VStem: 60 53<200 270 200 277> 393 49<84 179 179 179>
LayerCount: 2
Fore
SplineSet
246 649 m 5
 312 649 l 5
 417 497 l 5
 363 498 l 5
 286 616 l 5
 274 617 l 5
 195 499 l 5
 143 498 l 5
 246 649 l 5
280 33 m 6
 311 33 362 48 393 64 c 5
 393 159 l 5
 277 159 l 5
 277 195 l 5
 442 195 l 5
 442 60 l 5
 407 14 338 -6 293 -6 c 4
 285 -6 276 -4 270 -3 c 5
 236 -3 201 7 165 27 c 4
 91 68 60 129 60 211 c 4
 60 302 97 395 174 438 c 4
 211 458 246 468 280 468 c 4
 333 468 403 437 438 406 c 5
 432 398 426 390 420 383 c 5
 405 395 385 413 353 422 c 5
 330 433 305 434 283 434 c 4
 254 434 227 425 199 408 c 4
 140 371 114 287 114 214 c 4
 114 147 137 93 192 58 c 4
 219 42 247 33 275 33 c 6
 280 33 l 6
EndSplineSet
Validated: 1
EndChar

StartChar: gcircumflex
Encoding: 285 285 202
Width: 472
VWidth: 629
GlyphClass: 2
Flags: HMW
HStem: -400 38<223 244 223 244> -141 37<229 249> -66 44<191 207 191 208> 230 41<196 212>
VStem: 60 45<-276 -236> 112 41<-102 -97 -97 -89 -102 -83> 300 42<80 126 71 129> 361 51<-271 -229>
LayerCount: 2
Fore
SplineSet
170 613 m 5
 235 613 l 5
 340 423 l 5
 286 424 l 5
 210 572 l 5
 198 573 l 5
 118 426 l 5
 67 424 l 5
 170 613 l 5
155 276 m 4
 121 251 106 216 106 165 c 4
 106 119 119 82 151 59 c 4
 167 48 183 42 199 42 c 4
 216 42 233 49 251 62 c 4
 283 86 300 120 300 169 c 4
 300 217 284 252 252 276 c 4
 236 287 220 294 204 294 c 4
 188 294 171 288 155 276 c 4
239 -77 m 4
 168 -77 105 -133 105 -192 c 4
 105 -246 168 -297 233 -297 c 4
 255 -297 277 -290 300 -279 c 4
 342 -258 361 -229 361 -186 c 4
 361 -144 341 -114 300 -93 c 4
 280 -83 259 -77 239 -77 c 4
153 7 m 5
 155 3 156 -2 156 -6 c 4
 156 -12 154 -16 154 -25 c 6
 154 -33 l 6
 154 -41 154 -50 150 -61 c 5
 180 -48 208 -40 237 -40 c 4
 266 -40 295 -48 325 -62 c 4
 384 -90 412 -131 412 -187 c 4
 412 -244 383 -284 324 -312 c 4
 292 -327 260 -336 228 -336 c 4
 199 -336 171 -329 142 -315 c 4
 84 -287 60 -246 60 -192 c 4
 60 -152 73 -119 99 -93 c 5
 100 -93 l 5
 112 -67 112 -55 112 -33 c 4
 112 -4 109 17 100 45 c 5
 100 46 101 44 100 45 c 5
 73 76 62 116 62 163 c 4
 62 231 84 278 132 311 c 4
 155 327 178 335 201 335 c 4
 225 335 249 326 273 310 c 5
 274 312 304 382 311 399 c 5
 361 399 l 5
 304 281 l 5
 329 251 342 214 342 167 c 4
 342 103 318 57 271 25 c 4
 244 7 221 -2 195 -2 c 4
 181 -2 166 2 153 7 c 5
EndSplineSet
Validated: 5
EndChar

StartChar: Gdotaccent
Encoding: 288 288 203
Width: 502
VWidth: 701
GlyphClass: 2
Flags: HMW
HStem: -30 36<253 280 270 280> 133 35<393 393> 408 34<269 294>
VStem: 60 53<154 224 154 230> 393 49<38 133 133 133>
LayerCount: 2
Fore
SplineSet
240 528 m 4
 240 546 255 562 280 562 c 4
 304 562 320 546 320 529 c 4
 320 511 302 496 278 496 c 4
 254 496 240 511 240 528 c 4
280 31 m 6
 311 31 362 47 393 63 c 5
 393 158 l 5
 277 157 l 5
 277 193 l 5
 442 193 l 5
 442 59 l 5
 407 13 338 -7 293 -7 c 4
 285 -7 276 -6 270 -5 c 5
 236 -5 201 5 165 25 c 4
 91 66 60 128 60 210 c 4
 60 301 97 393 174 436 c 4
 211 456 246 467 280 467 c 4
 333 467 403 435 438 404 c 5
 432 396 426 389 420 382 c 5
 405 394 385 412 353 421 c 5
 330 432 305 433 283 433 c 4
 254 433 227 424 199 407 c 4
 140 370 114 285 114 212 c 4
 114 145 137 91 192 56 c 4
 219 40 247 31 275 31 c 6
 280 31 l 6
EndSplineSet
Validated: 1
EndChar

StartChar: gdotaccent
Encoding: 289 289 204
Width: 472
VWidth: 584
GlyphClass: 2
Flags: HMW
HStem: -445 38<223 244 223 244> -187 37<229 249> -111 44<191 207 191 208> 185 41<196 212>
VStem: 60 45<-322 -281> 112 41<-147 -143 -143 -134 -147 -128> 300 42<35 81 26 83> 361 51<-316 -274>
LayerCount: 2
Fore
SplineSet
152 428 m 4
 152 450 167 470 192 470 c 4
 216 470 232 450 232 429 c 4
 232 407 214 387 190 387 c 4
 166 387 152 407 152 428 c 4
155 270 m 4
 121 245 106 210 106 159 c 4
 106 113 119 76 151 53 c 4
 167 42 183 36 199 36 c 4
 216 36 233 43 251 56 c 4
 283 80 300 113 300 162 c 4
 300 210 284 245 252 269 c 4
 236 280 220 288 204 288 c 4
 188 288 171 282 155 270 c 4
239 -84 m 4
 168 -84 105 -140 105 -199 c 4
 105 -239 132 -267 173 -288 c 4
 193 -298 213 -304 233 -304 c 4
 255 -304 277 -297 300 -286 c 4
 342 -265 361 -235 361 -192 c 4
 361 -150 341 -120 300 -99 c 4
 280 -89 259 -84 239 -84 c 4
153 1 m 5
 155 -3 156 -8 156 -12 c 4
 156 -18 154 -22 154 -31 c 6
 154 -40 l 6
 154 -48 154 -56 150 -67 c 5
 180 -54 208 -46 237 -46 c 4
 266 -46 295 -54 325 -68 c 4
 384 -96 412 -137 412 -193 c 4
 412 -250 383 -290 324 -318 c 4
 292 -333 260 -342 228 -342 c 4
 199 -342 171 -335 142 -321 c 4
 84 -293 60 -252 60 -198 c 4
 60 -158 73 -126 99 -100 c 5
 100 -100 l 5
 112 -74 112 -62 112 -40 c 4
 112 -11 109 10 100 38 c 4
 100 39 101 38 100 39 c 4
 73 70 62 109 62 156 c 4
 62 224 84 272 132 305 c 4
 155 321 178 329 201 329 c 4
 225 329 249 319 273 303 c 5
 274 305 304 375 311 392 c 5
 361 392 l 5
 304 275 l 5
 329 245 342 208 342 161 c 4
 342 97 318 51 271 19 c 4
 244 1 221 -8 195 -8 c 4
 181 -8 166 -4 153 1 c 5
EndSplineSet
Validated: 1
EndChar

StartChar: Idotaccent
Encoding: 304 304 205
Width: 263
VWidth: 755
GlyphClass: 2
Flags: HMW
HStem: 34 34<60 108 201 201> 572 29<69 110 69 200>
VStem: 108 49<68 68>
LayerCount: 2
Fore
SplineSet
95 667 m 4
 95 689 110 710 135 710 c 4
 159 710 175 689 175 668 c 4
 175 646 157 627 133 627 c 4
 109 627 95 646 95 667 c 4
203 35 m 5
 201 1 l 5
 161 2 l 5
 60 1 l 5
 62 35 l 5
 108 35 l 5
 110 539 l 5
 69 539 l 5
 69 568 l 5
 200 568 l 5
 200 540 l 5
 156 539 l 5
 157 35 l 5
 203 35 l 5
EndSplineSet
Validated: 1
EndChar

StartChar: dotlessi
Encoding: 305 305 206
Width: 165
VWidth: 641
GlyphClass: 2
Flags: HMW
HStem: -78 13G<60 103 60 60> 272 12G<60 60>
VStem: 60 43<-78 284>
LayerCount: 2
Fore
SplineSet
105 356 m 5
 103 -4 l 5
 60 -4 l 5
 60 358 l 5
 105 356 l 5
EndSplineSet
Validated: 1
EndChar

StartChar: IJ
Encoding: 306 306 207
Width: 565
VWidth: 714
GlyphClass: 2
Flags: HMW
HStem: -11 45<329 355> -7 34<60 107 201 201> 531 29<69 109 69 199> 570 12G<456 465>
VStem: 107 49<27 27> 456 47<107 107 107 582>
LayerCount: 2
Fore
SplineSet
503 107 m 1x94
 481 39 436 -5 346 -11 c 0
 312 -11 279 1 242 26 c 0
 214 45 205 61 205 71 c 0
 205 79 211 84 224 84 c 0
 236 84 252 79 269 66 c 0
 297 45 324 34 351 34 c 2
 355 34 l 2
 393 34 434 76 456 105 c 1
 456 582 l 1
 473 582 492 581 505 580 c 1
 503 107 l 1x94
202 27 m 1x68
 201 -7 l 1
 160 -6 l 1
 60 -7 l 1
 61 27 l 1
 107 27 l 1
 109 531 l 1
 69 531 l 1
 69 560 l 1
 199 560 l 1
 199 532 l 1
 155 531 l 1
 156 27 l 1
 202 27 l 1x68
EndSplineSet
Validated: 1
EndChar

StartChar: ij
Encoding: 307 307 208
Width: 316
VWidth: 643
GlyphClass: 2
Flags: HMW
HStem: -75 13G<75 118 75 75> 274 12G<75 75 195 195> 366 79<87 108 206 227>
VStem: 60 76<396 415> 75 43<-75 286> 180 76<396 415> 195 45<273 285>
LayerCount: 2
Fore
SplineSet
180 475 m 4x64
 180 496 194 515 217 515 c 4
 239 515 256 496 256 476 c 4
 256 455 239 436 216 436 c 4
 194 436 180 455 180 475 c 4x64
141 -143 m 5
 170 -100 191 -55 195 -5 c 4
 196 36 196 79 196 120 c 4
 196 194 195 269 195 343 c 6
 195 356 l 5
 240 355 l 5
 240 304 l 6x62
 240 230 240 92 238 -5 c 4
 237 -60 194 -117 159 -157 c 5
 141 -143 l 5
60 475 m 4xf0
 60 496 76 515 99 515 c 4
 121 515 136 496 136 476 c 4
 136 455 119 436 96 436 c 4
 74 436 60 455 60 475 c 4xf0
120 355 m 5
 118 -5 l 5
 75 -5 l 5
 75 356 l 5xe8
 120 355 l 5
EndSplineSet
Validated: 1
EndChar

StartChar: Jcircumflex
Encoding: 308 308 209
Width: 509
VWidth: 736
GlyphClass: 2
Flags: HMW
HStem: 12 36<185 211> 476 13G
VStem: 312 47<106 106 106 486>
LayerCount: 2
Fore
SplineSet
278 648 m 5
 344 648 l 5
 449 496 l 5
 395 497 l 5
 318 615 l 5
 306 616 l 5
 227 498 l 5
 175 496 l 5
 278 648 l 5
359 86 m 5
 337 31 291 -3 201 -8 c 4
 167 -8 135 1 98 21 c 4
 70 36 60 49 60 57 c 4
 60 63 67 68 80 68 c 4
 92 68 108 64 125 53 c 4
 153 36 180 28 207 28 c 6
 211 28 l 6
 249 28 290 62 312 85 c 5
 312 466 l 5
 329 466 348 466 361 465 c 5
 359 86 l 5
EndSplineSet
Validated: 1
EndChar

StartChar: jcircumflex
Encoding: 309 309 210
Width: 394
VWidth: 612
GlyphClass: 2
Flags: HMW
HStem: 135 13G
VStem: 175 45<134 144 74 145 74 145>
LayerCount: 2
Fore
SplineSet
163 486 m 5
 229 486 l 5
 334 334 l 5
 280 335 l 5
 203 453 l 5
 192 454 l 5
 112 336 l 5
 60 335 l 5
 163 486 l 5
121 -94 m 5
 150 -60 171 -24 175 16 c 4
 176 49 176 83 176 116 c 4
 176 175 175 235 175 294 c 6
 175 305 l 5
 220 304 l 5
 220 263 l 6
 220 204 220 93 218 16 c 4
 217 -28 174 -74 139 -106 c 5
 121 -94 l 5
EndSplineSet
Validated: 1
EndChar

StartChar: uni0237
Encoding: 567 567 211
Width: 219
VWidth: 590
GlyphClass: 2
Flags: HMW
HStem: 221 12G<114 114>
VStem: 114 45<220 232>
LayerCount: 2
Fore
SplineSet
60 -146 m 5
 89 -103 110 -58 114 -8 c 4
 115 33 115 76 115 117 c 4
 115 191 114 266 114 340 c 6
 114 353 l 5
 159 352 l 5
 159 301 l 6
 159 227 159 89 157 -8 c 4
 156 -63 114 -120 79 -160 c 5
 60 -146 l 5
EndSplineSet
Validated: 1
EndChar

StartChar: gravecomb
Encoding: 768 768 212
Width: 239
VWidth: 866
GlyphClass: 2
Flags: HMW
HStem: 609 116<60 179>
VStem: 60 118<609 725>
LayerCount: 2
Fore
SplineSet
60 725 m 1
 122 725 l 1
 179 609 l 1
 153 611 l 1
 60 725 l 1
EndSplineSet
Validated: 1
EndChar

StartChar: acutecomb
Encoding: 769 769 213
Width: 239
VWidth: 866
GlyphClass: 2
Flags: HMW
HStem: 609 116<60 179>
VStem: 60 118<609 725>
LayerCount: 2
Fore
SplineSet
179 725 m 1
 117 725 l 1
 60 609 l 1
 86 611 l 1
 179 725 l 1
EndSplineSet
Validated: 9
EndChar

StartChar: tildecomb
Encoding: 771 771 214
Width: 395
VWidth: 868
GlyphClass: 2
Flags: HMW
HStem: 626 34<249 272 249 280> 683 31<132 148>
VStem: 315 20<683 709>
LayerCount: 2
Fore
SplineSet
315 709 m 1
 319 709 l 2
 327 709 335 698 335 692 c 0
 335 675 304 626 255 626 c 0
 236 626 222 632 203 647 c 0
 173 671 156 683 140 683 c 0
 123 683 107 668 78 635 c 1
 75 630 l 1
 60 658 l 1
 63 661 l 1
 95 697 117 714 140 714 c 0
 161 714 184 700 215 675 c 0
 227 667 242 660 255 660 c 0
 290 660 312 698 315 709 c 1
EndSplineSet
Validated: 1
EndChar

StartChar: uni0308
Encoding: 776 776 215
Width: 406
VWidth: 868
GlyphClass: 2
Flags: HMW
HStem: 630 80<91 111 90 112>
VStem: 60 84<659 682 657 683> 264 83<661 684 660 685>
LayerCount: 2
Fore
SplineSet
304 712 m 0
 326 712 346 697 346 672 c 0
 346 648 326 632 305 632 c 0
 283 632 264 649 264 673 c 0
 264 697 283 712 304 712 c 0
100 710 m 0
 122 710 144 694 144 669 c 0
 144 645 123 630 102 630 c 0
 80 630 60 647 60 671 c 0
 60 695 79 710 100 710 c 0
EndSplineSet
Validated: 1
EndChar

StartChar: uni030A
Encoding: 778 778 216
Width: 237
VWidth: 870
GlyphClass: 2
Flags: HMW
HStem: 621 22<115 120 115 122> 710 22<117 122>
VStem: 60 27 151 26<670 684>
LayerCount: 2
Fore
SplineSet
118 643 m 0
 136 643 151 660 151 677 c 0
 151 694 139 710 119 710 c 0
 99 710 88 694 88 676 c 0
 88 657 98 643 118 643 c 0
60 676 m 0
 60 706 85 732 119 732 c 0
 152 732 177 705 177 677 c 0
 177 647 150 621 116 621 c 0
 83 621 60 647 60 676 c 0
EndSplineSet
Validated: 1
EndChar

StartChar: uni030B
Encoding: 779 779 217
Width: 224
VWidth: 871
GlyphClass: 2
Flags: W
HStem: 626 107
VStem: 60 104
LayerCount: 2
Fore
SplineSet
164 733 m 1
 120 626 l 1
 101 626 l 1
 142 733 l 1
 164 733 l 1
123 733 m 5
 78 626 l 5
 60 626 l 5
 100 733 l 5
 123 733 l 5
EndSplineSet
Validated: 1
EndChar

StartChar: tonos
Encoding: 900 900 218
Width: 200
VWidth: 860
GlyphClass: 2
Flags: HMW
HStem: 581 139<89 113>
VStem: 60 80
LayerCount: 2
Fore
SplineSet
140 707 m 1
 89 581 l 1
 60 589 l 1
 113 721 l 1
 140 707 l 1
EndSplineSet
Validated: 1
EndChar

StartChar: dieresistonos
Encoding: 901 901 219
Width: 353
VWidth: 913
GlyphClass: 2
Flags: HMW
HStem: 674 80<91 112 91 113>
VStem: 60 84<704 727 702 728> 210 83<707 730 705 731>
LayerCount: 2
Fore
SplineSet
250 758 m 0
 272 758 293 742 293 717 c 0
 293 693 272 677 251 677 c 0
 229 677 210 695 210 719 c 0
 210 743 229 758 250 758 c 0
101 755 m 0
 123 755 144 739 144 714 c 0
 144 690 123 674 102 674 c 0
 80 674 60 692 60 716 c 0
 60 740 80 755 101 755 c 0
236 878 m 1
 191 772 l 1
 162 780 l 1
 209 892 l 1
 236 878 l 1
EndSplineSet
Validated: 1
EndChar

StartChar: Alphatonos
Encoding: 902 902 220
Width: 484
VWidth: 721
GlyphClass: 2
Flags: HMW
HStem: -1 13G<60 102 60 60> 208 52<156 312> 467 139<131 155>
VStem: 102 80
LayerCount: 2
Fore
SplineSet
183 593 m 1
 131 467 l 1
 102 474 l 1
 155 606 l 1
 183 593 l 1
382 0 m 1
 324 209 l 1
 156 208 l 1
 102 -1 l 1
 60 -1 l 1
 219 591 l 1
 267 591 l 1
 424 0 l 1
 382 0 l 1
241 537 m 1
 171 260 l 1
 312 260 l 1
 241 537 l 1
EndSplineSet
Validated: 1
EndChar

StartChar: anoteleia
Encoding: 903 903 221
Width: 200
VWidth: 712
GlyphClass: 2
Flags: HMW
HStem: 240 83<87 110>
VStem: 60 80<270 291>
LayerCount: 2
Fore
SplineSet
60 280 m 0
 60 302 75 322 100 322 c 0
 124 322 140 302 140 281 c 0
 140 259 122 240 98 240 c 0
 74 240 60 259 60 280 c 0
EndSplineSet
Validated: 1
EndChar

StartChar: Epsilontonos
Encoding: 904 904 222
Width: 510
VWidth: 724
GlyphClass: 2
Flags: HMW
HStem: 5 47<218 449 218 450 217 449> 278 47<219 442 219 443 218 442> 538 47<220 445 212 446 220 220>
VStem: 170 48<4 278>
LayerCount: 2
Fore
SplineSet
169 583 m 1
 181 584 198 583 212 585 c 1
 445 585 l 1
 446 571 446 554 446 538 c 1
 220 538 l 1
 220 534 l 2
 220 466 219 397 219 329 c 2
 219 325 l 1
 442 325 l 1
 443 311 443 294 443 278 c 1
 218 278 l 1
 218 51 l 1
 449 51 l 1
 450 37 450 21 450 5 c 1
 217 5 l 1
 217 4 l 1
 170 4 l 1
 169 583 l 1
140 606 m 1
 89 480 l 1
 60 488 l 1
 113 619 l 1
 140 606 l 1
EndSplineSet
Validated: 1
EndChar

StartChar: Etatonos
Encoding: 905 905 223
Width: 596
VWidth: 717
GlyphClass: 2
Flags: HMW
HStem: -3 13G<176 176 176 222> 260 56<217 218>
VStem: 169 49 176 46<-3 10> 485 48<261 261 318 318> 491 46<-1 0>
LayerCount: 2
Fore
SplineSet
176 -3 m 1xd8
 175 196 170 371 169 569 c 1
 215 569 l 1
 215 564 l 2
 215 498 218 394 218 329 c 2
 218 317 l 1
 485 318 l 1
 483 571 l 1
 529 570 l 1
 529 566 l 2
 529 499 533 408 533 342 c 2
 533 299 l 2xe8
 533 203 536 47 536 0 c 2
 536 -1 l 1
 491 -1 l 1xc4
 485 261 l 1
 465 260 435 260 407 260 c 2
 217 260 l 1
 217 246 l 2
 217 161 222 93 222 10 c 2
 222 -3 l 1
 176 -3 l 1xd8
140 577 m 1
 89 451 l 1
 60 459 l 1
 113 590 l 1
 140 577 l 1
EndSplineSet
Validated: 1
EndChar

StartChar: Iotatonos
Encoding: 906 906 224
Width: 342
VWidth: 720
GlyphClass: 2
Flags: HMW
HStem: -1 34<139 187 281 281> 507 29<149 190 149 280>
VStem: 187 49<33 33>
LayerCount: 2
Fore
SplineSet
282 33 m 1
 281 -1 l 1
 240 0 l 1
 139 -1 l 1
 140 33 l 1
 187 33 l 1
 190 507 l 1
 149 507 l 1
 149 536 l 1
 280 536 l 1
 280 508 l 1
 235 507 l 1
 236 33 l 1
 282 33 l 1
140 589 m 1
 89 463 l 1
 60 471 l 1
 113 602 l 1
 140 589 l 1
EndSplineSet
Validated: 1
EndChar

StartChar: Omicrontonos
Encoding: 908 908 225
Width: 613
VWidth: 718
GlyphClass: 2
Flags: HMW
HStem: -1 53<308 336> 542 50<315 344 308 345>
VStem: 99 55<246 339 246 348> 505 48<252 344>
LayerCount: 2
Fore
SplineSet
322 53 m 0
 354 53 386 67 417 92 c 0
 475 139 505 205 505 298 c 0
 505 390 475 459 417 506 c 0
 388 529 360 542 330 542 c 0
 300 542 270 530 241 507 c 0
 181 458 154 388 154 291 c 0
 154 202 180 133 236 87 c 0
 265 64 293 53 322 53 c 0
99 287 m 0
 99 409 136 493 216 551 c 0
 254 579 290 593 326 593 c 0
 362 593 398 579 436 550 c 0
 513 494 553 412 553 297 c 0
 553 181 517 104 438 47 c 0
 396 16 355 -1 316 -1 c 0
 281 -1 245 13 208 41 c 0
 132 97 99 177 99 287 c 0
151 581 m 1
 89 468 l 1
 60 476 l 1
 123 594 l 1
 151 581 l 1
EndSplineSet
Validated: 1
EndChar

StartChar: Upsilontonos
Encoding: 910 910 226
Width: 565
VWidth: 719
GlyphClass: 2
Flags: HMW
HStem: 1 13G<297 346 297 297>
VStem: 297 49<1 1>
LayerCount: 2
Fore
SplineSet
345 256 m 1
 346 1 l 1
 297 1 l 1
 295 255 l 1
 142 539 l 1
 195 539 l 1
 319 320 l 1
 447 541 l 1
 505 542 l 1
 345 256 l 1
135 583 m 1
 89 475 l 1
 60 483 l 1
 107 596 l 1
 135 583 l 1
EndSplineSet
Validated: 1
EndChar

StartChar: Omegatonos
Encoding: 911 911 227
Width: 642
VWidth: 719
GlyphClass: 2
Flags: HMW
HStem: 6 52<582 582> 8 53<124 124> 531 43<333 363 326 363> 578 12G<136 136>
VStem: 112 56<269 302 302 309 264 367> 244 59<60 77 77 78> 385 55<57 59 56 122> 527 49<325 339 339 373 276 374>
LayerCount: 2
Fore
SplineSet
163 576 m 1x3f
 89 461 l 1
 60 469 l 1
 136 590 l 1
 163 576 l 1x3f
440 56 m 2
 582 59 l 1
 582 6 l 1
 388 7 l 1
 386 38 385 44 385 57 c 2
 385 122 l 1
 501 151 523 250 527 325 c 1
 527 339 l 2
 527 409 494 462 438 500 c 0
 409 520 379 531 348 531 c 0
 317 531 286 521 257 501 c 0
 196 460 171 390 167 309 c 1
 167 302 l 2
 167 226 235 148 304 120 c 1
 303 103 302 86 302 70 c 0
 302 47 303 28 303 17 c 0
 303 10 303 6 304 6 c 2xbf
 124 8 l 1
 124 62 l 1x7f
 244 60 l 1
 244 77 l 2
 244 79 243 84 242 98 c 1
 164 145 112 222 112 315 c 0
 112 418 150 489 232 538 c 0
 271 562 307 573 344 573 c 0
 381 573 418 561 457 537 c 0
 536 490 575 421 575 324 c 0
 575 226 520 120 440 98 c 0
 438 97 438 94 438 90 c 0
 438 82 440 70 440 59 c 0
 440 58 440 57 440 56 c 2
EndSplineSet
Validated: 5
EndChar

StartChar: Alpha
Encoding: 913 913 228
Width: 484
VWidth: 716
GlyphClass: 2
Flags: HMW
HStem: -6 13G<60 102 60 60> 203 52<156 312>
LayerCount: 2
Fore
SplineSet
382 -4 m 1
 324 204 l 1
 156 203 l 1
 102 -6 l 1
 60 -6 l 1
 219 587 l 1
 267 587 l 1
 424 -4 l 1
 382 -4 l 1
241 533 m 1
 171 255 l 1
 312 255 l 1
 241 533 l 1
EndSplineSet
Validated: 1
EndChar

StartChar: Beta
Encoding: 914 914 229
Width: 451
VWidth: 713
GlyphClass: 2
Flags: HMW
HStem: -15 44<188 219> 263 46<165 192> 540 43<180 213 156 218>
VStem: 60 40<260 299> 61 35<299 317> 331 46<432 452> 349 42<143 165>
LayerCount: 2
Fore
SplineSet
298 239 m 1xf2
 267 258 214 263 170 263 c 0
 138 263 110 261 100 260 c 1
 102 40 l 1
 116 38 164 29 213 29 c 0
 295 29 336 42 348 129 c 0
 349 135 349 141 349 146 c 0
 349 184 331 213 298 239 c 1xf2
330 418 m 0
 331 423 331 429 331 434 c 0
 331 470 312 498 280 522 c 0
 260 536 233 540 204 540 c 0
 158 540 110 529 96 527 c 1
 97 317 l 1xec
 109 316 145 309 186 309 c 0
 226 309 270 315 299 336 c 0
 335 362 323 365 330 418 c 0
196 -15 m 0
 125 -15 66 -2 64 -1 c 1
 62 -1 l 1
 60 299 l 1xf2
 61 299 l 1
 60 566 l 1
 66 567 121 584 192 584 c 0
 235 584 279 577 310 554 c 0
 352 522 377 484 377 434 c 0xec
 377 427 377 419 376 412 c 0
 367 344 358 325 329 300 c 0
 319 292 303 289 291 285 c 1
 349 262 391 206 391 144 c 0xe2
 391 71 359 23 330 9 c 0
 292 -10 242 -15 196 -15 c 0
EndSplineSet
Validated: 1
EndChar

StartChar: Gamma
Encoding: 915 915 230
Width: 488
VWidth: 707
GlyphClass: 2
Flags: HMW
HStem: -15 13G<60 111 60 60> 501 52<426 427>
VStem: 60 51<-15 -14>
LayerCount: 2
Fore
SplineSet
428 552 m 2
 428 535 428 514 427 501 c 1
 322 501 218 502 113 502 c 1
 111 -14 l 1
 111 -15 l 1
 60 -15 l 1
 62 553 l 1
 62 554 l 1
 184 553 304 554 426 553 c 1
 428 553 l 1
 428 552 l 2
EndSplineSet
Validated: 33
EndChar

StartChar: Delta
Encoding: 916 916 231
Width: 627
VWidth: 715
GlyphClass: 2
Flags: HMW
HStem: -11 61<60 140>
LayerCount: 2
Fore
SplineSet
302 590 m 1
 567 -9 l 1
 119 -11 l 1
 60 -11 l 1
 302 590 l 1
487 52 m 1
 307 477 l 1
 140 50 l 1
 487 52 l 1
EndSplineSet
Validated: 1
EndChar

StartChar: Epsilon
Encoding: 917 917 232
Width: 400
VWidth: 714
GlyphClass: 2
Flags: HMW
HStem: -3 47<108 339 108 340 108 339> 271 47<109 332 109 333 109 332> 531 47<110 336 102 337 110 110>
VStem: 60 50
LayerCount: 2
Fore
SplineSet
339 44 m 1
 340 30 340 13 340 -3 c 1
 247 -3 154 -3 61 -3 c 1
 60 576 l 1
 71 577 81 576 95 577 c 1
 175 577 256 577 336 577 c 1
 337 563 337 547 337 531 c 1
 110 531 l 1
 110 526 l 2
 110 458 109 390 109 322 c 2
 109 318 l 1
 332 318 l 1
 333 304 333 287 333 271 c 1
 109 271 l 1
 108 44 l 1
 339 44 l 1
EndSplineSet
Validated: 33
EndChar

StartChar: Zeta
Encoding: 918 918 233
Width: 509
VWidth: 717
GlyphClass: 2
Flags: HMW
HStem: -1 52<142 159 142 448 104 159> 538 50 542 47<63 63>
LayerCount: 2
Fore
SplineSet
60 -1 m 1xc0
 351 538 l 1
 334 538 l 1xc0
 246 539 154 541 63 542 c 1
 63 589 l 1xa0
 438 587 l 1
 238 209 l 1
 142 51 l 1
 159 51 l 1
 253 50 351 50 449 49 c 1
 448 -1 l 1
 319 -1 189 -1 60 -1 c 1xc0
EndSplineSet
Validated: 1
EndChar

StartChar: Eta
Encoding: 919 919 234
Width: 483
VWidth: 719
GlyphClass: 2
Flags: HMW
HStem: -2 13G<61 61 61 107> 286 56<108 109>
VStem: 60 49 375 48<344 368>
LayerCount: 2
Fore
SplineSet
61 -2 m 1
 60 197 61 397 60 595 c 1
 106 594 l 1
 106 590 l 2
 106 524 109 419 109 354 c 2
 109 342 l 1
 375 344 l 1
 374 597 l 1
 420 595 l 1
 420 591 l 2
 420 524 423 434 423 368 c 2
 423 345 l 1
 422 252 421 53 421 2 c 2
 421 0 l 1
 376 0 l 1
 375 287 l 1
 334 285 257 285 233 285 c 2
 108 286 l 1
 107 190 108 92 107 -2 c 1
 61 -2 l 1
EndSplineSet
Validated: 33
EndChar

StartChar: Theta
Encoding: 920 920 235
Width: 574
VWidth: 714
GlyphClass: 2
Flags: HMW
HStem: -10 53<269 297> 265 44<162 163 162 163 198 370 162 198> 533 50<276 305 269 306>
VStem: 60 55<237 330 237 338> 466 48<242 334>
LayerCount: 2
Fore
SplineSet
60 277 m 0
 60 399 97 483 177 541 c 0
 215 569 251 583 287 583 c 0
 323 583 359 570 397 541 c 0
 474 485 514 402 514 287 c 0
 514 171 478 94 399 37 c 0
 357 6 316 -10 277 -10 c 0
 242 -10 207 3 170 31 c 0
 94 87 60 167 60 277 c 0
284 43 m 0
 316 43 348 58 379 83 c 0
 437 130 466 196 466 289 c 0
 466 381 437 449 379 496 c 0
 350 519 321 533 291 533 c 0
 261 533 231 520 202 497 c 0
 142 448 115 378 115 281 c 0
 115 192 141 124 197 78 c 0
 226 55 255 43 284 43 c 0
163 345 m 1
 198 345 l 1
 198 309 l 1
 370 309 l 1
 370 345 l 1
 406 345 l 1
 406 226 l 1
 370 226 l 1
 370 265 l 1
 198 265 l 1
 198 226 l 1
 163 226 l 1
 163 265 l 1
 162 265 l 1
 162 309 l 1
 163 309 l 1
 163 345 l 1
EndSplineSet
Validated: 1
EndChar

StartChar: Iota
Encoding: 921 921 236
Width: 263
VWidth: 708
GlyphClass: 2
Flags: HMW
HStem: -13 34<60 108 201 201> 525 29<69 110 69 200>
VStem: 108 49<21 21>
LayerCount: 2
Fore
SplineSet
203 21 m 1
 201 -13 l 1
 161 -12 l 1
 60 -13 l 1
 62 21 l 1
 108 21 l 1
 110 525 l 1
 69 525 l 1
 69 554 l 1
 200 554 l 1
 200 526 l 1
 156 525 l 1
 157 21 l 1
 203 21 l 1
EndSplineSet
Validated: 1
EndChar

StartChar: Kappa
Encoding: 922 922 237
Width: 420
VWidth: 717
GlyphClass: 2
Flags: HMW
HStem: -2 13G<360 360> 574 12G<61 68 306 306>
VStem: 60 46<-1 236>
LayerCount: 2
Fore
SplineSet
61 586 m 1
 77 586 94 586 106 585 c 1
 104 353 l 1
 306 586 l 1
 356 587 l 1
 127 296 l 1
 360 -2 l 1
 350 -2 l 1
 334 -1 315 0 304 0 c 1
 106 236 l 1
 106 -1 l 1
 60 -1 l 1
 61 586 l 1
EndSplineSet
Validated: 1
EndChar

StartChar: Lambda
Encoding: 923 923 238
Width: 517
VWidth: 716
GlyphClass: 2
Flags: HMW
HStem: -5 13G<60 111 60 60>
LayerCount: 2
Fore
SplineSet
111 -5 m 1
 60 -5 l 1
 255 587 l 1
 457 -4 l 1
 406 -4 l 1
 255 459 l 1
 111 -5 l 1
EndSplineSet
Validated: 1
EndChar

StartChar: Mu
Encoding: 924 924 239
Width: 607
VWidth: 711
GlyphClass: 2
Flags: HMW
HStem: -8 13G<543 543>
VStem: 60 49 66 46<-10 10> 493 49<-8 26 -8 70> 493 53
LayerCount: 2
Fore
SplineSet
547 343 m 1xc8
 546 256 544 40 543 -8 c 1
 493 -8 l 1x90
 493 26 l 2
 493 114 495 62 495 183 c 0
 495 241 494 338 493 508 c 1
 493 528 l 1
 309 134 l 1
 108 512 l 1
 108 493 l 1
 109 456 110 411 110 376 c 0
 110 365 109 355 109 347 c 0xc8
 109 339 110 331 110 322 c 0
 110 236 112 96 112 10 c 2
 112 -9 l 1
 66 -10 l 1xa0
 65 175 61 375 60 557 c 1
 73 558 88 560 106 560 c 0
 116 560 126 559 133 558 c 1
 305 222 l 1
 458 561 l 1
 545 565 l 1
 545 560 l 2
 545 501 547 414 547 355 c 2
 547 343 l 1xc8
EndSplineSet
Validated: 1
EndChar

StartChar: Nu
Encoding: 925 925 240
Width: 483
VWidth: 719
GlyphClass: 2
Flags: HMW
HStem: -2 13G<61 61 61 107>
VStem: 60 45 375 48
LayerCount: 2
Fore
SplineSet
61 -2 m 1
 60 197 61 397 60 595 c 1
 108 594 l 1
 109 592 l 1
 147 527 211 400 242 345 c 0
 276 284 330 184 373 112 c 2
 384 94 l 1
 382 115 l 2
 378 166 377 228 375 286 c 1
 374 597 l 1
 420 595 l 1
 420 591 l 2
 420 524 423 417 423 351 c 0
 423 349 422 349 422 345 c 0
 421 253 421 48 421 4 c 2
 421 0 l 1
 388 0 l 1
 387 3 l 1
 302 145 198 333 114 475 c 1
 105 490 l 1
 105 473 l 1
 104 422 104 370 104 334 c 2
 104 321 l 2
 104 230 107 98 107 7 c 2
 107 -2 l 1
 61 -2 l 1
EndSplineSet
Validated: 33
EndChar

StartChar: Xi
Encoding: 926 926 241
Width: 451
VWidth: 712
GlyphClass: 2
Flags: HMW
HStem: 28 65<60 391 60 391> 260 65<126 312 126 312> 471 65<60 391 60 391>
LayerCount: 2
Fore
SplineSet
60 28 m 1
 60 93 l 1
 391 93 l 1
 391 28 l 1
 60 28 l 1
60 471 m 1
 60 536 l 1
 391 536 l 1
 391 471 l 1
 60 471 l 1
126 260 m 1
 126 325 l 1
 312 325 l 1
 312 260 l 1
 126 260 l 1
EndSplineSet
Validated: 1
EndChar

StartChar: Omicron
Encoding: 927 927 242
Width: 574
VWidth: 714
GlyphClass: 2
Flags: HMW
HStem: -10 53<269 297> 533 50<276 305 269 306>
VStem: 60 55<237 330 237 338> 466 48<242 334>
LayerCount: 2
Fore
SplineSet
284 43 m 0
 316 43 348 58 379 83 c 0
 437 130 466 196 466 289 c 0
 466 381 437 449 379 496 c 0
 350 519 321 533 291 533 c 0
 261 533 231 520 202 497 c 0
 142 448 115 378 115 281 c 0
 115 192 141 124 197 78 c 0
 226 55 255 43 284 43 c 0
60 277 m 0
 60 399 97 483 177 541 c 0
 215 569 251 583 287 583 c 0
 323 583 359 570 397 541 c 0
 474 485 514 402 514 287 c 0
 514 171 478 94 399 37 c 0
 357 6 316 -10 277 -10 c 0
 242 -10 207 3 170 31 c 0
 94 87 60 167 60 277 c 0
EndSplineSet
Validated: 1
EndChar

StartChar: Pi
Encoding: 928 928 243
Width: 656
VWidth: 705
GlyphClass: 2
Flags: HMW
HStem: -22 13G<195 207> 509 39<186 219>
VStem: 173 46<506 509> 177 46<-6 -1> 451 46<507 510> 455 46<-9 -4>
LayerCount: 2
Fore
SplineSet
173 506 m 1xe0
 83 505 l 2
 70 505 60 515 60 526 c 0
 60 537 70 547 83 547 c 2
 186 548 l 2
 190 549 192 550 195 550 c 0
 198 550 203 549 205 548 c 1
 573 550 l 2
 585 550 596 540 596 529 c 0
 596 518 586 508 573 508 c 2
 497 507 l 1xe8
 501 -4 l 2
 501 -15 492 -25 479 -25 c 0
 466 -25 455 -15 455 -4 c 2xc4
 451 510 l 1
 219 509 l 1xe8
 223 -1 l 2
 223 -12 214 -22 201 -22 c 0
 188 -22 177 -12 177 -1 c 2xd0
 173 506 l 1xe0
EndSplineSet
Validated: 1
EndChar

StartChar: Rho
Encoding: 929 929 244
Width: 430
VWidth: 717
GlyphClass: 2
Flags: HMW
HStem: -7 13G<106 106> 221 50<205 223> 553 39<210 228>
VStem: 60 53 63 44 330 40<386 440>
LayerCount: 2
Fore
SplineSet
217 592 m 0xec
 242 592 266 583 292 565 c 0
 344 530 370 479 370 408 c 0
 370 337 345 286 292 251 c 0
 264 232 237 221 210 221 c 0
 186 221 161 231 136 248 c 0
 128 254 127 258 119 266 c 1
 108 283 l 1
 106 -7 l 1
 60 -5 l 1xf4
 63 478 l 1
 67 488 87 540 111 556 c 1
 137 591 191 592 217 592 c 0xec
273 294 m 0
 311 321 330 359 330 413 c 0
 330 466 312 506 274 533 c 0
 256 546 238 553 219 553 c 0
 200 553 182 546 164 533 c 0
 124 505 108 465 108 409 c 0xec
 108 357 123 318 160 291 c 0
 178 278 196 271 214 271 c 0
 234 271 253 280 273 294 c 0
EndSplineSet
Validated: 1
EndChar

StartChar: Sigma
Encoding: 931 931 245
Width: 577
VWidth: 701
GlyphClass: 2
Flags: HMW
HStem: -19 41 480 40 485 41<484 489 483 490>
LayerCount: 2
Fore
SplineSet
127 480 m 1xc0
 322 284 l 2
 326 280 328 275 328 270 c 0
 328 265 326 260 323 256 c 2
 125 21 l 1
 498 25 l 2
 509 25 517 16 517 5 c 0
 517 -6 509 -16 498 -16 c 2
 81 -19 l 2
 69 -19 61 -9 61 1 c 0
 61 5 63 10 66 14 c 2
 280 268 l 1
 65 486 l 2
 61 490 60 495 60 499 c 0
 60 509 66 520 79 520 c 2xc0
 483 525 l 2
 494 525 504 516 504 505 c 0
 504 494 495 485 484 485 c 2xa0
 127 480 l 1xc0
EndSplineSet
Validated: 1
EndChar

StartChar: Tau
Encoding: 932 932 246
Width: 548
VWidth: 707
GlyphClass: 2
Flags: HMW
HStem: -16 13G<248 297 248 248> 501 50<60 250 60 60>
VStem: 250 49<500 501 500 501>
LayerCount: 2
Fore
SplineSet
60 551 m 1
 203 550 345 551 488 550 c 1
 488 534 487 513 486 501 c 1
 299 501 l 1
 299 500 l 1
 297 -16 l 1
 248 -16 l 1
 249 157 249 328 250 500 c 1
 250 501 l 1
 60 501 l 1
 60 551 l 1
EndSplineSet
Validated: 33
EndChar

StartChar: Upsilon
Encoding: 933 933 247
Width: 483
VWidth: 717
GlyphClass: 2
Flags: HMW
HStem: -2 13G<215 264 215 215> 573 12G<60 113 113 113>
VStem: 215 49<-2 -2>
LayerCount: 2
Fore
SplineSet
263 254 m 1
 264 -2 l 1
 215 -2 l 1
 214 253 l 1
 60 585 l 1
 113 585 l 1
 238 318 l 1
 365 587 l 1
 423 588 l 1
 263 254 l 1
EndSplineSet
Validated: 1
EndChar

StartChar: Phi
Encoding: 934 934 248
Width: 574
VWidth: 722
GlyphClass: 2
Flags: HMW
HStem: 2 13G 68 44 510 41
VStem: 60 55<278 344 278 351> 262 46<49 104 104 104> 466 48<282 348>
LayerCount: 2
Fore
SplineSet
264 486 m 1
 243 482 222 476 202 464 c 0
 142 430 115 378 115 310 c 0
 115 247 141 198 197 166 c 0
 219 153 241 146 263 143 c 1
 264 486 l 1
309 144 m 1
 333 148 356 157 379 170 c 0
 437 203 466 249 466 315 c 0
 466 380 437 429 379 463 c 0
 356 476 333 485 309 488 c 1
 309 144 l 1
60 308 m 0
 60 394 97 453 177 494 c 0
 208 510 237 520 265 523 c 1
 265 567 l 1
 196 567 l 1
 196 608 l 1
 382 608 l 1
 382 567 l 1
 309 567 l 1
 309 524 l 1
 338 521 366 510 397 494 c 0
 474 454 514 397 514 315 c 0
 514 233 478 177 399 137 c 0
 368 121 338 110 309 105 c 1
 309 48 l 1
 262 49 l 1
 262 104 l 1
 231 106 202 115 170 132 c 0
 94 172 60 229 60 308 c 0
189 6 m 1
 189 47 l 1
 375 47 l 1
 375 6 l 1
 189 6 l 1
EndSplineSet
Validated: 1
EndChar

StartChar: Chi
Encoding: 935 935 249
Width: 487
VWidth: 710
GlyphClass: 2
Flags: HMW
HStem: -10 13G<63 121 63 63 374 427 374 374>
LayerCount: 2
Fore
SplineSet
427 -10 m 1
 374 -10 l 1
 246 246 l 1
 121 -10 l 1
 63 -10 l 1
 219 279 l 1
 60 561 l 1
 113 561 l 1
 243 335 l 1
 366 563 l 1
 424 564 l 1
 273 275 l 1
 427 -10 l 1
EndSplineSet
Validated: 1
EndChar

StartChar: Psi
Encoding: 936 936 250
Width: 511
VWidth: 718
GlyphClass: 2
Flags: HMW
HStem: 146 59 152 56
VStem: 66 50 71 51 385 56 388 47
LayerCount: 2
Fore
SplineSet
227 158 m 1x40
 197 163 161 172 144 188 c 0
 79 241 67 320 61 424 c 2
 60 441 l 1
 60 455 l 2
 60 475 59 482 60 482 c 0
 61 482 63 446 64 446 c 0
 65 446 64 453 64 473 c 2
 64 488 l 1
 118 484 l 1
 118 476 l 2
 118 453 117 446 116 446 c 0
 115 446 114 453 113 453 c 0
 112 453 112 450 112 440 c 2
 112 435 l 1
 115 351 120 287 169 244 c 0
 185 229 211 223 228 218 c 1
 229 547 l 1
 159 547 l 1
 159 596 l 1
 229 596 l 1
 229 599 l 1
 277 598 l 1
 277 596 l 1
 349 596 l 1
 349 547 l 1
 277 547 l 1
 277 215 l 1
 299 217 324 223 342 240 c 0
 374 271 385 319 396 365 c 1
 396 367 l 1
 397 374 397 376 397 376 c 1
 397 376 395 364 394 364 c 0
 393 364 393 371 393 393 c 0
 393 434 396 420 396 431 c 0
 396 434 395 439 394 448 c 2
 392 482 l 1
 447 483 l 1
 448 448 448 439 449 439 c 0
 450 439 450 455 451 455 c 0
 452 455 451 445 451 406 c 0
 451 379 446 352 445 325 c 1
 422 223 376 174 278 152 c 1
 278 46 l 1
 349 46 l 1
 349 -5 l 1
 154 -5 l 1
 154 46 l 1
 226 46 l 1
 227 158 l 1x40
EndSplineSet
Validated: 33
EndChar

StartChar: uni03A9
Encoding: 937 937 251
Width: 589
VWidth: 712
GlyphClass: 2
Flags: HMW
HStem: -3 52 521 43<280 310 274 311>
VStem: 60 56 333 58 333 46 475 49<315 329 329 363 266 364>
LayerCount: 2
Fore
SplineSet
384 41 m 1xec
 529 42 l 1
 529 -3 l 1
 335 -3 l 1
 333 28 333 34 333 47 c 0xf4
 333 58 333 73 333 113 c 1
 449 142 471 240 475 315 c 1
 475 329 l 2
 475 399 441 453 385 491 c 0
 356 511 326 521 295 521 c 0
 264 521 234 512 205 492 c 0
 144 451 108 380 104 299 c 1
 104 293 l 2
 104 217 182 139 251 111 c 1
 249 82 249 53 249 32 c 0
 249 22 249 13 249 7 c 0
 249 0 249 -3 250 -3 c 2
 61 -4 l 1
 61 39 l 1
 192 41 l 1
 192 46 191 49 191 51 c 0
 191 56 192 55 192 57 c 0
 192 59 191 74 190 88 c 1
 112 135 60 213 60 306 c 0
 60 409 98 479 180 528 c 0
 219 552 255 564 292 564 c 0
 329 564 366 552 405 528 c 0
 484 481 523 412 523 315 c 0
 523 217 466 105 386 83 c 0
 384 82 384 78 384 73 c 2
 384 41 l 1xec
EndSplineSet
Validated: 1
EndChar

StartChar: alpha
Encoding: 945 945 252
Width: 562
VWidth: 636
GlyphClass: 2
Flags: HMW
HStem: -93 41<200 252 183 258> 212 38<240 288>
VStem: 60 43<55 92 55 95> 451 43<274 275 275 275>
LayerCount: 2
Fore
SplineSet
502 6 m 5
 488 2 475 -5 461 -8 c 5
 459 -7 457 -7 456 -5 c 4
 440 39 445 86 433 126 c 5
 386 48 311 -20 207 -20 c 4
 194 -20 180 -19 166 -17 c 4
 119 -9 93 25 75 62 c 4
 65 85 60 112 60 138 c 4
 60 198 87 260 146 293 c 4
 186 315 222 323 254 323 c 4
 332 323 389 271 429 221 c 5
 444 267 451 309 451 340 c 6
 451 348 l 5
 460 348 l 5
 484 349 l 5
 493 349 l 5
 493 340 l 6
 493 295 482 237 458 179 c 4
 458 178 457 178 457 177 c 4
 458 176 457 177 457 176 c 4
 485 121 478 60 495 11 c 5
 502 6 l 5
409 176 m 4
 408 177 409 176 409 177 c 4
 372 234 323 285 253 285 c 4
 226 285 196 277 162 259 c 4
 125 239 103 191 103 139 c 4
 103 117 107 94 116 73 c 4
 133 34 160 21 206 21 c 4
 299 21 367 91 409 176 c 4
EndSplineSet
Validated: 1
EndChar

StartChar: beta
Encoding: 946 946 253
Width: 439
VWidth: 640
GlyphClass: 2
Flags: HMW
HStem: -292 2<63 63 63 69 61 63> -97 39<208 209 209 245 208 251> 240 38<164 164 164 169> 454 39<164 195>
VStem: 60 38<378 441> 66 39<-47 31 -51 69> 287 40<341 373 341 381> 340 38<91 135 91 138>
LayerCount: 2
Fore
SplineSet
132 48 m 5xfb
 158 32 185 22 208 22 c 6
 209 22 l 6
 282 22 340 101 340 183 c 4
 340 254 299 320 169 320 c 6
 102 320 l 5
 103 228 105 151 105 71 c 4
 105 -13 104 -102 102 -212 c 5
 61 -212 l 5
 63 -210 l 5
 65 -100 66 -10 66 76 c 4xf7
 66 223 63 365 60 517 c 5
 60 521 l 5
 83 556 132 573 179 573 c 4
 258 573 327 530 327 449 c 4
 327 393 304 363 263 345 c 5
 346 316 379 249 379 181 c 4
 379 161 375 141 370 121 c 4
 350 50 292 -17 210 -17 c 4
 170 -17 136 -3 111 16 c 5
 109 16 l 5
 110 18 l 5
 113 20 l 5
 127 41 l 5
 130 47 l 5
 131 48 l 5
 132 48 l 5xfb
99 507 m 5
 99 496 99 486 99 476 c 4
 99 440 98 415 98 384 c 4
 98 376 98 367 98 357 c 5xfb
 164 358 l 6
 249 360 287 379 287 445 c 4
 287 476 278 496 259 510 c 4
 239 526 209 534 180 534 c 4
 148 534 117 524 99 507 c 5
EndSplineSet
Validated: 1
EndChar

StartChar: gamma
Encoding: 947 947 254
Width: 439
VWidth: 668
GlyphClass: 2
Flags: HMW
HStem: -140 43<248 270 269 270>
VStem: 187 50<-57 -40> 306 43<-48 -25> 337 42<246 299>
LayerCount: 2
Fore
SplineSet
270 -97 m 2xe0
 301 -97 306 -60 306 -37 c 0
 306 -13 291 25 281 44 c 1
 256 15 238 -2 238 -45 c 0
 238 -70 246 -89 253 -93 c 0
 257 -95 262 -97 269 -97 c 2
 270 -97 l 2xe0
60 165 m 1
 66 177 73 189 79 201 c 1
 87 198 l 1
 145 169 224 138 280 93 c 1
 312 135 337 189 337 264 c 0
 337 334 312 406 238 440 c 1
 232 442 l 1
 223 446 l 1
 231 459 239 471 246 484 c 1
 254 480 263 478 271 474 c 0
 351 434 379 352 379 275 c 0xd0
 379 186 347 124 312 75 c 1
 325 52 349 3 349 -37 c 0
 349 -74 328 -140 270 -140 c 2
 255 -140 l 2
 242 -140 231 -132 222 -128 c 0
 198 -115 187 -85 187 -54 c 0
 187 -26 196 2 211 23 c 0
 217 31 229 53 248 69 c 1
 197 109 121 138 60 165 c 1
EndSplineSet
Validated: 1
EndChar

StartChar: delta
Encoding: 948 948 255
Width: 467
VWidth: 704
GlyphClass: 2
Flags: HMW
HStem: -25 41<209 242 209 260> 508 40<233 259>
VStem: 60 43<124 149 124 156> 72 42<384 414 378 414> 366 41<108 126>
LayerCount: 2
Fore
SplineSet
175 264 m 1xe8
 130 295 72 336 72 400 c 0
 72 429 87 461 122 496 c 1
 164 532 206 548 250 548 c 0
 275 548 299 543 325 534 c 1
 327 534 l 1
 332 532 l 1
 336 531 l 1
 340 529 l 1
 337 527 334 525 330 523 c 0
 324 513 319 505 318 492 c 1
 297 500 269 508 248 508 c 0
 217 508 188 497 153 468 c 0
 133 451 114 428 114 399 c 0
 114 355 170 317 239 276 c 0
 292 248 326 232 360 204 c 0
 383 181 407 150 407 115 c 0
 407 84 391 50 350 15 c 0
 322 -9 283 -25 236 -25 c 0
 161 -25 97 21 72 76 c 0xd8
 65 91 60 112 60 130 c 0
 60 182 94 233 175 264 c 1xe8
330 174 m 0
 302 195 259 216 218 238 c 1
 217 240 l 1
 213 241 l 1
 213 244 l 1
 212 244 214 244 213 244 c 1
 210 243 207 242 204 241 c 0
 126 214 103 167 103 130 c 0xe8
 103 118 105 108 109 98 c 0
 127 52 181 16 237 16 c 0
 280 16 312 35 336 59 c 0
 338 61 339 64 341 66 c 0
 358 85 366 101 366 116 c 0
 366 136 353 154 330 174 c 0
EndSplineSet
Validated: 5
EndChar

StartChar: epsilon
Encoding: 949 949 256
Width: 512
VWidth: 654
GlyphClass: 2
Flags: HMW
HStem: -69 38<238 292 238 296> 139 37<254 270 254 266> 144 37<395 400 393 401 395 395> 304 39<226 291>
VStem: 60 46<37 53 37 58> 72 44<216 231 216 236>
LayerCount: 2
Fore
SplineSet
452 46 m 5x98
 400 9 332 -9 264 -9 c 4
 203 -9 143 5 98 33 c 4
 77 46 60 74 60 105 c 4x98
 60 131 76 159 93 175 c 4
 106 188 126 200 149 210 c 5
 88 226 72 258 72 292 c 4x94
 72 299 73 306 74 313 c 4
 83 367 172 403 267 403 c 4
 324 403 364 391 408 372 c 5
 385 339 l 5
 348 355 314 364 267 364 c 4
 184 364 123 330 119 307 c 4
 118 300 117 295 117 288 c 4
 117 264 126 245 215 238 c 4
 229 237 245 236 263 236 c 4
 294 240 328 241 366 241 c 6
 400 241 l 5
 401 204 l 5
 395 204 l 5
 348 200 305 199 270 199 c 6
 266 199 l 5
 250 197 234 194 222 192 c 4
 172 182 142 167 126 151 c 4
 110 136 106 120 106 106 c 4
 106 89 113 74 121 67 c 4
 122 66 124 65 125 64 c 4
 162 42 212 29 264 29 c 4
 320 29 379 44 422 75 c 5
 452 46 l 5x98
EndSplineSet
Validated: 1
EndChar

StartChar: zeta
Encoding: 950 950 257
Width: 489
VWidth: 561
GlyphClass: 2
Flags: HMW
HStem: 333 40<61 62 61 61> 338 37
VStem: 80 46<-58 -1 -58 7> 384 45<-324 -292>
LayerCount: 2
Fore
SplineSet
163 -396 m 6x30
 163 -395 163 -395 163 -394 c 6
 161 -393 l 5
 162 -392 162 -392 163 -391 c 4
 271 -325 384 -244 384 -150 c 4
 384 -133 382 -116 376 -97 c 4
 365 -62 112 -65 101 41 c 4
 100 46 93 53 91 55 c 4
 84 66 80 81 80 99 c 4
 80 214 220 448 336 486 c 5
 344 489 l 5
 335 488 l 5
 332 488 l 5
 62 483 l 5
 61 483 l 5
 61 488 l 5
 60 506 l 5
 60 522 l 5
 62 522 l 5
 381 525 l 5
 383 525 l 5
 382 486 l 5
 354 467 316 432 277 389 c 4
 203 306 126 192 126 107 c 4
 126 78 134 52 156 32 c 4
 290 -93 415 -17 428 -105 c 4
 429 -110 429 -116 429 -121 c 4
 429 -227 283 -353 178 -417 c 5
 176 -418 l 5
 173 -411 171 -410 169 -406 c 6
 163 -396 l 6x30
163 -396 m 1028
EndSplineSet
Validated: 1
EndChar

StartChar: eta
Encoding: 951 951 258
Width: 427
VWidth: 543
GlyphClass: 2
Flags: HMW
HStem: -177 13G<60 101 60 60> 130 43<204 223>
VStem: 60 41<-177 -150 -177 171> 60 49<127 127 127 171 127 171> 324 43<-2 -2>
LayerCount: 2
Fore
SplineSet
109 287 m 5xd8
 132 310 176 333 211 333 c 4
 237 333 263 324 289 306 c 4
 340 272 365 225 367 158 c 5
 366 97 366 -226 365 -293 c 5
 322 -294 l 5
 322 -248 324 121 324 137 c 6
 324 158 l 5
 322 208 306 244 269 270 c 4
 250 284 232 290 213 290 c 4
 163 290 115 241 103 202 c 5
 101 173 100 115 100 62 c 4
 100 40 100 21 101 10 c 5
 101 -17 l 5
 60 -17 l 5xe8
 60 331 l 5
 109 331 l 5
 109 287 l 5xd8
101 10 m 1028
EndSplineSet
Validated: 1
EndChar

StartChar: theta
Encoding: 952 952 259
Width: 417
VWidth: 693
GlyphClass: 2
Flags: HMW
HStem: -47 57<197 215> 201 53<103 316 103 316 101 316> 457 55<202 220 199 222>
VStem: 60 43<254 260 254 283> 316 41<194 201 201 201>
LayerCount: 2
Fore
SplineSet
357 251 m 4
 357 142 328 59 277 6 c 4
 251 -22 227 -37 203 -37 c 4
 182 -37 159 -26 136 0 c 4
 86 52 60 132 60 236 c 4
 60 350 89 430 142 485 c 4
 166 511 188 522 209 522 c 4
 231 522 254 510 278 484 c 4
 330 431 357 360 357 251 c 4
316 201 m 4
 316 204 316 208 316 211 c 5
 101 211 l 5
 101 210 101 209 101 208 c 6
 102 204 l 5
 102 201 l 5
 107 141 123 87 152 52 c 4
 169 32 187 20 206 20 c 4
 228 20 248 35 267 57 c 4
 297 91 310 142 316 201 c 4
103 273 m 4
 103 270 103 267 103 264 c 5
 316 264 l 5
 316 270 l 5
 315 273 l 5
 308 327 297 401 268 435 c 4
 251 455 232 467 212 467 c 4
 192 467 172 456 155 435 c 4
 126 401 110 328 103 273 c 4
EndSplineSet
Validated: 1
EndChar

StartChar: iota
Encoding: 953 953 260
Width: 270
VWidth: 623
GlyphClass: 2
Flags: HMW
HStem: 215 1<93 95>
VStem: 208 2
LayerCount: 2
Fore
SplineSet
164 -7 m 4
 85 -7 60 39 60 105 c 4
 60 169 83 246 93 305 c 5
 93 306 l 5
 95 306 l 5
 135 305 l 5
 134 303 l 5
 122 228 101 153 101 101 c 4
 101 57 116 32 166 32 c 4
 177 32 194 34 208 36 c 5
 208 30 l 5
 210 -3 l 5
 194 -5 177 -7 164 -7 c 4
EndSplineSet
Validated: 1
EndChar

StartChar: kappa
Encoding: 954 954 261
Width: 372
VWidth: 715
GlyphClass: 2
Flags: HMW
HStem: -4 13G<64 104 64 64> 293 35<289 312>
VStem: 64 38
LayerCount: 2
Fore
SplineSet
110 160 m 1
 309 -6 l 1
 254 -3 l 1
 101 122 l 1
 104 -4 l 1
 64 -4 l 1
 60 343 l 1
 100 343 l 1
 101 200 l 1
 124 268 215 311 289 328 c 1
 312 293 l 1
 267 289 191 283 110 160 c 1
EndSplineSet
Validated: 1
EndChar

StartChar: lambda
Encoding: 955 955 262
Width: 398
VWidth: 774
GlyphClass: 2
Flags: HMW
HStem: 52 13G<60 101 60 60 299 299>
LayerCount: 2
Fore
SplineSet
338 -7 m 5
 299 -8 l 5
 299 -7 l 5
 297 -7 l 5
 216 208 l 5
 101 -8 l 5
 60 -8 l 5
 194 256 l 5
 96 522 l 5
 137 522 l 5
 160 469 338 -7 338 -7 c 5
EndSplineSet
Validated: 1
EndChar

StartChar: uni03BC
Encoding: 956 956 263
Width: 451
VWidth: 626
GlyphClass: 2
Flags: HMW
HStem: -94 13G<348 348> -78 43<201 219>
VStem: 60 40 63 41<-341 -32> 322 43
LayerCount: 2
Fore
SplineSet
105 38 m 5xd8
 105 -264 l 5
 63 -271 l 5xd8
 60 301 l 5
 102 300 l 5
 102 290 101 282 101 273 c 4
 99 250 99 251 99 220 c 4
 99 182 99 144 100 124 c 5xe8
 108 97 132 73 155 56 c 4
 174 42 192 35 211 35 c 4
 228 35 246 42 265 55 c 4
 301 80 320 113 322 162 c 5
 322 298 l 5
 366 296 l 5
 366 237 365 220 365 161 c 4
 365 157 363 151 364 146 c 4
 365 138 365 130 365 122 c 4
 365 103 363 84 363 65 c 4
 363 34 368 3 391 -23 c 5
 348 -24 l 5
 332 -9 322 8 322 31 c 4
 322 37 323 44 324 49 c 5
 311 38 301 27 285 17 c 4
 259 0 233 -8 208 -8 c 4
 173 -8 136 12 109 35 c 5
 106 37 l 5
 105 38 l 5xd8
101 274 m 1028
EndSplineSet
Validated: 1
EndChar

StartChar: nu
Encoding: 957 957 264
Width: 425
VWidth: 712
GlyphClass: 2
Flags: HMW
HStem: -9 13G<165 218 165 165>
VStem: 297 49<331 331>
LayerCount: 2
Fore
SplineSet
365 232 m 0
 365 116 296 34 218 -9 c 1
 165 -9 l 1
 158 52 156 109 140 163 c 0
 126 212 98 257 60 289 c 1
 86 326 l 1
 114 296 137 263 156 226 c 0
 179 182 195 139 195 79 c 0
 195 64 194 48 192 34 c 1
 262 63 318 135 318 231 c 0
 318 266 311 300 297 331 c 1
 345 331 l 1
 358 300 365 266 365 232 c 0
EndSplineSet
Validated: 1
EndChar

StartChar: xi
Encoding: 958 958 265
Width: 455
VWidth: 641
GlyphClass: 2
Flags: HMW
HStem: 370 40<61 61 61 65 60 65>
VStem: 90 31<244 276 244 289> 101 31<-21 21> 361 32<-249 -199>
LayerCount: 2
Fore
SplineSet
392 273 m 6xd0
 392 272 392 272 392 271 c 4
 390 266 387 259 385 254 c 5
 390 241 l 5
 391 240 l 5
 392 238 l 5
 392 237 l 5
 390 237 l 5
 389 236 l 5
 387 236 l 5
 203 194 132 116 132 73 c 6
 132 69 l 5
 138 11 357 14 383 -59 c 4
 390 -79 393 -99 393 -118 c 4
 393 -218 295 -293 183 -354 c 5
 179 -356 l 5
 178 -355 l 5
 177 -355 l 5
 175 -351 173 -348 171 -344 c 6
 164 -334 l 5
 164 -333 l 5
 162 -331 l 5
 162 -330 l 5
 163 -329 164 -329 165 -328 c 4
 275 -268 361 -201 361 -117 c 4
 361 -101 359 -86 353 -69 c 4
 343 -41 112 -34 101 64 c 4
 100 68 101 71 101 75 c 4xb0
 101 146 174 209 307 253 c 5
 202 272 90 273 90 356 c 4
 90 403 163 442 249 470 c 5
 65 460 l 5
 61 460 l 5
 61 467 l 5
 60 482 l 5
 60 500 l 5
 65 500 l 5
 388 502 l 5
 392 502 l 5
 392 501 l 5
 394 469 l 5
 394 465 l 5
 395 463 l 5
 392 463 l 5
 391 462 l 5
 165 418 121 376 121 356 c 4
 121 313 228 319 388 275 c 5
 390 274 l 5
 391 274 l 5
 392 273 l 6xd0
EndSplineSet
Validated: 1
EndChar

StartChar: omicron
Encoding: 959 959 266
Width: 438
VWidth: 717
GlyphClass: 2
Flags: HMW
HStem: -14 47<207 226 207 227> 314 45<212 231>
VStem: 60 50<145 199 145 205> 332 46<148 201>
LayerCount: 2
Fore
SplineSet
216 33 m 0
 236 33 257 41 277 55 c 0
 315 82 332 121 332 175 c 0
 332 228 315 266 277 293 c 0
 258 306 240 314 221 314 c 0
 202 314 185 307 166 294 c 0
 126 266 110 226 110 170 c 0
 110 118 124 78 161 52 c 0
 180 39 198 33 216 33 c 0
60 168 m 0
 60 242 85 295 140 332 c 0
 167 349 193 359 219 359 c 0
 245 359 272 350 299 332 c 0
 352 297 378 245 378 174 c 0
 378 103 352 51 298 16 c 0
 269 -3 241 -14 212 -14 c 0
 186 -14 160 -4 134 13 c 0
 82 48 60 100 60 168 c 0
EndSplineSet
Validated: 1
EndChar

StartChar: pi
Encoding: 960 960 267
Width: 509
VWidth: 703
GlyphClass: 2
Flags: HMW
HStem: -19 13G<148 160> 261 36<139 172 139 170>
VStem: 128 42<256 261 258 261> 132 42<-4 1> 332 43<257 262 257 262> 336 42<-7 -2 -8 -2>
LayerCount: 2
Fore
SplineSet
128 258 m 1xe0
 126 258 l 1
 81 257 l 2
 69 257 60 265 60 276 c 0
 60 287 69 296 81 296 c 2
 139 297 l 1
 140 297 l 1
 144 298 146 298 149 298 c 0
 151 298 156 298 158 297 c 1
 427 298 l 2
 438 298 449 289 449 279 c 0
 449 268 440 259 428 259 c 0
 410 259 392 259 374 259 c 1
 374 257 l 1xe8
 378 -2 l 2
 378 -13 368 -21 357 -21 c 0
 345 -21 336 -12 336 -2 c 2xc4
 332 261 l 1
 332 262 l 1
 330 262 l 1
 172 261 l 1
 170 261 l 1
 170 259 l 1xe8
 174 1 l 2
 174 -10 165 -19 154 -19 c 0
 142 -19 132 -9 132 1 c 2xd0
 128 256 l 1
 128 258 l 1xe0
EndSplineSet
Validated: 1
EndChar

StartChar: rho
Encoding: 961 961 268
Width: 424
VWidth: 641
GlyphClass: 2
Flags: HMW
HStem: -88 47<202 220> 247 36<207 226>
VStem: 63 41 327 37<77 132>
LayerCount: 2
Fore
SplineSet
214 353 m 4
 239 353 262 344 287 326 c 4
 339 291 364 240 364 169 c 4
 364 98 338 47 286 12 c 4
 259 -7 233 -18 207 -18 c 4
 184 -18 160 -8 136 9 c 4
 128 15 126 18 118 26 c 5
 108 43 l 5
 105 47 l 5
 105 42 l 5
 103 -246 l 5
 60 -244 l 5
 63 240 l 5
 67 251 87 301 110 317 c 5
 135 351 189 353 214 353 c 4
211 29 m 4
 231 29 250 38 270 52 c 4
 308 80 327 119 327 174 c 4
 327 229 309 268 271 296 c 4
 253 309 235 317 216 317 c 4
 197 317 179 310 161 297 c 4
 121 269 105 228 105 170 c 4
 105 118 120 77 157 49 c 4
 175 36 193 29 211 29 c 4
EndSplineSet
Validated: 1
EndChar

StartChar: sigma1
Encoding: 962 962 269
Width: 396
VWidth: 613
GlyphClass: 2
Flags: HMW
HStem: 217 38<212 229>
VStem: 68 43<55 96 55 102> 238 34<-205 -172> 254 82<162 186>
LayerCount: 2
Fore
SplineSet
270 242 m 5xd0
 255 252 236 257 221 257 c 4
 203 257 186 250 168 236 c 4
 129 207 111 166 111 107 c 4
 111 84 113 63 120 44 c 5
 121 43 l 5
 124 42 126 39 127 34 c 4
 127 32 127 29 127 27 c 4
 138 5 158 -17 181 -28 c 4
 208 -40 242 -49 254 -65 c 4
 265 -79 271 -101 271 -121 c 4
 271 -210 168 -330 78 -385 c 5
 76 -386 l 5
 75 -385 76 -387 75 -386 c 5
 75 -385 l 5
 74 -385 l 5
 72 -381 70 -378 68 -374 c 6
 62 -364 l 5
 61 -362 l 5
 60 -361 l 5
 60 -359 l 5
 64 -357 67 -355 71 -353 c 4
 159 -297 238 -206 238 -139 c 4xe0
 238 -126 235 -114 228 -103 c 4
 218 -87 203 -96 197 -79 c 4
 196 -78 197 -77 196 -76 c 4
 176 -72 154 -60 134 -47 c 4
 120 -39 106 -27 96 -6 c 5
 77 24 68 61 68 104 c 4
 68 180 91 232 145 269 c 4
 170 286 195 296 219 296 c 4
 257 296 310 267 331 238 c 4
 335 234 336 229 336 223 c 4
 336 219 335 216 335 211 c 4
 335 194 334 185 320 178 c 4
 312 174 303 170 296 170 c 4
 289 170 283 173 275 177 c 4
 260 185 254 195 254 210 c 4
 254 224 260 235 270 242 c 5xd0
62 -364 m 1028
EndSplineSet
Validated: 1
EndChar

StartChar: sigma
Encoding: 963 963 270
Width: 518
VWidth: 700
GlyphClass: 2
Flags: HMW
HStem: -44 39<198 224 224 227> 265 40<165 249>
VStem: 60 37<129 150 129 157> 348 40<136 155>
LayerCount: 2
Fore
SplineSet
224 -4 m 6
 165 -4 106 42 80 79 c 4
 62 104 60 155 60 183 c 4
 60 211 70 269 99 297 c 5
 112 322 157 341 165 345 c 5
 455 347 l 5
 458 306 l 5
 336 305 l 5
 330 305 l 5
 341 294 356 283 364 270 c 4
 379 243 389 216 389 190 c 4
 389 161 379 111 362 81 c 4
 332 23 289 -2 227 -4 c 5
 224 -4 l 6
116 98 m 4
 140 56 175 35 222 35 c 4
 270 35 305 56 329 99 c 4
 342 121 348 163 348 185 c 4
 348 205 342 226 330 246 c 4
 306 287 272 305 226 305 c 4
 176 305 138 285 114 241 c 4
 102 221 97 201 97 180 c 4
 97 159 103 118 116 98 c 4
348 289 m 1028
EndSplineSet
Validated: 1
EndChar

StartChar: tau
Encoding: 964 964 271
Width: 361
VWidth: 709
GlyphClass: 2
Flags: HMW
HStem: -12 37<225 237> 274 44<60 157 60 301 195 195 195 301>
VStem: 130 37<73 118 73 126> 157 38<273 274 273 274 273 274> 274 3<-12 -9 -12 -9 -12 -8>
LayerCount: 2
Fore
SplineSet
230 -12 m 0xd8
 155 -12 130 34 130 99 c 0xe8
 130 153 147 218 157 273 c 1
 157 274 l 1
 60 274 l 1
 60 319 l 1
 301 319 l 1
 301 274 l 1
 195 274 l 1
 195 273 l 1
 184 206 166 142 166 95 c 0
 166 51 181 25 231 25 c 0
 242 25 257 27 271 29 c 1
 271 24 l 1
 274 -8 l 1
 258 -10 243 -12 230 -12 c 0xd8
274 -12 m 1
 274 -9 l 1
 275 -8 277 -7 277 -9 c 2
 277 -12 l 1
 274 -12 l 1
EndSplineSet
Validated: 1
EndChar

StartChar: upsilon
Encoding: 965 965 272
Width: 449
VWidth: 709
GlyphClass: 2
Flags: HMW
HStem: -24 43<238 256 238 266>
VStem: 92 43<146 154> 345 43<135 179 116 190>
LayerCount: 2
Fore
SplineSet
246 29 m 4
 316 29 345 103 345 168 c 4
 345 231 324 294 306 313 c 5
 308 320 332 335 339 339 c 5
 353 311 389 229 389 148 c 4
 389 104 377 62 348 29 c 4
 319 -3 284 -14 249 -14 c 4
 224 -14 197 -6 171 11 c 4
 120 43 96 90 92 155 c 4
 92 174 93 194 93 214 c 4
 93 257 88 300 60 336 c 5
 103 337 l 5
 134 306 135 211 135 170 c 6
 135 156 l 5
 137 107 156 74 192 49 c 4
 211 36 229 29 246 29 c 4
92 156 m 1028
EndSplineSet
Validated: 1
EndChar

StartChar: phi
Encoding: 966 966 273
Width: 424
VWidth: 717
GlyphClass: 2
Flags: HMW
HStem: -13 41<203 216 203 216> 319 40<205 214 214 215 200 222>
VStem: 60 44<140 199 140 206> 233 35<347 360 347 360> 325 39<143 197>
LayerCount: 2
Fore
SplineSet
271 342 m 1
 333 311 364 252 364 174 c 0
 364 102 340 51 287 16 c 0
 259 -3 233 -13 207 -13 c 2
 203 -13 l 1
 203 -15 l 1
 202 -16 l 1
 202 -17 l 1
 165 -207 l 1
 125 -197 l 1
 165 -10 l 1
 166 -10 l 1
 166 -7 l 1
 165 -6 164 -4 163 -4 c 2
 162 -4 l 1
 151 0 143 5 132 12 c 0
 81 47 60 100 60 168 c 0
 60 244 84 296 138 333 c 0
 164 350 188 359 213 359 c 0
 218 359 223 359 228 358 c 1
 230 358 l 1
 231 357 l 1
 233 356 l 1
 233 360 l 1
 234 361 l 1
 234 362 l 1
 273 554 l 1
 311 545 l 1
 268 348 l 1
 268 347 l 1
 267 346 268 346 267 345 c 1
 270 342 l 1
 271 342 l 1
211 33 m 1
 211 32 211 30 211 29 c 2
 210 26 l 2
 211 27 213 26 214 27 c 1
 216 27 l 1
 233 29 253 37 270 50 c 0
 308 77 325 116 325 170 c 0
 325 223 308 263 270 291 c 0
 269 292 265 294 264 295 c 1
 263 295 l 1
 261 297 l 1
 260 296 260 294 259 293 c 1
 259 290 l 1
 212 33 l 1
 211 33 l 1
225 313 m 2
 225 314 225 315 225 316 c 2
 226 318 l 1
 222 318 l 1
 222 319 l 1
 214 319 l 2
 195 319 178 312 159 298 c 0
 119 269 103 228 103 170 c 0
 103 111 123 61 169 38 c 1
 171 38 l 1
 171 37 l 1
 172 36 172 37 173 36 c 1
 174 37 174 38 175 39 c 0
 175 40 175 41 175 42 c 2
 225 313 l 2
EndSplineSet
Validated: 1
EndChar

StartChar: chi
Encoding: 967 967 274
Width: 496
VWidth: 649
GlyphClass: 2
Flags: HMW
HStem: 237 45<113 117 117 117>
VStem: 60 25<146 202> 118 29<-271 -262> 315 30<269 278> 405 31
LayerCount: 2
Fore
SplineSet
133 -278 m 0
 123 -278 118 -272 118 -263 c 0
 118 -261 117 -259 118 -257 c 2
 222 25 l 1
 179 149 140 232 117 237 c 1
 109 237 96 218 85 147 c 1
 85 146 l 1
 82 142 72 147 72 147 c 1
 72 147 60 161 60 172 c 0
 60 232 87 272 100 279 c 0
 104 281 108 282 112 282 c 0
 154 282 201 170 244 61 c 1
 315 278 l 2
 317 283 324 285 330 285 c 0
 339 285 345 277 345 270 c 0
 345 268 344 267 343 265 c 2
 263 15 l 1
 312 -108 356 -225 374 -235 c 1
 379 -230 395 -202 405 -146 c 0
 407 -138 414 -133 421 -133 c 0
 422 -133 423 -134 424 -134 c 0
 431 -136 436 -142 436 -150 c 0
 436 -151 436 -153 436 -154 c 0
 426 -211 407 -272 375 -272 c 0
 373 -272 371 -273 369 -272 c 0
 320 -261 282 -136 244 -31 c 1
 147 -271 l 2
 145 -276 139 -278 133 -278 c 0
EndSplineSet
Validated: 1
EndChar

StartChar: psi
Encoding: 968 968 275
Width: 412
VWidth: 707
GlyphClass: 2
Flags: HMW
VStem: 60 37<203 204 199 216 199 246> 63 37<311 314 314 320 290 323 290 323> 178 44<-129 -7 -129 -7> 308 37<295 320> 310 42<167 167 167 187> 313 34
LayerCount: 2
Fore
SplineSet
352 177 m 0x28
 352 65 311 8 223 -12 c 1
 222 -12 l 1
 222 -129 l 1
 177 -129 l 1
 178 -9 l 1
 178 -7 l 1x24
 176 -7 l 1
 84 10 66 92 60 190 c 0
 60 199 60 207 60 216 c 0xa4
 60 276 63 252 63 311 c 2
 63 323 l 1
 100 320 l 1
 100 314 l 2x60
 100 267 96 232 96 204 c 2
 96 199 l 1
 98 136 103 87 141 54 c 0
 154 42 164 37 178 33 c 1
 178 36 l 1
 181 428 l 1
 222 427 l 1
 221 34 l 1
 221 32 l 1
 223 32 l 1
 240 33 257 37 271 51 c 0
 297 74 305 112 313 146 c 1
 313 155 l 1xa4
 310 155 l 1
 310 167 l 2x28
 310 207 310 265 308 295 c 2
 306 319 l 1
 345 320 l 1x30
 346 234 352 271 352 177 c 0x28
60 205 m 1024
EndSplineSet
Validated: 1
EndChar

StartChar: omega
Encoding: 969 969 276
Width: 621
VWidth: 711
GlyphClass: 2
Flags: HMW
HStem: -11 39<190 227 190 227>
VStem: 60 35<134 164 134 172> 292 39<112 116 113 116> 524 37<143 179>
LayerCount: 2
Fore
SplineSet
331 115 m 1
 337 67 368 30 419 30 c 0
 484 30 524 87 524 155 c 0
 524 202 501 250 452 276 c 0
 448 277 445 278 443 281 c 1
 445 290 l 1
 446 299 l 1
 454 321 l 1
 459 326 l 1
 461 324 l 1
 464 323 471 322 473 320 c 0
 531 285 561 220 561 155 c 0
 561 131 557 107 549 85 c 0
 542 65 536 46 522 31 c 0
 497 5 457 -10 417 -10 c 0
 382 -10 348 1 325 26 c 0
 321 30 317 37 314 41 c 1
 313 39 l 1
 288 4 248 -11 207 -11 c 0
 166 -11 126 4 103 23 c 0
 102 25 100 28 99 30 c 0
 73 69 60 109 60 148 c 0
 60 195 79 241 114 282 c 0
 125 296 139 308 155 321 c 1
 156 321 l 1
 160 326 l 1
 163 328 l 1
 165 325 168 322 170 320 c 0
 175 310 181 300 185 287 c 1
 182 284 l 1
 165 272 150 256 139 243 c 0
 112 216 95 179 95 148 c 0
 95 120 107 90 130 58 c 1
 147 40 174 28 206 28 c 0
 247 28 282 52 290 98 c 0
 291 103 291 107 292 112 c 1
 292 113 l 1
 293 132 294 143 295 162 c 1
 298 162 301 162 304 162 c 2
 314 163 l 1
 320 163 l 1
 320 164 l 1
 321 164 320 163 321 163 c 2
 322 163 l 1
 325 162 l 1
 327 143 331 118 331 116 c 2
 331 115 l 1
139 243 m 1024
EndSplineSet
Validated: 1
EndChar

StartChar: fraction
Encoding: 8260 8260 277
Width: 536
VWidth: 714
GlyphClass: 2
Flags: HMW
HStem: -7 13G<60 60 60 110> 568 12G<427 427>
LayerCount: 2
Fore
SplineSet
60 -7 m 1
 427 580 l 1
 476 578 l 1
 110 -7 l 1
 60 -7 l 1
EndSplineSet
Validated: 1
EndChar

StartChar: uni20DD
Encoding: 8413 8413 278
Width: 623
VWidth: 718
GlyphClass: 2
Flags: HMW
HStem: 2 43<285 319 285 323> 546 46<293 328>
VStem: 60 46<244 341 244 350> 515 47<250 346>
LayerCount: 2
Fore
SplineSet
413 510 m 0
 379 533 345 546 311 546 c 0
 277 546 243 534 209 511 c 0
 137 462 106 391 106 290 c 0
 106 198 134 127 201 80 c 0
 235 57 268 45 301 45 c 0
 337 45 374 60 412 86 c 0
 482 134 515 201 515 298 c 0
 515 393 481 462 413 510 c 0
437 549 m 0
 521 493 563 412 563 300 c 0
 563 187 522 106 437 50 c 0
 391 19 346 2 300 2 c 0
 259 2 218 16 177 44 c 0
 95 99 60 183 60 290 c 0
 60 408 99 492 186 550 c 0
 229 578 269 592 311 592 c 0
 353 592 394 577 437 549 c 0
EndSplineSet
Validated: 1
EndChar

StartChar: universal
Encoding: 8704 8704 279
Width: 484
VWidth: 718
GlyphClass: 2
Flags: HMW
HStem: -3 13G<219 267 219 219> 335 52<156 312 156 171>
LayerCount: 2
Fore
SplineSet
382 594 m 1
 424 594 l 1
 267 -3 l 1
 219 -3 l 1
 60 595 l 1
 102 595 l 1
 156 387 l 1
 324 386 l 1
 382 594 l 1
241 51 m 1
 312 335 l 1
 171 335 l 1
 241 51 l 1
EndSplineSet
Validated: 1
EndChar

StartChar: uni2201
Encoding: 8705 8705 280
Width: 446
VWidth: 716
GlyphClass: 2
Flags: HMW
HStem: -4 45<219 252 236 252> 538 46<241 245 245 249 249 258>
VStem: 60 53<184 294> 347 38<121 128>
LayerCount: 2
Fore
SplineSet
242 41 m 2
 252 41 l 2
 297 41 343 87 347 128 c 1
 350 132 l 1
 362 132 l 2
 375 132 386 131 386 121 c 1
 380 91 l 1
 382 89 377 90 376 89 c 0
 375 41 302 -5 250 -5 c 0
 246 -5 243 -5 239 -4 c 1
 236 -4 l 2
 202 -4 168 8 132 33 c 0
 63 82 60 162 60 256 c 2
 60 294 l 2
 60 400 62 496 135 547 c 0
 172 572 207 585 241 585 c 2
 249 585 l 2
 319 585 383 521 383 463 c 0
 383 459 383 455 382 451 c 1
 376 445 356 450 350 445 c 1
 344 467 334 505 308 528 c 1
 288 538 273 538 258 538 c 2
 245 538 l 2
 216 538 188 523 160 502 c 0
 119 470 113 419 113 360 c 0
 113 334 114 306 114 278 c 0
 114 255 113 233 113 212 c 0
 113 155 119 105 159 73 c 0
 186 53 214 41 242 41 c 2
EndSplineSet
Validated: 1
EndChar

